<svg xmlns="http://www.w3.org/2000/svg" xmlns:xlink="http://www.w3.org/1999/xlink" height="893.8" preserveAspectRatio="xMidYMid meet" version="1.0" viewBox="75.3 51.9 846.3 893.8" width="846.3" zoomAndPan="magnify"><g><g><g><g><g><path d="M783.2,406c6.8-6.8,13.4-13.8,19.7-20.9c-17.5-71.4-54.1-134.9-109.7-190.5 C612,113.4,514,72.8,399.2,72.8s-212.8,40.6-294,121.8c-6.8,6.8-13.4,13.8-19.7,20.9c17.5,71.4,54.1,135,109.7,190.6 c81.2,81.1,179.2,121.7,294,121.7S702,487.1,783.2,406z" fill="#98B9FC" transform="translate(103)"/></g><g><path d="M802.8,385.1c-6.3,7.1-12.8,14.1-19.7,20.9C702,487.1,604,527.7,489.2,527.7s-212.8-40.6-294-121.7 C139.6,350.4,103,286.9,85.5,215.4c-68.1,77-102.1,168-102.1,273.1c0,114.9,40.6,212.9,121.8,294.1 c81.2,81.1,179.2,121.7,294,121.7s212.8-40.6,294-121.7C774.4,701.4,815,603.4,815,488.5C814.9,452.4,810.9,417.9,802.8,385.1z" fill="#86ACF7" transform="translate(103)"/></g></g></g></g><g><g><g><g><path d="M182.2,875c-0.2,0-0.4,0-0.6,0c-32.9-2.6-66-9.6-99.2-21.1c0.8,3.2,1.6,6.4,2.4,9.7 c6.2,23.9,13.9,48.9,23,75.1h96.3C196.5,915.1,189.2,893.9,182.2,875 M241,803.8c-0.5,4-1.1,7.8-1.8,11.6 c-2.7,15.2-7,29.6-13.1,43.4c-7.1,15.9-16.4,30.7-28,44.5c0.3,0.9,0.6,1.7,1,2.6c3.3,9.1,6.6,18.1,9.8,27.2 c0.7,1.7,1.3,3.4,1.9,5.2l0.2,0.6h58.7c0.2-9.4-0.7-23.4-2.7-42.1C264.2,871,255.5,840.1,241,803.8 M81.1,636.4 c2.3,4.2,4.5,8.4,6.8,12.5c10.4,19.6,20,38.3,28.8,56.1c1,2,1.9,3.9,2.9,5.9c1.4,2.8,2.7,5.5,4.1,8.3 c5.8,11.9,11.1,23.4,16.1,34.5c5.7,12.8,10.9,25.1,15.7,36.8v0.1c0.3,0.7,0.6,1.4,0.9,2.2c0.4,0.9,0.7,1.9,1.1,2.9 c0.2,0.5,0.3,0.9,0.5,1.4c6.1,15.3,12,30.6,17.9,46c4.1,10.8,8.1,21.5,12.1,32.3c2.5,6.6,5,13.2,7.4,19.9 c18.8-19.5,33.3-51.6,43.6-96.5C208.1,725.4,155.5,671.3,81.1,636.4 M67.9,773.4c0.1,0.6,0.1,1.2,0.2,1.9 c2.6,22.9,6.9,47.2,13.1,73c35.1,12.1,68.2,19.5,99.3,22.1c-3-8.1-6-16.1-9-24l-17.6-44.6c-0.1-0.2-0.2-0.4-0.2-0.5 c-0.8-2-1.5-4-2.3-5.9h-0.1l-0.3-0.5C123.8,790.8,96.2,783.6,67.9,773.4 M78.4,644.3c-0.1,0.1-0.1,0.2-0.2,0.3 c-3.9,11.5-6.8,23.7-8.9,36.7c9,7.4,18.6,13.9,29,19.6c4.9,2.7,9.9,5.2,14.9,7.4c0,0,0.1,0,0.2,0.1c0-0.1-0.1-0.1-0.1-0.2 c-10.8-23.3-21.9-46.1-33.3-68.7C79.3,641.1,78.8,642.7,78.4,644.3 M69.3,688.1c-0.3-0.3-0.6-0.5-0.9-0.8 c-3.4,23.8-3.8,49.9-1.3,78.4c18.6,7.4,37.6,13.5,57.1,18.4c8.1,2,16.1,3.8,24.2,5.3c-9.9-24.6-20.3-48.8-31.2-72.7 c-1.3-0.6-2.6-1.1-3.8-1.7c-1.7-0.8-3.4-1.5-5.1-2.3c-3.4-1.6-6.7-3.3-9.9-5.1C87.9,701.9,78.2,695.4,69.3,688.1z" fill="#396DCD" transform="translate(103)"/></g><g><path d="M68.4,687.3c0.3,0.3,0.6,0.5,0.9,0.8c9,7.4,18.6,13.9,29,19.6c3.3,1.8,6.6,3.5,9.9,5.1 c1.7,0.8,3.4,1.6,5.1,2.3c1.3,0.6,2.5,1.1,3.8,1.7c10.9,23.9,21.3,48.1,31.2,72.7c-8.1-1.6-16.1-3.3-24.2-5.3 c-19.5-4.9-38.5-11-57.1-18.4c0,0,0,0.1,0,0.2c0.2,1.9,0.4,3.8,0.6,5.8c0.1,0.6,0.1,1.1,0.2,1.7c28.3,10.3,56,17.4,83,21.5 l0.3,0.5h0.1c0.8,2,1.6,3.9,2.3,5.9c0.1,0.1,0.1,0.3,0.2,0.5l17.6,44.6c3.1,8,6.1,16,9,24c-31.1-2.6-64.2-10-99.3-22.1 c0.5,1.9,0.9,3.8,1.4,5.7c33.2,11.5,66.3,18.5,99.2,21.1c0.2,0,0.4,0,0.6,0c6.9,18.8,14.3,40,22,63.7h6.7l-0.2-0.6 c-0.6-1.8-1.2-3.5-1.9-5.2c-3.2-9.1-6.5-18.1-9.8-27.2c-0.4-0.9-0.7-1.7-1-2.6c11.6-13.8,20.9-28.6,28-44.5 c6.1-13.8,10.4-28.2,13.1-43.4c0.7-3.8,1.3-7.7,1.8-11.6c-0.7-1.7-1.4-3.4-2.1-5c-10.3,44.9-24.8,77-43.6,96.5 c-2.4-6.7-4.9-13.3-7.4-19.9c-4-10.8-8-21.6-12.1-32.3c-5.9-15.4-11.8-30.7-17.9-46c-0.2-0.5-0.4-0.9-0.5-1.4 c-0.4-1-0.8-2-1.1-2.9c-0.3-0.8-0.6-1.5-0.9-2.2v-0.1c-4.8-11.8-10-24-15.7-36.8c-5-11.1-10.4-22.6-16.1-34.5 c-1.4-2.8-2.7-5.6-4.1-8.3c-1-2-1.9-3.9-2.9-5.9c-8.8-17.9-18.4-36.6-28.8-56.1c-2.3-4.2-4.5-8.3-6.8-12.5c-0.4,1-0.8,2-1.2,3.1 c11.5,22.5,22.6,45.4,33.3,68.7c0,0,0,0.1,0.1,0.2c-0.1-0.1-0.1-0.1-0.2-0.1c-5-2.2-10-4.7-14.9-7.4 c-10.4-5.7-20.1-12.2-29-19.6C68.9,683.3,68.6,685.3,68.4,687.3z" fill="#80AAFC" transform="translate(103)"/></g></g></g></g><g><g><g><g><path d="M582.1,917.4c-1.4-0.3-2.8-0.6-4.1-0.9c-24.2-5.5-47-14.1-68.4-25.7c-4.7,15.2-9.2,32.3-13.7,51.3h75.9 C575,933.8,578.5,925.6,582.1,917.4 M584.4,912.2c1.3-2.8,2.5-5.5,3.8-8.3c3.2-6.9,6.6-13.7,10.1-20.5c-2-3.9-4-7.9-5.9-11.9 c-12.8-27.1-22.4-55.7-29-85.7c-16.8,21.9-29.2,41.8-37.4,59.9c-4.9,10.9-9.7,23.6-14.4,38.2c16.6,9.4,34,17,52.3,22.7 c2.1,0.7,4.1,1.3,6.2,1.9C574.8,909.9,579.6,911.1,584.4,912.2 M723,849.1c-9.8,3.3-19.7,6.2-29.8,8.6c-6,1.5-12.1,2.8-18.2,4 c-6.5,1.3-13.2,2.4-19.8,3.3c-9.5,1.4-17.7,2-24.5,1.9c-4.4,0-8.6-0.4-12.6-1.1c-8.5,15.2-16.6,30.8-24.5,46.8 c-0.2,0.4-0.5,0.9-0.7,1.4h0.1l-2.3,5.1c-0.1,0-0.1,0-0.2,0c-3.6,7.6-7.2,15.3-10.7,23h77.1v-0.8c1.3,0.4,2.6-0.1,3.8-1.6 c4.9-6.3,9.6-12.5,14.2-18.7c1-1.3,1.9-2.6,2.9-3.9c11.4-15.5,22-30.8,31.6-45.8c1.8-2.9,3.6-5.7,5.3-8.4c1-1.7,2-3.4,3.1-5 C719.5,855,721.3,852,723,849.1 M673.2,779.8c-0.4,0.4-0.7,0.9-1.1,1.3c0,0,0.1,0,0.2,0c-1.1,1.5-2.2,3-3.3,4.5 c-14.7,20.5-28.7,42.1-41.9,64.7c-0.8,1.4-1.6,2.8-2.4,4.1c-1,1.8-2.1,3.6-3.1,5.4c2.9,0.3,6,0.5,9.2,0.5 c5.7,0.1,12.3-0.3,19.9-1.3c1.5-0.2,3-0.4,4.6-0.6c4.6-0.6,9.2-1.4,13.7-2.2c20.2-3.6,39.8-8.7,59-15.4 c9.5-16.5,17.9-32.5,25.1-48.2c0.3-0.6,0.5-1.1,0.7-1.7c0.3-0.6,0.5-1.1,0.8-1.6c0.9-1.8,1.6-3.6,2.3-5.3c0,0,0-0.1,0-0.2 c3.2-7.5,6.1-14.8,8.8-22.1c-2.9,0.3-5.9,0.6-8.9,0.8c-22.6,1.7-44.9,1-66.9-2.3c-0.6-0.1-1.1-0.1-1.7-0.2 C682.9,766.6,678,773.2,673.2,779.8 M583.2,761.6c-1.2,1.3-2.3,2.7-3.5,4.1c-3.9,4.6-7.6,9.1-11.2,13.6 c7.1,31.2,16.1,59.6,27,85c1.9,4.5,3.8,8.9,5.9,13.1c2.4-4.5,4.8-9.1,7.3-13.6c1.1-1.9,2.2-3.8,3.2-5.8c1.1-1.9,2.2-3.8,3.4-5.8 c0.8-1.4,1.6-2.7,2.3-4.1c1.6-2.7,3.2-5.4,4.8-8c9-14.9,18.7-29.4,28.9-43.7c9.1-12.7,18.7-25.2,28.7-37.5 c29.5-35.9,63.1-69.8,100.8-101.7C700.7,667.5,634.8,702.3,583.2,761.6 M784.1,660.1c0-0.3,0-0.5-0.1-0.8 c-32.5,27.8-62.7,59.1-90.6,93.9c0.7,0.2,1.5,0.3,2.2,0.5c17.8,3.2,37.5,4,59.3,2.6c3.9-0.3,8.2-0.6,12.9-1.1 c5.5-15.9,9.6-31.3,12.2-46.1c0.5-2.1,0.8-4.1,1.1-6c2.1-13,3.1-25.5,3.1-37.6c0-0.2-0.1-0.3-0.1-0.4 C784.1,663.4,784.1,661.8,784.1,660.1z" fill="#396DCD" transform="translate(103)"/></g><g><path d="M784,659.3c0-0.9-0.1-1.7-0.1-2.6c-1,0.1-2.1,0.2-3.1,0.4C743.1,689,709.5,722.9,680,758.8 c-10,12.3-19.6,24.8-28.7,37.5c-10.2,14.3-19.8,28.9-28.9,43.7c-1.6,2.7-3.2,5.4-4.8,8c-0.8,1.4-1.5,2.7-2.3,4.1 c-1.1,1.9-2.3,3.9-3.4,5.8c-1.1,1.9-2.1,3.9-3.2,5.8c-2.5,4.5-4.9,9-7.3,13.6c-2-4.3-4-8.6-5.9-13.1c-10.9-25.4-19.9-53.8-27-85 c-1.7,2.3-3.5,4.5-5.2,6.7c6.5,30,16.2,58.6,29,85.7c1.9,4,3.9,7.9,5.9,11.9c-3.5,6.8-6.8,13.6-10.1,20.5 c-1.3,2.8-2.6,5.5-3.8,8.3c-4.8-1.1-9.6-2.3-14.3-3.7c-2-0.6-4.1-1.2-6.2-1.9c-18.3-5.7-35.7-13.2-52.3-22.7 c-0.7,2.2-1.4,4.5-2.1,6.8c21.4,11.6,44.2,20.2,68.4,25.7c1.4,0.3,2.7,0.6,4.1,0.9c-3.6,8.1-7.1,16.4-10.4,24.7h8 c3.5-7.8,7.1-15.5,10.7-23c0.1,0,0.2,0,0.2,0l2.3-5.1h0.3c0.2-0.5,0.4-0.9,0.7-1.4c7.8-16.1,16-31.7,24.5-46.8 c4,0.7,8.2,1,12.6,1.1c6.8,0.1,15-0.5,24.5-1.9c6.7-0.9,13.3-2,19.8-3.3c6.1-1.2,12.2-2.5,18.2-4c10.1-2.5,20-5.3,29.8-8.6 c1.7-2.7,3.3-5.5,4.9-8.3c-19.1,6.7-38.8,11.8-59,15.4c-4.6,0.8-9.1,1.5-13.7,2.2c-1.6,0.2-3.1,0.4-4.6,0.6 c-7.6,0.9-14.2,1.4-19.9,1.3c-3.2,0-6.2-0.2-9.2-0.5c1-1.8,2-3.6,3.1-5.4c0.8-1.4,1.6-2.7,2.4-4.1 c13.3-22.6,27.3-44.2,41.9-64.7c1.1-1.5,2.2-3,3.3-4.5c-0.1,0-0.1,0-0.2,0c0.3-0.4,0.7-0.8,1.1-1.3c4.8-6.6,9.8-13.1,14.8-19.5 c0.6,0.1,1.2,0.2,1.7,0.2c22.1,3.2,44.4,4,66.9,2.3c3-0.2,5.9-0.5,8.9-0.8c0.8-2.2,1.6-4.5,2.3-6.7c-4.7,0.5-9,0.9-12.9,1.1 c-21.7,1.4-41.5,0.5-59.3-2.6c-0.7-0.1-1.4-0.3-2.2-0.5C721.3,718.5,751.5,687.1,784,659.3z" fill="#80AAFC" transform="translate(103)"/></g></g></g></g><g><g><g><g><path d="M485.4,946.4c-6.4,8.8-12.7,17.8-19.1,27c-2.6,3.7-5.1,7.5-7.7,11.3h65.6c8.9-11.8,17.1-23.7,24.5-35.7 C527.1,950.1,506,949.3,485.4,946.4 M465.8,904.4c0.2,8.9,1.2,20.5,3.2,34.9c0.8,5.7,1.7,11.7,2.8,18.2 c4.3-6.2,8.7-12.2,13.1-18.2c7.5-10.3,15-20.3,22.6-30.1c-3.8-14.9-5.9-29.1-6.2-42.8C488.1,877.9,476.3,890.6,465.8,904.4 M548.1,859.6c-2.5-7.2-3.9-15.1-4.3-23.7c-13.9,8.2-26.8,17.2-38.6,27.2c-0.5,15.2,1.1,29.5,4.7,42.9 C522.7,889.7,535.4,874.3,548.1,859.6 M546.8,834.1c1.2,8.1,2.9,15.2,5,21.2c12.4-14.3,25-28.2,38-41.8 C574.5,819.5,560.2,826.4,546.8,834.1 M554.3,939.3c8.1-14,15.1-28.1,21.2-42.5c-18.1,0.7-34.8-0.4-50.3-3.2 c-5.2,6.5-10.4,13.2-15.6,20c-6.3,8.3-12.7,16.9-19.1,25.7c-1.1,1.4-2.1,2.8-3.1,4.2c20.7,2.5,41.8,3,63.6,1.4 C552.1,943,553.2,941.2,554.3,939.3 M571.3,839.1h22.9c2.2-9.7,4-19.4,5.3-29.3C590.3,818.9,580.8,828.6,571.3,839.1 M578,890.6 c6.2-15.4,11.2-30.9,15-46.7h-26c-12.9,14.3-26,29.9-39.4,46.7c11.2,1.6,27.6,2.4,49.4,2.4C577.4,892.2,577.7,891.4,578,890.6 M427.8,973.4c-0.4,0.8-0.7,1.6-1,2.5c-1.1,2.9-2.1,5.8-3.1,8.8h29.4c2.5-3.8,5-7.5,7.6-11.3c2.9-4.3,5.8-8.5,8.8-12.7 c-2.2-7-4.1-14.1-5.6-21.5c-1.8-8.7-3.2-17.7-4.1-26.9c-6,8.5-11.5,17.5-16.6,26.9C437.5,950.1,432.3,961.4,427.8,973.4z" fill="#5C8CF0" transform="matrix(.99315 0 0 .99315 326.2 -33.95)"/></g><g><path d="M599.5,809.8c-3.3,1.2-6.5,2.4-9.7,3.7c-13,13.6-25.7,27.5-38,41.8c-2.2-6-3.8-13.1-5-21.2 c-1,0.6-2,1.1-2.9,1.7c0.4,8.7,1.8,16.6,4.3,23.7c-12.7,14.7-25.4,30.2-38.1,46.4c-3.6-13.5-5.2-27.8-4.7-42.9 c-1.4,1.1-2.7,2.2-4,3.4c0.3,13.7,2.4,27.9,6.2,42.8C500,919,492.5,929,485,939.3c-4.4,6-8.8,12.1-13.1,18.2 c-1.1-6.5-2-12.6-2.8-18.2c-2-14.4-3.1-26-3.2-34.9c-2,2.6-4,5.3-5.9,8c0.9,9.2,2.3,18.2,4.1,26.9c1.5,7.4,3.4,14.5,5.6,21.5 c-3,4.2-5.9,8.4-8.8,12.7c-2.6,3.8-5.1,7.5-7.6,11.3h5.3c2.6-3.8,5.2-7.6,7.7-11.3c6.4-9.3,12.8-18.3,19.1-27 c20.7,2.9,41.7,3.8,63.2,2.6c0.8-1.4,1.6-2.7,2.5-4.1c-21.7,1.6-42.9,1.1-63.6-1.4c1-1.4,2-2.8,3.1-4.2 c6.4-8.8,12.8-17.4,19.1-25.7c5.3-6.9,10.5-13.5,15.6-20c15.5,2.9,32.2,3.9,50.3,3.2c0.6-1.3,1.1-2.6,1.6-3.8 c-21.8,0-38.3-0.8-49.4-2.4c13.4-16.9,26.5-32.4,39.4-46.7h26c0.4-1.6,0.8-3.1,1.1-4.7h-22.9 C580.8,828.6,590.3,818.9,599.5,809.8z" fill="#92C0FC" transform="matrix(.99315 0 0 .99315 326.2 -33.95)"/></g></g></g></g><g><g><g><g><path d="M761.8,946.9c-6.4,8.8-12.7,17.8-19.1,27c-2.6,3.7-5.1,7.5-7.7,11.3h65.6c8.9-11.8,17.1-23.7,24.5-35.7 C803.5,950.7,782.4,949.8,761.8,946.9 M742.2,904.9c0.2,8.9,1.2,20.5,3.2,34.9c0.8,5.7,1.7,11.7,2.8,18.2 c4.3-6.2,8.7-12.2,13.1-18.2c7.5-10.3,15-20.3,22.6-30.1c-3.8-14.9-5.9-29.1-6.2-42.8C764.5,878.4,752.7,891.1,742.2,904.9 M824.5,860.1c-2.5-7.2-3.9-15.1-4.3-23.7c-13.9,8.2-26.8,17.2-38.6,27.2c-0.5,15.2,1.1,29.5,4.7,42.9 C799.1,890.3,811.8,874.8,824.5,860.1 M823.1,834.7c1.2,8.1,2.9,15.2,5,21.2c12.4-14.3,25-28.2,38-41.8 C850.9,820.1,836.5,827,823.1,834.7 M830.7,939.8c8.1-14,15.1-28.1,21.2-42.5c-18.1,0.7-34.8-0.4-50.3-3.2 c-5.2,6.5-10.4,13.2-15.6,20c-6.3,8.3-12.7,16.9-19.1,25.7c-1.1,1.4-2.1,2.8-3.1,4.2c20.7,2.5,41.8,3,63.6,1.4 C828.5,943.6,829.6,941.7,830.7,939.8 M847.7,839.6h22.9c2.2-9.7,4-19.4,5.3-29.3C866.6,819.4,857.2,829.2,847.7,839.6 M854.4,891.1c6.2-15.4,11.2-30.9,15-46.7h-26c-12.9,14.3-26,29.9-39.4,46.7c11.2,1.6,27.6,2.4,49.4,2.4 C853.8,892.7,854.1,891.9,854.4,891.1 M704.2,973.9c-0.4,0.8-0.7,1.6-1,2.5c-1.1,2.9-2.1,5.8-3.1,8.8h29.4 c2.5-3.8,5-7.5,7.6-11.3c2.9-4.3,5.8-8.5,8.8-12.7c-2.2-7-4.1-14.1-5.6-21.5c-1.8-8.7-3.2-17.7-4.1-26.9 c-6,8.5-11.5,17.5-16.6,26.9C713.9,950.6,708.7,962,704.2,973.9z" fill="#5C8CF0" transform="matrix(-.99315 0 0 .99315 956.25 -32.9)"/></g><g><path d="M875.9,810.3c-3.3,1.2-6.5,2.4-9.7,3.7c-13,13.6-25.7,27.5-38,41.8c-2.2-6-3.8-13.1-5-21.2 c-1,0.6-2,1.1-2.9,1.7c0.4,8.7,1.8,16.6,4.3,23.7c-12.7,14.7-25.4,30.2-38.1,46.4c-3.6-13.5-5.2-27.8-4.7-42.9 c-1.4,1.1-2.7,2.2-4,3.4c0.3,13.7,2.4,27.9,6.2,42.8c-7.6,9.8-15.1,19.8-22.6,30.1c-4.4,6-8.8,12.1-13.1,18.2 c-1.1-6.5-2-12.6-2.8-18.2c-2-14.4-3.1-26-3.2-34.9c-2,2.6-4,5.3-5.9,8c0.9,9.2,2.3,18.2,4.1,26.9c1.5,7.4,3.4,14.5,5.6,21.5 c-3,4.2-5.9,8.4-8.8,12.7c-2.6,3.8-5.1,7.5-7.6,11.3h5.3c2.6-3.8,5.2-7.6,7.7-11.3c6.4-9.3,12.8-18.3,19.1-27 c20.7,2.9,41.7,3.8,63.2,2.6c0.8-1.4,1.6-2.7,2.5-4.1c-21.7,1.6-42.9,1.1-63.6-1.4c1-1.4,2-2.8,3.1-4.2 c6.4-8.8,12.8-17.4,19.1-25.7c5.3-6.9,10.5-13.5,15.6-20c15.5,2.9,32.2,3.9,50.3,3.2c0.6-1.3,1.1-2.6,1.6-3.8 c-21.8,0-38.3-0.8-49.4-2.4c13.4-16.9,26.5-32.4,39.4-46.7h26c0.4-1.6,0.8-3.1,1.1-4.7h-22.9 C857.2,829.2,866.6,819.4,875.9,810.3z" fill="#92C0FC" transform="matrix(-.99315 0 0 .99315 956.25 -32.9)"/></g></g></g></g><g><g><g><g><path d="M346.8,827.8l-26-2l-13.1,80.4l31.8,0.5L346.8,827.8 M425.6,457.6c-3.2,5.7-6.1,10.6-8.9,14.6 c-5.4,7.9-11.1,14.3-17,19.4c-7.4,6.8-14.6,10-21.8,9.6c-5.3-0.3-11.4-2.9-18.4-7.7c-15.8-10.5-28-22.1-36.5-34.8 c-2.7,2.6-5.7,4.6-9.1,6.1c11.9,36,21.5,83.2,28.9,141.5c10.9,86.5,16.8,197.5,17.8,333.2h72.3c9.1-112.3,11.5-223.3,7.1-333.2 c-2-48.7-5.2-97.1-9.8-145.3c-0.8-0.9-1.6-1.8-2.3-2.7c-0.1-0.1-0.2-0.1-0.3-0.2C426.9,458,426.3,457.8,425.6,457.6 M697.7,601.8c-1.4-1.1-2.8-2.1-4.1-3.2l-17.5,27.6c21.7,20.7,46.5,34.3,74.4,40.7l10.4-33.5c-2.3-0.7-4.5-1.3-6.6-2 C734.2,624.8,715.3,614.9,697.7,601.8z" fill="#65CAD7" transform="translate(103)"/></g><g><path d="M214.4,606.3h-0.3c-2.2,17-4.1,33.6-5.9,49.8l-10.4,140.5l-32.9-2.6c10.9,1.9,21.8,3.7,32.9,5.6 c2.5,0.4,4.9,0.8,7.4,1.3c0.1,0,0.1,0,0.2,0c35.8,6,72.7,12,110.9,18l-12.7,91.3c-39.1,3.7-72.6,5.5-100.5,5.3v0.2 c40.4,1.5,74.6,1.4,102.7-0.2l1.6-9.5l13.1-80.4l1.9-11.6c-40.2-7.1-79.1-12.7-116.9-16.8L214.4,606.3 M574.6,825.9l6.1-16.2 l-9.8-70.5c-6.6-41-15.8-85.2-27.5-132.8c-0.9-3.4-1.7-6.8-2.6-10.3c0.6,3.5,1.2,6.9,1.9,10.3c14.1,76.8,24.9,153.1,32.5,228.9 C575,832.1,574.8,829,574.6,825.9 M575.5,840c-0.1-1.6-0.2-3.2-0.3-4.7l-18.3,1.8c-10,1.4-15,2.1-15,2.2l-54,6.3l-1.8,6.8 l-5.7,0.9c-0.8,30.3,7.1,53.2,23.6,68.7c0.5,0.3,1,0.6,1.5,1c17,11.3,41.7,16.7,74.2,16.4c-0.1-1.9-0.1-3.8-0.1-5.6 c-66.7,2.7-97.8-24.5-93.3-81.3l55.5-7.7v0.1l16-2.3c-0.1,0-0.3,0.1-0.4,0.1L575.5,840z" fill="#97B2E4" transform="translate(103)"/></g><g><path d="M425.6,457.6c0.3-0.4,0.5-0.8,0.8-1.3c-3.6-4.9-6.3-10.3-8.1-16.4c-2.5-8.5-3-16.9-1.4-25.1 c-31.5,8.5-59.3,7.5-83.2-3c1.9,10.4,2,19.4,0.2,27c-1.4,5.9-3.8,11-7.1,15.5c-0.6,0.9-1.3,1.7-2,2.5c-0.6,0.7-1.2,1.3-1.8,2 c8.6,12.7,20.7,24.3,36.5,34.8c7,4.9,13.1,7.4,18.4,7.7c7.2,0.4,14.4-2.9,21.8-9.6c6-5.1,11.6-11.6,17-19.4 C419.5,468.2,422.5,463.3,425.6,457.6z" fill="#FFB6A8" transform="translate(103)"/></g><g><path d="M312.6,460.7h-0.5c-46.2,8-84.4,22-114.6,42.2c-18.7,24-36.8,61-54.4,111.1 c-19.8,56.1-38.8,128.6-57.3,217.5c1.2,23.8,9.6,44.4,25.4,61.8c0.5,0.6,1,1.1,1.6,1.7c0.2,0.2,0.4,0.4,0.6,0.7 c5.9,6.3,13.2,10.7,22.1,13.4c11.3,2.9,25.2,4.8,41.8,5.9c2.1,0.1,4.2,0.2,6.4,0.3c0.4,0,0.7,0,1.1,0.1l12.1,0.5 c2.1,0,4.2,0,6.4,0.1c27.9,0.2,61.4-1.6,100.5-5.3l12.7-91.3c-38.2-6-75.1-12-110.9-18c-0.1,0-0.2,0-0.2,0 c-2.5-0.5-5-0.9-7.4-1.3c-11.1-1.9-22.1-3.8-32.9-5.6l32.9,2.6l10.4-140.5c1.8-16.3,3.7-32.9,5.9-49.8h0.3l-8.7,191 c37.8,4.1,76.7,9.7,116.9,16.8l-1.9,11.6l26,2l-7.4,78.8l-31.8-0.5l-1.6,9.5c-28.1,1.7-62.4,1.7-102.7,0.2l-2.7,23.7h160 c-1-135.6-6.9-246.7-17.8-333.2c-7.4-58.3-17-105.5-28.9-141.5C313.5,463.4,313,462.1,312.6,460.7 M579.6,933.7 c-0.6-31.5-2-62.7-4.1-93.6l-18.2,2.5c0.1,0,0.2,0,0.4-0.1l-16,2.3v-0.1l-55.5,7.7C481.8,909.2,512.9,936.3,579.6,933.7 M753.3,667.6c-1-0.2-1.9-0.4-2.9-0.6c-27.9-6.4-52.6-20-74.4-40.7c-1.3-1.3-2.6-2.5-3.9-3.8l-34.4,48.8 c-31.5-75.3-56-123-73.4-143.1c-19.3-22.3-29-33.4-29.2-33.5c-28.6-17.6-62.8-29.5-102.6-35.7l-2.6,0.2c0.1,0.7,0.1,1.3,0.2,2 c4.6,48.2,7.9,96.6,9.8,145.3c4.4,109.9,2,220.9-7.1,333.2h146.8c-0.1-0.1-0.1-0.2,0-0.2c-32.5,0.4-57.2-5.1-74.2-16.4 c-0.5-0.4-1-0.7-1.5-1c-16.5-15.5-24.3-38.3-23.6-68.7l5.7-0.9l1.8-6.8l54-6.3c0-0.1,5-0.8,15-2.2l18.3-1.8 c-7.6-75.8-18.4-152.1-32.5-228.9c-0.7-3.4-1.3-6.8-1.9-10.3c0.9,3.5,1.7,6.9,2.6,10.3c11.7,47.6,20.9,91.8,27.5,132.8l9.8,70.5 c13.1,16,30.2,27.3,51.2,33.9c17.7,3.9,33.4,1.3,47.1-7.8C698.7,804.5,723.5,748.5,753.3,667.6z" fill="#FFF" transform="translate(103)"/></g></g></g></g><g><g><g transform="translate(103)"><g><path d="M459.7,892.5c0.1,0.1,0.1,0.2,0.2,0.3l29,7.1c-0.3-0.8-0.6-1.5-1.1-2.3c1.5,0,2.8-0.3,4-0.8l-30.8-6.5 C459.4,890.9,458.9,891.6,459.7,892.5 M493.5,879.5c2.6-1,4.6-2,6.2-3.1l-35.1-8.5c-0.9,1-1,1.9-0.4,2.8l1.4,0.5l29.8,9.8 C494.8,880.5,494.2,880,493.5,879.5 M465.8,840.2l-1.3-0.5c-1.6,0.7-2.6,1.4-3.1,2.1l39.5,13.8c-0.4-0.4-0.7-0.7-1.1-1 c1.1-0.6,2.1-1.2,2.9-1.9L465.8,840.2z" fill="#EF9894"/></g><g><path d="M464.1,870.7c0.3,0.4,0.8,0.8,1.4,1.2c0-0.3,0-0.5,0.1-0.7L464.1,870.7z" fill="#FFD3C0"/></g><linearGradient xmlns:xlink="http://www.w3.org/1999/xlink" gradientTransform="translate(206 -1245.72)" gradientUnits="userSpaceOnUse" id="a" x1="316.891" x2="249.885" xlink:actuate="onLoad" xlink:show="other" xlink:type="simple" y1="2123.743" y2="2112.787"><stop offset=".326" stop-color="#fdb8bb"/><stop offset="1" stop-color="#ffe3d8"/></linearGradient><path d="M473.1,827c0.2-0.2,0.3-0.3,0.5-0.5c-5.7-2-11.8-3.9-18.2-5.7c-0.2,0-0.4,0-0.5,0.1 c-0.7,0.1-1.4,0.1-2.1,0.2c-5.4,29.7-8.7,59.6-10.1,90c7.9-0.5,16.3-0.8,25.2-0.8c4.2,0,8.5,0,13,0.2c7.7-1,10.4-4.5,8.2-10.6 l-29-7.1c-0.1-0.1-0.2-0.2-0.2-0.3c-0.8-0.9-0.3-1.6,1.4-2.2l30.8,6.5c0.1,0,0.2-0.1,0.3-0.1c1.6-0.8,3-2,4.1-3.7 c0.2-0.3,0.3-0.5,0.5-0.8c2-4.5,1.5-8.3-1.5-11.3l-29.8-9.8c-0.1,0.2-0.1,0.4-0.1,0.7c-0.6-0.4-1.1-0.8-1.4-1.2 c-0.7-0.9-0.5-1.8,0.4-2.8l35.1,8.5c1.9-1.4,3.2-2.9,4-4.6c0.3-0.7,0.6-1.4,0.8-2.2c0.9-6.3-0.1-10.9-3-13.8 c-0.1-0.1-0.2-0.2-0.3-0.2l-39.5-13.8c0.5-0.7,1.5-1.4,3.1-2.1l1.3,0.5c0-0.5,0-0.9,0.1-1.3c0.2-2.2,0.9-4.1,2-5.9 c0.5-0.7,1.3-1.6,2.6-2.9C471.7,828.8,472.5,827.8,473.1,827z" fill="url(#a)"/><linearGradient xmlns:xlink="http://www.w3.org/1999/xlink" gradientTransform="translate(206 -1245.72)" gradientUnits="userSpaceOnUse" id="b" x1="300.156" x2="263.801" xlink:actuate="onLoad" xlink:show="other" xlink:type="simple" y1="2090.196" y2="2080.479"><stop offset=".326" stop-color="#fdb8bb"/><stop offset="1" stop-color="#ffe3d8"/></linearGradient><path d="M473.5,826.5c-0.2,0.2-0.3,0.3-0.5,0.5c-0.6,0.8-1.4,1.8-2.6,3.1c-1.3,1.3-2.1,2.3-2.6,2.9 c-1.2,1.8-1.8,3.8-2,5.9c0,0.4-0.1,0.8-0.1,1.3l37,12.6c3.5-3,4.6-7.3,3.2-12.8C496.9,835.3,486.1,830.8,473.5,826.5z" fill="url(#b)"/><g><path d="M374.9,836.9l-28.7-3.8l-6.6,69.6l42.6,2c3.9,3.6,8.3,5.9,13.3,7c8.3,1.2,16.7,1.7,25.4,1.4 c6.8-0.2,13.7-0.9,20.7-2c0.3,0,0.6,0,0.9-0.1c1.4-30.3,4.8-60.3,10.1-90c-8.7,0.9-17.6,2.1-26.8,3.8c-9,1.6-18.1,3.5-27.5,5.8 C390.8,832.5,382.9,834.6,374.9,836.9z" fill="#FFE3D8"/></g></g></g></g><g><g><g><path d="M452.9,462.1c-1.4-0.1-3.6-0.4-6.7-0.7c-0.7-0.1-1.3-0.2-1.9-0.3c16.2,19.2,28.5,41.4,36.9,66.7 l-27.8,21c-0.5,0.4-0.9,0.9-1.1,1.6c-0.2,0.7-0.1,1.3,0.2,2c0.3,0.6,0.7,1.1,1.3,1.4l33.6,19.4c-3.8,52.5-19,104.3-45.5,155.2 c0,0.1,0,0.1-0.1,0.2c-0.1,0.2-0.2,0.4-0.3,0.6V742c0.2-0.3,0.3-0.6,0.5-0.8c2-3.6,3.9-7.1,5.7-10.7c0.8-1.6,1.7-3.2,2.5-4.8 c25.4-50.5,39.9-101.8,43.4-153.9c0-0.5-0.1-1.1-0.4-1.6s-0.6-0.9-1.1-1.2l-31.4-18l26-19.5c0.5-0.4,0.9-0.9,1.1-1.5 s0.2-1.2,0-1.8C479.7,503.3,468.1,481.3,452.9,462.1 M287.2,464.8l-2.3,0.8c-1,0.3-2.7,1-5,2.2c-0.3,0.1-0.5,0.3-0.8,0.4 c-10.6,23.4-18.7,46.6-24.2,69.7c-0.2,0.7-0.1,1.4,0.2,2s0.8,1.1,1.5,1.4l36.3,15.8l-32.8,19.1c-0.7,0.4-1.1,1-1.4,1.7 c-0.2,0.7-0.2,1.4,0.1,2.1c28.9,64,60.9,122.9,95.7,176.6c-0.1-0.6-0.1-1.2-0.2-1.7c-0.2-1.4-0.2-3.1-0.2-5.3c0-2.3,0-3.9,0-4.9 c-32.2-50.4-61.8-105.4-88.8-164.9l35.6-20.8c0.7-0.4,1.1-0.9,1.4-1.7c0.2-0.7,0.2-1.5-0.2-2.2c-0.3-0.7-0.8-1.2-1.5-1.5 l-39.5-17C267.1,512.9,275.7,488.9,287.2,464.8z" fill="#97B2E4" transform="translate(103.9)"/></g></g></g><g><g><g transform="translate(788.85 -195)"><radialGradient xmlns:xlink="http://www.w3.org/1999/xlink" cx="-1584.023" cy="1363.292" gradientTransform="translate(1691.55 -724.62)" gradientUnits="userSpaceOnUse" id="c" r="53.2" xlink:actuate="onLoad" xlink:show="other" xlink:type="simple"><stop offset=".326" stop-color="#fdb8bb"/><stop offset="1" stop-color="#ffdccd"/></radialGradient><path d="M102.7,647.5c-0.1-2.2-0.4-4.1-0.8-5.9c-1-4.5-3.4-6.1-7.1-5c-0.5,0.1-1,0.3-1.5,0.5 c-3.4,2.7-7.7,11.1-13.1,25.2c-1.2,5-2.4,9.5-3.7,13.5c-0.8,2.3-1.5,4.4-2.2,6.3c1-0.1,2-0.5,3.1-1.2c1.1,4.1,2.7,7.4,5,10.1 c1.6,1.8,3.9,3.6,6.9,5.5C94.8,681.7,99.3,665.3,102.7,647.5z" fill="url(#c)"/><g><path d="M101.1,665.8c1.3-7.1,1.8-13.1,1.6-18.2c-3.5,17.8-7.9,34.1-13.4,49c-0.4,1-0.8,2-1.2,3 c0.1,2.6,1.3,2.8,3.5,0.8c0.3-0.7,0.5-1.4,0.8-2C96.6,685.8,99.5,674.9,101.1,665.8 M80.3,662.4c1-4.3,1.9-8.8,2.9-13.7 c1.7-9,2-15.4,0.8-19.2c0,7.6-2.6,20.2-7.9,37.8c-1.4,4.4-2.8,9.1-4.4,14.2c-1.4,4.1-2.8,8.3-4.3,12.7c0.6,2.5,2.6-0.7,6.2-9.5 c0.3-0.8,0.6-1.6,1-2.5c0.7-2,1.4-4.1,2.2-6.3C77.9,671.8,79.1,667.3,80.3,662.4 M45.4,696.5c-1.7,2.4-3.4,4.3-5.1,5.8 c0.2,1.7,0.3,3.4,0.4,5.2c0.1,3.1,0.1,6.4,0.1,9.8c0.4,1.1,0.8,2.2,1.3,3.3c1,2.1,2.3,5.9,4.1,11.5s2.6,10.6,2.3,15.1 c-0.2,3.2-0.5,5.9-0.8,8c1.9,3,3.1,1.7,3.5-3.9c1.1-15.3-1.3-27.1-7.1-35.3c1.2-7.1,1.7-12.7,1.6-16.8 C45.5,698.1,45.4,697.3,45.4,696.5z" fill="#EF9894"/></g><radialGradient xmlns:xlink="http://www.w3.org/1999/xlink" cx="-1578.716" cy="1363.968" gradientTransform="translate(1702.15 -723.27)" gradientUnits="userSpaceOnUse" id="d" r="55.301" xlink:actuate="onLoad" xlink:show="other" xlink:type="simple"><stop offset=".326" stop-color="#fdb8bb"/><stop offset="1" stop-color="#ffdccd"/></radialGradient><path d="M117.3,673c-0.1-9.1-1.9-14.8-5.4-17.1c-4.6-1.9-8.1,1.5-10.7,9.9c-1.7,9.2-4.6,20-8.7,32.6 c0.6,0.3,1.2,0.6,1.9,1c4.4,2.4,8.1,4.2,11.1,5.3c3.3,1.2,6.3,2,9.2,2.3c1.4-10.5,2.3-21.3,2.6-32.4 C117.3,674,117.3,673.5,117.3,673z" fill="url(#d)"/><radialGradient xmlns:xlink="http://www.w3.org/1999/xlink" cx="-1590.983" cy="1358.91" gradientTransform="translate(1677.65 -733.37)" gradientUnits="userSpaceOnUse" id="e" r="50.048" xlink:actuate="onLoad" xlink:show="other" xlink:type="simple"><stop offset=".326" stop-color="#fdb8bb"/><stop offset="1" stop-color="#ffdccd"/></radialGradient><path d="M83.7,627.9c-0.4-1.7-0.9-3.1-1.6-4.1c-6.3-5.1-12.4,0.7-18.2,17.5c-1.7,4.9-3.4,10.7-5,17.5 c0.1,0.7,0.1,1.4,0.2,2c1.4,7.4,4.5,13.6,9.4,18.6c1.1,1,2.1,1.7,3,2.1c1.6-5.1,3.1-9.8,4.4-14.2c5.3-17.6,7.9-30.2,7.9-37.8 C83.8,628.9,83.8,628.4,83.7,627.9z" fill="url(#e)"/><g><path d="M50.8,686.8c-1.6,4.4-3.3,8.5-5.3,12.3c0.1,4.2-0.4,9.8-1.6,16.8c5.8,8.3,8.2,20,7.1,35.3 c-0.4,5.6-1.6,6.9-3.5,3.9c0.4-2.1,0.6-4.8,0.8-8c0.3-4.5-0.5-9.5-2.3-15.1s-3.2-9.4-4.1-11.5c-0.5-1.2-0.9-2.3-1.3-3.3 c0.1-3.5,0-6.7-0.1-9.8c-2.2,3.2-4.5,6.1-7,8.7c-4.8,5-9.3,7.8-13.5,8.6c-2,0.4-3.9,0.3-5.8-0.2c-0.2,5.9-0.8,11.3-1.8,16.2 c-1.5,6.7-2.3,12.1-2.5,16.1c-0.3,4,0,7.9,0.8,11.7c0.5,2.3,1.1,4.5,1.8,6.7c1,2.9,2.2,5.6,3.7,8.2c0.1,0.2,0.1,0.3,0.2,0.5 c-0.2,1.3-0.5,2.6-0.9,4.1c-0.9,2.6-2.1,5.5-3.8,8.8c15.7,12.3,34.5,22.2,56.2,29.6l5-12.5c2.7-3.8,5.3-7.6,7.8-11.6 c4.5-7.1,8.5-14.3,12.2-21.8c1.2-2.4,2.3-4.8,3.4-7.3c4.9-11,8.9-22.5,12.1-34.5c2.7-10.3,4.8-20.9,6.2-31.8 c-2.9-0.3-6-1.1-9.2-2.3c-3-1.2-6.7-2.9-11.1-5.3c-0.7-0.4-1.3-0.7-1.9-1c-0.3,0.7-0.5,1.3-0.8,2c-2.3,2-3.4,1.7-3.5-0.8 c0.4-1,0.8-2,1.2-3c-3-1.9-5.3-3.7-6.9-5.5c-2.3-2.7-3.9-6-5-10.1c-1.1,0.8-2.1,1.2-3.1,1.2c-0.4,0.9-0.7,1.7-1,2.5 c-3.6,8.8-5.6,12-6.2,9.5c1.5-4.4,2.9-8.6,4.3-12.7c-0.9-0.5-1.9-1.2-3-2.1c-4.9-5.1-8-11.3-9.4-18.6c-0.1-0.7-0.2-1.3-0.2-2 c-1.3,5-2.5,10.5-3.7,16.5C53.9,679.5,52.4,683.4,50.8,686.8z" fill="#FFDCCD"/></g><radialGradient xmlns:xlink="http://www.w3.org/1999/xlink" cx="-1620.6" cy="1372.53" gradientTransform="translate(1618.5 -706.17)" gradientUnits="userSpaceOnUse" id="f" r="51.999" xlink:actuate="onLoad" xlink:show="other" xlink:type="simple"><stop offset=".326" stop-color="#fdb8bb"/><stop offset="1" stop-color="#ffdccd"/></radialGradient><path d="M25.7,668.9c-4.6-2.6-8.1-2.9-10.7-1.1c-0.1,0-0.2,0.1-0.3,0.2c-2.3,1.9-2.9,8.4-2,19.6 c0.9,11.7,1.5,21.8,1.8,30.4c0.1,2.3,0.1,4.5,0,6.7c1.9,0.5,3.8,0.5,5.8,0.2c4.3-0.8,8.8-3.7,13.5-8.6c2.5-2.7,4.8-5.6,7-8.7 c-0.1-1.8-0.2-3.5-0.4-5.2c-1-10.1-3.4-18.3-7.3-24.7C31,674.2,28.5,671.3,25.7,668.9z" fill="url(#f)"/></g></g></g><g><g><g><path d="M551.7,824.9c-1.5-1.3-3.1-1.8-5-1.7c-1.9,0.2-3.5,1-4.7,2.4c-1.3,1.5-1.8,3.1-1.7,5l1.9,24.1 c0.2,1.9,1,3.5,2.5,4.7c1.5,1.3,3.1,1.8,5,1.7c1.9-0.2,3.4-1,4.7-2.4c1.2-1.5,1.7-3.1,1.6-5l-1.9-24.1 C554,827.8,553.2,826.2,551.7,824.9z" fill="#557BC6" transform="translate(101.45)"/></g></g></g><g><g><g><path d="M461.1,204.2L335.4,194l-55.3,35.3H280l0.9,66.3c-0.2,1.2-0.3,2.3-0.4,3.5c-0.3-0.4-0.5-0.7-0.8-0.9 c-1.6-1.7-3.1-3-4.5-3.9c-3.4-1.9-6.6-2.9-9.7-2.9c-5.1,0-9.3,2.4-12.8,7.3c-0.4,0.5-0.8,1-1.1,1.5c-2.7,4.4-4.3,9.5-4.7,15.4 c0.7,6.7,5.4,15.5,14,26.6c9.5,12.3,18.7,18.4,27.8,18.2c0.2,0,0.3,0,0.5,0c0.1,0.2,0.1,0.3,0.2,0.5c1.2,6.5,2.9,12.5,5,18 c1.8,4.6,3.8,8.8,6.2,12.8c7.7,13,18.8,22.4,33.4,28.3c0.8,0.4,1.5,0.7,2.3,1c8.8,3.3,18.7,5.3,29.9,6.2l3.9,0.3 c1.2,0,2.4,0.1,3.6,0.1c0.5,0,1,0,1.5,0c6.2,0,12.2-0.6,17.9-1.9c6.9-1.1,13.3-2.7,19.2-4.7c0.3-0.2,0.5-0.3,0.8-0.4 c16.6-5.9,29-15.5,37.2-28.9c2.4-4,4.5-8.2,6.2-12.8c2.1-5.6,3.6-11.7,4.5-18.2c0.1-0.2,0.1-0.4,0.2-0.5c3.5,0.7,8.1,0,14-2 c5.8-2.1,11.5-7.3,17-15.7c5.5-8.4,8.1-17.3,7.9-26.9c-0.4-5.8-1.9-10.9-4.7-15.3c-3.8-5.9-8.4-8.8-14-8.8 c-0.7,0-1.4,0.1-2.1,0.2c-2.4,0.4-4.9,1.3-7.5,2.7c-0.4,0.3-0.8,0.6-1.2,0.9c-1,0.7-1.9,1.6-2.9,2.6c-0.3-0.1-0.6-0.1-1-0.1 L461.1,204.2z" fill="#FFDCCD" transform="translate(103)"/></g></g></g><g><g><g transform="translate(103)"><radialGradient xmlns:xlink="http://www.w3.org/1999/xlink" cx="-331.69" cy="1276.473" gradientTransform="matrix(1 0 0 1.1405 767.3 -1082.572)" gradientUnits="userSpaceOnUse" id="g" r="38.999" xlink:actuate="onLoad" xlink:show="other" xlink:type="simple"><stop offset=".326" stop-color="#fdb8bb"/><stop offset=".988" stop-color="#fdb8bb" stop-opacity="0"/></radialGradient><path d="M462.5,342.7c-0.8-0.9-1.7-1.8-2.6-2.6c-7-6.7-15.1-10-24.3-10c-10.5,0-19.3,4.2-26.6,12.6 c-7.5,8.5-11.3,18.7-11.3,30.6s3.8,22.1,11.3,30.6c4.8,5.5,10.3,9.2,16.5,11.1c10.5-5.8,18.8-13.5,24.8-23.3 c2.4-4,4.5-8.2,6.2-12.8c2.1-5.6,3.6-11.7,4.5-18.2c0.1-0.2,0.1-0.4,0.2-0.5c2.7,0.6,6.2,0.3,10.4-0.9 C469.8,353.2,466.8,347.6,462.5,342.7z" fill="url(#g)"/><radialGradient xmlns:xlink="http://www.w3.org/1999/xlink" cx="-312.288" cy="1314.273" gradientTransform="translate(806.05 -1017.52)" gradientUnits="userSpaceOnUse" id="h" r="26.487" xlink:actuate="onLoad" xlink:show="other" xlink:type="simple"><stop offset=".326" stop-color="#fdb8bb"/><stop offset=".988" stop-color="#fdb8bb" stop-opacity="0"/></radialGradient><path d="M471.7,294.3c-1.2,0.8-2.4,1.8-3.6,3.1v0.1c0.1,6.8,2.6,12.6,7.5,17.5c3,3,6.3,5.1,10,6.3 c2.6,0.9,5.3,1.3,8.3,1.3c2,0,3.9-0.2,5.8-0.6c0.2-0.7,0.3-1.4,0.3-2c0.1-0.7,0.2-1.4,0.2-2.1c-0.1-6.8-1.6-12.7-4.7-17.6 c-2.8-4.3-6-7-9.8-8.2c-0.3-0.1-0.7-0.2-1-0.3l-2.9-0.3c-0.1,0-0.1,0-0.2,0c0,0-0.1,0-0.2,0h-0.1l-1.3,0.1c-0.2,0-0.5,0-0.8,0.1 C476.9,291.9,474.3,292.8,471.7,294.3z" fill="url(#h)"/><radialGradient xmlns:xlink="http://www.w3.org/1999/xlink" cx="-374.375" cy="1276.473" gradientTransform="matrix(1 0 0 1.1405 682.05 -1082.572)" gradientUnits="userSpaceOnUse" id="i" r="38.999" xlink:actuate="onLoad" xlink:show="other" xlink:type="simple"><stop offset=".326" stop-color="#fdb8bb"/><stop offset=".988" stop-color="#fdb8bb" stop-opacity="0"/></radialGradient><path d="M294.4,378.9c1.8,4.6,3.8,8.8,6.2,12.8c5.4,9,12.4,16.3,21.1,21.9c4.7-2.1,9-5.4,12.8-9.9 c7.4-8.4,11-18.5,11-30.4s-3.7-22.1-11-30.6c-7.4-8.4-16.3-12.6-26.7-12.6c-10.5,0-19.4,4.2-26.8,12.6 c-3.2,3.7-5.8,7.8-7.7,12.2c5.2,3.8,10.4,5.7,15.5,5.6c0.2,0,0.3,0,0.5,0c0.1,0.2,0.1,0.3,0.2,0.5 C290.6,367.4,292.3,373.4,294.4,378.9z" fill="url(#i)"/><radialGradient xmlns:xlink="http://www.w3.org/1999/xlink" cx="-391.274" cy="1314.273" gradientTransform="translate(648.3 -1017.52)" gradientUnits="userSpaceOnUse" id="j" r="26.487" xlink:actuate="onLoad" xlink:show="other" xlink:type="simple"><stop offset=".326" stop-color="#fdb8bb"/><stop offset=".988" stop-color="#fdb8bb" stop-opacity="0"/></radialGradient><path d="M282.8,296.8c0-2.7-0.4-5.3-1.1-7.7c-0.3,1.8-0.5,3.6-0.8,5.5c-0.2,1.5-0.4,2.9-0.5,4.4 c0,0.1,0,0.2,0,0.2c-1.8-2.2-3.6-3.8-5.3-4.8c-1.6-0.9-3.3-1.7-4.9-2.2l-4.7-0.7h-0.1l-7,1.8c-2.6,1.4-4.9,3.8-7,7 c-3.1,4.9-4.7,10.8-4.7,17.6c-0.1,0.9,0,1.8,0.2,2.7c0.4,0.2,0.8,0.4,1.3,0.5c2.7,1,5.7,1.5,8.9,1.5c7.1,0,13.2-2.5,18.2-7.6 C280.3,309.9,282.8,303.9,282.8,296.8z" fill="url(#j)"/></g></g></g><g><g><g><g><path d="M376.9,374c-11,0.7-18.8-0.8-23.6-4.4c0.2,9.5,5,15.8,14.3,18.8c0.1,0.2,0.3,0.3,0.7,0.4 c13.7,1.8,22.5-2.3,26.6-12.3c0.6-2.1,1-4.4,1.3-6.9C392.1,373.1,385.7,374.6,376.9,374z" fill="#D1665E" transform="translate(103)"/></g><g><path d="M353.4,369.6c4.8,3.7,12.6,5.1,23.6,4.4c8.8,0.6,15.2-0.9,19.3-4.4c0.2-0.9,0.3-1.8,0.4-2.8l-43.2,0.7 C353.2,368.3,353.2,369,353.4,369.6z" fill="#FFF" transform="translate(103)"/></g><g><path d="M361.7,340.6c0.1,3.9,2.1,7.4,6.1,10.6c3.9,3.2,7,4.9,9.2,5.3c-1-1.3-2.2-2.9-3.6-5 c-3.3-4.9-5-8.9-5-12.1c0-1.9,1-6.2,2.9-13c1.4-4.3,2.3-7.7,2.9-10.3C365.8,328.7,361.6,336.9,361.7,340.6z" fill="#FA8E79" transform="translate(103)"/></g><g><path d="M337.2,302.2c-1.8-3.2-3.8-4.7-6.2-4.7c-2.6,0-4.8,1.6-6.6,4.7c-1.7,3.2-2.6,7-2.6,11.4 c0,4.6,0.9,8.4,2.6,11.4c1.9,3.2,4.1,4.7,6.6,4.7c2.4,0,4.4-1.6,6.2-4.7c1.9-3.1,2.8-6.9,2.8-11.4S339.1,305.3,337.2,302.2 M407.9,313.6c0,4.6,0.9,8.4,2.6,11.4c1.8,3.2,4,4.7,6.5,4.7s4.6-1.6,6.2-4.7c1.9-3.1,2.8-6.9,2.8-11.4s-0.9-8.3-2.8-11.4 c-1.7-3.2-3.7-4.7-6.2-4.7s-4.7,1.6-6.5,4.7C408.8,305.3,407.9,309.1,407.9,313.6 M409.9,264.4c-10,2.1-15.8,5.3-17.4,9.5 c-0.4,2.8,0.9,3.9,3.8,3.5c13-5.6,28-6,44.9-1.4c4-0.4,5-2.2,3-5.4C433.4,263.9,422,261.9,409.9,264.4 M304.8,273.2 c-0.1,1,1,2,3.2,3c16.5-4.7,30.7-4.2,42.8,1.4c2.9,0.5,3.9-0.9,3.1-4.1c-1.8-4.1-7.2-7.1-16.1-9.1c-11.6-2.6-22.5-0.3-32.6,6.8 C305,271.4,304.9,272.1,304.8,273.2z" fill="#18244C" transform="translate(103)"/></g><g><path d="M473.4,308c-3.3,2.7-5.7,5.4-7.3,8.3c-0.1,0.1-0.1,0.1-0.1,0.2c-1.6,3.4-2.3,5.8-2,7.3v0.1 c0,1.3,1.1,3.6,3.2,7.1c0,0.1,0,0.2,0.1,0.2c1.5,2,2.3,3.4,2.4,4.1c-0.1,0.9-0.5,1.7-1.4,2.5v0.1c-0.6,0.5-1.2,1-1.7,1.4 c-0.7,0.6-1.1,1.3-1.3,2.2c-0.2,0.9,0.1,1.7,0.6,2.4c0.5,0.8,1.2,1.2,2.1,1.4c0.9,0.2,1.7-0.1,2.5-0.6c0.8-0.6,1.5-1.2,2.3-1.8 c2.5-2.2,3.6-4.7,3.5-7.4c0.2-1.5-1-4.1-3.5-7.7c-1.4-2.3-2.1-3.7-2.3-4.4c0.1-0.7,0.6-2,1.4-3.8c1.2-2.2,3-4.2,5.5-6.2 c0.7-0.6,1.1-1.3,1.2-2.2c0.1-1-0.2-1.8-0.8-2.5c-0.6-0.7-1.3-1.1-2.2-1.2C474.9,307.2,474.1,307.5,473.4,308 M268.4,308.5 c-0.6,0.7-0.8,1.5-0.7,2.5c0,0.9,0.5,1.6,1.2,2.2c2.4,2,4.2,4,5.5,6.2c0.9,1.9,1.3,3.1,1.4,3.8c-0.1,0.1-0.1,0.1-0.1,0.2 c-0.2,0.7-0.9,2-2.2,4.1c-2.6,3.7-3.7,6.3-3.5,7.8c-0.1,2.8,1.1,5.2,3.5,7.4h0.1c0.8,0.7,1.5,1.3,2.3,1.9 c0.8,0.5,1.6,0.7,2.5,0.5s1.6-0.7,2.2-1.4c0.5-0.8,0.7-1.6,0.5-2.5s-0.7-1.5-1.4-2c-0.6-0.4-1.1-0.9-1.7-1.4 c0-0.1,0-0.1-0.1-0.1c-0.8-0.8-1.2-1.6-1.3-2.5c0.2-0.7,1-2.1,2.4-4.1l0.1-0.1c2.2-3.5,3.2-5.9,3.2-7.2c0.3-1.5-0.4-3.9-2-7.3 c0-0.1,0-0.2-0.1-0.2c-1.6-2.9-4-5.7-7.2-8.3c-0.8-0.6-1.6-0.8-2.4-0.7C269.7,307.4,269,307.8,268.4,308.5z" fill="#FFB1A2" transform="translate(103)"/></g></g></g></g><g><g><g><path d="M543.1,306.5c0-9.3-2.9-17.2-8.7-23.8c-5.8-6.6-12.7-9.9-20.9-9.9s-15.2,3.3-21,9.9 c-2.1,2.4-3.8,5-5.2,7.8c-11.5-5.2-23.3-5.2-35.2,0c-1.3-2.9-3.1-5.6-5.3-8.1c-5.8-6.6-12.7-9.9-20.9-9.9 c-8.2,0-15.2,3.3-21,9.9s-8.6,14.5-8.6,23.8c0,9.4,2.9,17.3,8.6,23.9c5.9,6.6,12.9,9.8,21,9.8c8.2,0,15.2-3.3,20.9-9.8 c5.8-6.6,8.7-14.6,8.7-23.9c0-3.1-0.3-6.1-1-8.9c10.1-5.1,20.3-5.1,30.4,0c-0.7,2.9-1.1,5.9-1.1,9.2c0,9.4,2.9,17.3,8.6,23.9 c5.9,6.6,12.9,9.8,21,9.8c8.2,0,15.2-3.3,20.9-9.8C540.2,323.8,543.1,315.8,543.1,306.5 M538.5,306.6c0,7.7-2.4,14.2-7.1,19.7 c-4.8,5.4-10.5,8.1-17.3,8.1c-6.7,0-12.5-2.7-17.3-8.1c-4.7-5.5-7.1-12-7.1-19.7s2.4-14.2,7.1-19.7c4.8-5.4,10.6-8.1,17.3-8.1 c6.8,0,12.5,2.7,17.3,8.1C536.1,292.4,538.5,298.9,538.5,306.6 M426.5,278.5c6.8,0,12.5,2.7,17.3,8.1c4.8,5.5,7.1,12,7.1,19.7 s-2.4,14.2-7.1,19.7c-4.8,5.4-10.5,8.1-17.3,8.1c-6.7,0-12.5-2.7-17.3-8.1c-4.7-5.5-7.1-12-7.1-19.7s2.4-14.2,7.1-19.7 C414,281.2,419.8,278.5,426.5,278.5z" fill="#3F68AB" transform="translate(6.5 10.15)"/></g></g></g><g><g><g><path d="M-104.6,445.7c0.1-3.1,0.1-6.4,0-9.9c22-6.2,35.6-19.7,40.7-40.4c32.9,30.4,76.3,40.5,130.3,30.1 c0,1.9,0,3.7,0.1,5.4c0.3,32.4,4.4,47.9,12.3,46.6c12.7-1.2,19.4-16,20.1-44.2c0.2-8.1-0.1-17.4-0.9-27.8 c-3.6-46.5-23.5-76.6-60-90.3c-46.3-18-86-7.2-118.9,32.4c-35.7-4.1-55.2,14.5-58.5,55.5c0,3.1,0.1,6.1,0.2,9 c1,38.7,8.1,60.9,21.2,66.6C-109.6,477.5-105.2,466.5-104.6,445.7z" fill="#1D2544" transform="translate(495.8 -168.8)"/></g></g></g><g><g><g><g><path d="M243.7,685.3C243.8,685.3,243.7,685.2,243.7,685.3c-0.2-0.2-0.3-0.2-0.5-0.2h-0.1c0,0,0,0-0.1,0 l-4.5,0.6c-0.1,0-0.2,0.1-0.4,0.2c-0.1,0.1-0.2,0.2-0.2,0.3c0,0.2,0,0.3,0,0.5c0.3,1.5,0.6,2.9,1,4.4 c2.7,11.6,6.3,24.2,10.8,37.9c0,0.2,0.1,0.4,0.2,0.7l0,0c4.4,8,11,10.7,20,8.1c0.8-0.2,1.4-0.7,1.7-1.4h0.1 c0.4-0.7,0.5-1.5,0.2-2.3l0,0c-0.2-0.8-0.7-1.4-1.4-1.8l0,0c-0.7-0.4-1.5-0.5-2.3-0.3c-5.8,1.7-10.1-0.1-12.9-5.2v0.2 c-4.9-15-8.7-28.7-11.4-41.1C243.9,685.5,243.9,685.4,243.7,685.3 M330,674.1c-0.1-0.1-0.2-0.1-0.4-0.1l-4.4,0.5 c-0.1,0-0.2,0-0.4,0.1c-0.1,0.1-0.2,0.2-0.3,0.3l0,0c0,0.1-0.1,0.3-0.1,0.4c0.5,12.8,0.2,27.2-0.9,43c-0.1,1.2-0.2,2.5-0.2,3.7 c-1.2,3.2-4.4,5.7-9.7,7.3l0,0c-0.8,0.2-1.4,0.7-1.7,1.5v-0.1c-0.4,0.7-0.5,1.5-0.2,2.3c0.2,0.8,0.7,1.4,1.4,1.8h0.1 c0.7,0.3,1.4,0.4,2.2,0.2h0.1c7.9-2.4,12.4-6.3,13.7-11.6c0.1-0.2,0.1-0.4,0.2-0.7l0,0c0.1-1.3,0.2-2.7,0.3-4.1 c1.2-16.2,1.5-30.9,0.9-44c0-0.1,0-0.2-0.1-0.4C330.3,674.2,330.2,674.2,330,674.1z" fill="#7F91BF" transform="translate(103)"/></g><g><path d="M334.5,440.4c-0.2-0.1-0.4-0.1-0.6,0c-42.6,17.9-64.1,68.6-64.8,152.3c-19.9,4.2-31.5,17.7-34.8,40.4 c-2.1,13.9-0.9,31.5,3.5,52.7c0,0.1,0.1,0.2,0.2,0.3c0.1-0.1,0.1-0.2,0.2-0.3c0.1-0.1,0.3-0.1,0.4-0.2l4.5-0.6h0.1h0.1 c0.2,0,0.3,0,0.5,0.2c0.1,0,0.1,0.1,0.1,0.1c0.1-0.1,0.1-0.2,0.1-0.4c-1-4.7-1.9-9.3-2.6-13.7c-2.2-14.5-2.5-26.9-1.1-37.3 c3-20.5,13.7-32.4,32.2-35.7c19.8-1.6,34,7.3,42.5,26.5c3.9,8.9,6.7,19.9,8.3,33.2c0.5,4.2,0.9,8.7,1.1,13.4 c0.1,1.1,0.2,2.2,0.2,3.3c0,0.2,0,0.3,0.1,0.4l0,0c0.1-0.1,0.2-0.2,0.3-0.3c0.1,0,0.3-0.1,0.4-0.1l4.4-0.5c0.2,0,0.3,0,0.4,0.1 c0.2,0.1,0.3,0.1,0.4,0.2c0.1-0.1,0.1-0.2,0.1-0.4c0-0.9-0.1-1.8-0.2-2.7c-0.4-6-0.9-11.6-1.6-16.9c-1.7-12.7-4.5-23.4-8.4-32.1 c-9.2-20.8-24.3-30.9-45.2-30.2c0.7-77.1,19.7-125.1,57-144c0.2-0.1,0.3-0.2,0.3-0.4c1-2.3,1.9-4.4,2.6-6.3 c0.1-0.2,0-0.4-0.1-0.6C334.8,440.6,334.7,440.5,334.5,440.4 M417.1,435.3l1.1,5.4c0,0.1,0.1,0.2,0.2,0.3 c0.1,0.1,0.2,0.2,0.3,0.2c59.7,25.5,94.9,78.5,105.9,159.1c0.1,0.8,0.5,1.5,1.1,2l0,0c0.7,0.5,1.4,0.7,2.2,0.6l0,0 c0.8-0.1,1.5-0.5,2-1.2v-0.1c0.5-0.6,0.7-1.3,0.6-2.1v-0.1c-11.4-84.3-48.8-139.3-112.3-165c-0.1-0.1-0.3-0.1-0.5,0 s-0.3,0.2-0.4,0.3C417.1,435,417.1,435.2,417.1,435.3z" fill="#2C488B" transform="translate(103)"/></g></g></g></g><g><g><g><path d="M273.2,725.8c-2.5,0-4.6,0.9-6.3,2.6c-1.7,1.7-2.6,3.8-2.6,6.3s0.9,4.6,2.6,6.3s3.8,2.6,6.3,2.6 s4.6-0.9,6.3-2.6c1.5-1.5,2.4-3.3,2.6-5.3c0,0,0-0.1,0-0.2c0-0.3,0-0.6,0-0.8c0-2.5-0.9-4.6-2.6-6.3 C277.7,726.7,275.6,725.8,273.2,725.8 M317.4,731c0-2.5-0.9-4.6-2.6-6.3s-3.8-2.6-6.3-2.6s-4.6,0.9-6.3,2.6 c-1.7,1.7-2.6,3.8-2.6,6.3c0,1.1,0.2,2.1,0.5,3.1V734c0.4,1.2,1.1,2.3,2.1,3.3c1.7,1.7,3.8,2.6,6.3,2.6s4.6-0.9,6.3-2.6 c1.4-1.4,2.2-3,2.6-5C317.4,731.9,317.4,731.5,317.4,731z" fill="#034099" transform="translate(103)"/></g></g></g><g><g><g><g><path d="M395.5,592.9c-3.7,1.2-7.1,3.4-10.1,6.4c-5.1,5.1-7.6,11.3-7.6,18.5s2.5,13.4,7.6,18.5 s11.3,7.7,18.5,7.7c0.9,0,1.8,0,2.7-0.2c5.9-0.5,11.1-2.9,15.5-7.2c0.1-0.1,0.2-0.2,0.3-0.3c5.1-5.1,7.7-11.3,7.7-18.5 s-2.6-13.4-7.7-18.5c-0.1-0.1-0.2-0.2-0.3-0.3c-2.9-2.9-6.2-4.9-9.9-6.1c-2.6-0.9-5.3-1.3-8.3-1.3 C400.9,591.6,398.1,592.1,395.5,592.9 M388.8,617.1c0-4.4,1.6-8.2,4.7-11.3s6.9-4.7,11.3-4.7s8.2,1.6,11.3,4.7 c3.2,3.1,4.7,6.9,4.7,11.3c0,4.4-1.6,8.2-4.7,11.3c-2.7,2.7-5.9,4.2-9.5,4.6c-0.6,0.1-1.1,0.1-1.7,0.1c-4.4,0-8.2-1.6-11.3-4.7 C390.4,625.3,388.8,621.5,388.8,617.1z" fill="#81A4E6" transform="translate(227.15)"/></g><g><path d="M393.5,605.8c-3.2,3.1-4.7,6.9-4.7,11.3c0,4.4,1.6,8.2,4.7,11.3s6.9,4.7,11.3,4.7c0.6,0,1.2,0,1.7-0.1 c3.7-0.4,6.8-1.9,9.5-4.6c3.2-3.2,4.7-6.9,4.7-11.3c0-4.4-1.6-8.2-4.7-11.3s-6.9-4.7-11.3-4.7 C400.4,601.2,396.6,602.7,393.5,605.8z" fill="#5681D8" transform="translate(227.15)"/></g></g></g></g><g><g><path d="M-226.7,902.9h800.9" fill="none" stroke="#335DBF" stroke-linecap="round" stroke-linejoin="round" stroke-width="7" transform="translate(336.65 36.6)"/></g></g><g><g><g><g><path d="M974.5,279.7h-25.4l-27.7,24.4c1.3,1.5,2.7,2.9,4.1,4.3c7.4,6.9,16.2,12.1,26.4,15.7 c19.4,6.7,38.4,5.6,56.9-3.3c15.8-7.6,27.4-19,34.7-34.2c1.3-2.7,2.4-5.4,3.4-8.3c0.3-0.8,0.5-1.6,0.8-2.3 c1.7-5.5,2.8-11,3.3-16.4c0.3-2.6,0.3-5.1,0.2-7.7c-0.3-10.3-2.8-20.5-7.6-30.6c-2.9-5.9-6.3-11.1-10.1-15.8l-33.1,29h7.7 c6.2,0,11.5,2.2,15.9,6.6c4.4,4.4,6.6,9.7,6.6,15.9v0.1c0,6.2-2.2,11.5-6.6,15.9s-9.7,6.6-15.9,6.6L974.5,279.7L974.5,279.7z" fill="#396CCD" transform="translate(-152.2 82.05)"/></g><g><path d="M974.5,234.6v45.1h33.7c6.2,0,11.5-2.2,15.9-6.6c4.4-4.4,6.6-9.7,6.6-15.9v-0.1c0-6.2-2.2-11.5-6.6-15.9 s-9.7-6.6-15.9-6.6h-7.7H974.5z" fill="#BAD3FE" transform="translate(-152.2 82.05)"/></g><g><path d="M946.8,234.6c-6.2,0-11.5,2.2-15.9,6.6c-4.4,4.4-6.6,9.7-6.6,15.9v0.1c0,6.2,2.2,11.5,6.6,15.9 c4.4,4.4,9.7,6.6,15.9,6.6h2.4h25.4v-45.1H946.8z" fill="#FFF" transform="translate(-152.2 82.05)"/></g><g><path d="M1001.2,183.4c-4.1-1.4-8.1-2.5-12-3.2c-8.7-1.6-17.3-1.6-25.7,0c-6.5,1.2-12.9,3.3-19.2,6.4 c-1.9,0.9-3.7,1.9-5.5,2.9c-12.7,7.3-22.2,17.4-28.5,30.2c-1.4,2.9-2.7,6-4,9.2c-1.2,3.3-2.1,6.5-2.7,9.8 c-1.7,7.7-2.1,15.2-1.3,22.6c0.5,4.1,1.3,8.2,2.5,12.2L881,298.3l35.6-0.2l0.2,0.1c1.5,2.1,3,4,4.7,5.9l27.7-24.4h-2.4 c-6.2,0-11.5-2.2-15.9-6.6s-6.6-9.7-6.6-15.9v-0.1c0-6.2,2.2-11.5,6.6-15.9c4.4-4.4,9.7-6.6,15.9-6.6h27.8h26l33.1-29 c-0.3-0.3-0.5-0.6-0.7-0.8c-3.7-4.4-7.9-8.2-12.6-11.6C1014.6,189.1,1008.3,185.9,1001.2,183.4z" fill="#5A8CF2" transform="translate(-152.2 82.05)"/></g></g></g></g><g><g><g><g><path d="M652.2,94.8c-1.6-3.4-3.5-6.6-5.7-9.8L521.2,190l-5.9,16.2l32.6-14.6h0.2c4,2.3,8,4.2,12.2,5.7 c9.5,3.4,19.7,4.6,30.5,3.6c20.5-1.7,37.3-10.4,50.6-26c13.4-15.7,19.2-33.8,17.5-54.3c-0.6-6.6-1.8-12.8-3.8-18.7 C654.3,99.5,653.3,97.1,652.2,94.8z" fill="#396CCD" transform="translate(103)"/></g><g><path d="M600.1,53.7c-6.8-1.4-14-1.8-21.5-1.1c-20.5,1.7-37.4,10.3-50.7,26c-11.1,13.1-16.9,27.8-17.6,44.1 c-0.1,3.3-0.1,6.6,0.2,10.1c0.3,3.5,0.7,6.8,1.4,10c1.6,7.7,4.3,14.8,8.1,21.2c2.1,3.6,4.4,6.9,7.1,10.1l-5.9,16.1l125.3-105 c-3.7-5.4-8.3-10.4-13.7-15.1c-5.3-4.5-10.8-8.1-16.6-10.9C611.1,56.7,605.7,54.9,600.1,53.7z" fill="#5A8CF2" transform="translate(103)"/></g></g></g></g><g><g><g><g><path d="M631.8,88.5c0-4-2-6-6-6h-84.2c-4,0-6,2-6,6v75.1c0,4,2,6,6,6h84.2c4,0,6-2,6-6V88.5 M574,101.4 c0-4,2-6,6-6h10.5c4,0,6,2,6,6v14.5h12.4c4,0,6,2,6,6v10.5c0,4-2,6-6,6h-12.4v11.3c0,4-2,6-6,6H580c-4,0-6-2-6-6v-11.3h-13.4 c-4,0-6-2-6-6v-10.5c0-4,2-6,6-6H574V101.4z" fill="#FFF" transform="translate(103)"/></g><g><path d="M580,95.4c-4,0-6,2-6,6v14.5h-13.4c-4,0-6,2-6,6v10.5c0,4,2,6,6,6H574v11.3c0,4,2,6,6,6h10.5 c4,0,6-2,6-6v-11.3h12.4c4,0,6-2,6-6v-10.5c0-4-2-6-6-6h-12.4v-14.5c0-4-2-6-6-6C590.5,95.4,580,95.4,580,95.4z" fill="#BAD3FE" transform="translate(103)"/></g></g></g></g><g><g><g><g><path d="M44.1,488.3l11-9.5l-4.4-16.2L44.1,488.3 M107.1,433.4c-3.2-4.3-7-8.3-11.4-12 c-15.6-13.3-33.7-19.2-54.2-17.6S4.1,414-9.3,429.6c-4.3,5-7.8,10.3-10.6,15.9c-1.1,2.3-2.1,4.6-3,7c-3.5,9.7-4.8,20.2-4,31.4 c0.5,6.9,1.9,13.4,4,19.4c1.9,5.4,4.3,10.4,7.4,15.2c3,4.5,6.5,8.7,10.5,12.5l37.1-32.3l-13.3-16h-30.5c-0.9,0-1.6-0.3-2.3-1 c-0.6-0.6-0.9-1.3-0.9-2.2c0-0.9,0.3-1.6,0.9-2.3c0.6-0.6,1.4-0.9,2.3-0.9h32c0.5,0,0.9,0.1,1.4,0.3c0.4,0.2,0.8,0.5,1.1,0.8 l13.5,16.2l11.4-44.4c0.2-0.7,0.6-1.2,1.1-1.7c0.6-0.4,1.2-0.7,2-0.7c0.7,0,1.3,0.2,1.9,0.6c0.6,0.5,1,1,1.1,1.7l6.6,24.8 L107.1,433.4z" fill="#5A8CF2" transform="translate(103)"/></g><g><path d="M79.6,467.8c0.8,0.3,1.3,0.7,1.7,1.4l6.3,10.7l13.7-0.1c0.9,0,1.6,0.3,2.3,0.9c0.6,0.6,1,1.3,1,2.2 c0,0.9-0.3,1.6-0.9,2.3c-0.6,0.6-1.4,1-2.3,1l-15.5,0.1c-0.5,0-1.1-0.1-1.6-0.5c-0.5-0.3-0.8-0.6-1.1-1.1l-4.2-7.1L67.3,503 c-0.3,0.6-0.7,1.1-1.3,1.4c-0.6,0.4-1.2,0.5-1.9,0.5c-0.6-0.1-1.2-0.3-1.7-0.8c-0.5-0.4-0.9-0.9-1.1-1.6L55,478.8l-11,9.5 l-3.4,13.1c-0.2,0.8-0.6,1.4-1.3,1.9c-0.7,0.4-1.4,0.6-2.2,0.5s-1.5-0.4-2-1.1l-3.2-3.9L-5,531c1.2,1.2,2.5,2.4,3.9,3.6 c15.6,13.4,33.7,19.2,54.2,17.6c17.1-1.3,31.6-7.5,43.7-18.5c2.5-2.2,4.8-4.6,7.1-7.2c2.2-2.6,4.3-5.3,6.1-8 c4.3-6.5,7.4-13.5,9.4-20.8c1-3.9,1.7-7.9,2.1-12.1l31.3-14.4l-33.4-12.9h-0.1c-1.1-4.4-2.7-8.7-4.7-12.8 c-2-4.3-4.5-8.3-7.4-12.2L60.4,474l4.9,18.3l10.6-23c0.3-0.7,0.9-1.2,1.6-1.6C78.1,467.6,78.8,467.6,79.6,467.8z" fill="#396CCD" transform="translate(103)"/></g><g><path d="M81.3,469.3c-0.4-0.7-1-1.2-1.7-1.4c-0.8-0.2-1.5-0.2-2.3,0.1c-0.7,0.3-1.3,0.9-1.6,1.6l-10.6,23 l-4.9-18.3l-6.6-24.8c-0.2-0.7-0.5-1.3-1.1-1.7c-0.5-0.4-1.2-0.6-1.9-0.6s-1.4,0.2-2,0.7c-0.6,0.4-0.9,1-1.1,1.7L36.1,494 l-13.5-16.2c-0.3-0.4-0.6-0.6-1.1-0.8c-0.4-0.2-0.9-0.3-1.4-0.3h-32c-0.9,0-1.6,0.3-2.3,0.9c-0.6,0.6-0.9,1.4-0.9,2.3 s0.3,1.6,0.9,2.2c0.6,0.6,1.4,1,2.3,1h30.5l13.3,16l3.2,3.9c0.5,0.6,1.2,1,2,1.1s1.5,0,2.2-0.5c0.7-0.4,1.1-1.1,1.3-1.9 l3.4-13.1l6.6-25.7l4.4,16.2l6.3,23.8c0.2,0.6,0.5,1.2,1.1,1.6c0.5,0.4,1.1,0.7,1.7,0.8c0.7,0.1,1.3-0.1,1.9-0.5 c0.6-0.3,1-0.8,1.3-1.4L79,477.6l4.2,7.1c0.3,0.5,0.7,0.9,1.1,1.1c0.5,0.3,1,0.5,1.6,0.5l15.5-0.1c0.9,0,1.6-0.3,2.3-1 c0.6-0.6,0.9-1.4,0.9-2.3c0-0.8-0.3-1.6-1-2.2c-0.6-0.6-1.4-0.9-2.3-0.9L87.6,480L81.3,469.3z" fill="#FFF" transform="translate(103)"/></g></g></g></g><g><g><g><g><path d="M-55.9,185.4l-15.5,13.7v68c0,4-2,6-6,6H-150c-1.6,0-2.9-0.3-3.8-0.9l-12.9,11.4 c14,12.7,30.5,19.1,49.7,19.1c16,0,30.2-4.4,42.5-13.2l31.2,14.4l-11.9-33.8c8.5-12.2,12.8-26.2,12.8-41.9 C-42.5,212.1-46.9,197.8-55.9,185.4z" fill="#396CCD" transform="translate(322.8 -15.85)"/></g><g><path d="M-136.3,187.4c0,4,2,6,6,6h33.5c4,0,6-2,6-6v-5v-2c0-4-2-6-6-6h-3.4h-26.6h-3.5c-4,0-6,2-6,6v2V187.4 M-134.5,250.1c0-1.1-0.4-2-1.1-2.7c-0.8-0.8-1.7-1.1-2.7-1.1h-0.8c-1.1,0-2,0.4-2.7,1.1c-0.8,0.8-1.1,1.7-1.1,2.7 c0,1.1,0.4,2,1.1,2.7s1.7,1.1,2.7,1.1h0.8c1.1,0,2-0.4,2.7-1.1C-134.9,252-134.5,251.1-134.5,250.1 M-84.5,247.8 c-0.7-0.7-1.5-1-2.4-1h-39.3c-1,0-1.8,0.3-2.5,1s-1,1.5-1,2.5c0,0.2,0,0.4,0.1,0.5c0.1,0.8,0.4,1.4,0.9,1.9 c0.7,0.7,1.5,1.1,2.5,1.1h39.3c1,0,1.8-0.4,2.4-1.1c0.7-0.7,1.1-1.5,1.1-2.4C-83.4,249.3-83.8,248.5-84.5,247.8 M-128.7,233.1 c0.7,0.7,1.5,1.1,2.5,1.1h39.3c1,0,1.8-0.4,2.4-1.1c0.7-0.7,1.1-1.5,1.1-2.4s-0.4-1.8-1.1-2.5s-1.5-1-2.4-1h-39.3 c-1,0-1.8,0.3-2.5,1s-1,1.5-1,2.5C-129.7,231.6-129.4,232.3-128.7,233.1L-128.7,233.1 M-134.5,230.5c0-1.1-0.4-2-1.1-2.7 c-0.5-0.5-1.1-0.8-1.7-1c-0.4-0.1-0.7-0.2-1.1-0.2h-0.8c-1.1,0-2,0.4-2.7,1.1s-1.1,1.7-1.1,2.7s0.4,2,1.1,2.7 c0.8,0.8,1.7,1.1,2.7,1.1h0.8c0.1,0,0.2,0,0.4,0c0.9-0.1,1.7-0.5,2.3-1.1C-134.9,232.5-134.5,231.6-134.5,230.5 M-136.6,213.6 c0.2-0.1,0.3-0.2,0.5-0.3c0.2-0.2,0.4-0.3,0.5-0.5c0.8-0.8,1.1-1.7,1.1-2.7c0-1.1-0.4-2-1.1-2.7c-0.8-0.8-1.7-1.1-2.7-1.1h-0.8 c-1.1,0-2,0.4-2.7,1.1s-1.1,1.7-1.1,2.7c0,1.1,0.4,2,1.1,2.7c0.8,0.8,1.7,1.1,2.7,1.1h0.8C-137.8,214-137.2,213.9-136.6,213.6 M-128.7,212.7c0.7,0.7,1.5,1.1,2.5,1.1h39.3c1,0,1.8-0.4,2.4-1.1c0.7-0.7,1.1-1.5,1.1-2.4c0-0.2,0-0.3,0-0.5 c-0.1-0.8-0.5-1.4-1.1-2c-0.7-0.7-1.5-1-2.4-1h-39.3c-1,0-1.8,0.3-2.5,1s-1,1.5-1,2.5S-129.3,212.1-128.7,212.7z" fill="#BAD3FE" transform="translate(322.8 -15.85)"/></g><g><path d="M-130.3,193.4c-4,0-6-2-6-6v-5h-13.6c-4,0-6,2-6,6v78.7c0,2.4,0.7,4.1,2.2,5.1c1,0.6,2.2,0.9,3.8,0.9 h72.6c4,0,6-2,6-6v-68v-10.7c0-4-2-6-6-6h-13.5v5c0,4-2,6-6,6L-130.3,193.4 M-126.2,213.8c-1,0-1.8-0.4-2.5-1.1 c-0.7-0.7-1-1.5-1-2.4c0-1,0.3-1.8,1-2.5s1.5-1,2.5-1h39.3c1,0,1.8,0.3,2.4,1c0.6,0.6,1,1.3,1.1,2c0,0.2,0,0.3,0,0.5 c0,1-0.4,1.8-1.1,2.4c-0.7,0.7-1.5,1.1-2.4,1.1H-126.2 M-136.2,213.3c-0.2,0.1-0.3,0.2-0.5,0.3c-0.6,0.3-1.1,0.4-1.7,0.4h-0.8 c-1.1,0-2-0.4-2.7-1.1c-0.8-0.8-1.1-1.7-1.1-2.7c0-1.1,0.4-2,1.1-2.7s1.7-1.1,2.7-1.1h0.8c1.1,0,2,0.4,2.7,1.1 c0.8,0.8,1.1,1.7,1.1,2.7c0,1.1-0.4,2-1.1,2.7C-135.8,213-136,213.2-136.2,213.3 M-135.7,227.8c0.8,0.8,1.1,1.7,1.1,2.7 c0,1.1-0.4,2-1.1,2.7c-0.7,0.7-1.4,1-2.3,1.1c-0.2,0-0.3,0-0.4,0h-0.8c-1.1,0-2-0.4-2.7-1.1c-0.8-0.8-1.1-1.7-1.1-2.7 s0.4-2,1.1-2.7s1.7-1.1,2.7-1.1h0.8c0.4,0,0.7,0.1,1.1,0.2C-136.7,227-136.2,227.3-135.7,227.8 M-126.2,234.1 c-1,0-1.8-0.4-2.5-1.1l-0.1-0.1c-0.6-0.7-0.9-1.4-0.9-2.3c0-1,0.3-1.8,1-2.5s1.5-1,2.5-1h39.3c1,0,1.8,0.3,2.4,1 c0.7,0.7,1.1,1.5,1.1,2.5s-0.4,1.8-1.1,2.4c-0.7,0.7-1.5,1.1-2.4,1.1L-126.2,234.1 M-86.9,246.8c1,0,1.8,0.3,2.4,1 c0.7,0.7,1.1,1.5,1.1,2.5s-0.4,1.8-1.1,2.4c-0.7,0.7-1.5,1.1-2.4,1.1h-39.3c-1,0-1.8-0.4-2.5-1.1c-0.5-0.5-0.8-1.1-0.9-1.9 c-0.1-0.2-0.1-0.3-0.1-0.5c0-1,0.3-1.8,1-2.5s1.5-1,2.5-1H-86.9 M-135.7,247.4c0.8,0.8,1.1,1.7,1.1,2.7c0,1.1-0.4,2-1.1,2.7 c-0.8,0.8-1.7,1.1-2.7,1.1h-0.8c-1.1,0-2-0.4-2.7-1.1s-1.1-1.7-1.1-2.7c0-1.1,0.4-2,1.1-2.7c0.8-0.8,1.7-1.1,2.7-1.1h0.8 C-137.3,246.3-136.4,246.6-135.7,247.4 M-127.1,173.2c0,0.5,0.1,0.9,0.2,1.3h26.6c0.1-0.4,0.2-0.8,0.2-1.3v-0.1 c0-1.3-0.5-2.3-1.4-3.2s-2-1.4-3.2-1.4h-17.9c-1.3,0-2.3,0.5-3.2,1.4C-126.6,170.8-127.1,171.9-127.1,173.2L-127.1,173.2z" fill="#F7FFF1" transform="translate(322.8 -15.85)"/></g><g><path d="M-126.9,174.5c-0.2-0.4-0.2-0.8-0.2-1.3v-0.1c0-1.3,0.5-2.3,1.4-3.2s2-1.4,3.2-1.4h17.9 c1.3,0,2.3,0.5,3.2,1.4c0.9,0.9,1.4,2,1.4,3.2v0.1c0,0.5-0.1,0.9-0.2,1.3h3.4c4,0,6,2,6,6v2h13.5c4,0,6,2,6,6v10.7l15.5-13.7 c-2.5-3.4-5.3-6.7-8.4-9.8c-14.6-14.6-32.1-21.8-52.7-21.8c-20.5,0-38,7.3-52.6,21.8c-14.6,14.6-21.8,32.1-21.8,52.6 c0,20.6,7.3,38.1,21.8,52.7c1,1,1.9,1.9,2.9,2.8l12.9-11.4c-1.5-1-2.2-2.7-2.2-5.1v-78.7c0-4,2-6,6-6h13.6v-2c0-4,2-6,6-6 L-126.9,174.5L-126.9,174.5z" fill="#5A8CF2" transform="translate(322.8 -15.85)"/></g></g></g></g></g></svg>