<svg width="28" height="26" viewBox="0 0 28 26" fill="none" xmlns="http://www.w3.org/2000/svg">
<path d="M13.0334 25.9999C9.81151 25.9999 7.1904 23.518 7.1904 20.4672V19.5331C7.1904 19.2891 7.39915 19.0912 7.65706 19.0912C7.91497 19.0912 8.12373 19.2891 8.12373 19.5331V20.4672C8.12373 23.0307 10.3261 25.1161 13.0334 25.1161C15.7407 25.1161 17.943 23.0307 17.943 20.4672V14.5203C17.943 12.5586 19.6286 10.9625 21.7003 10.9625C23.772 10.9625 25.4573 12.5586 25.4573 14.5203V16.0734C25.4573 16.3173 25.2482 16.5153 24.9906 16.5153C24.733 16.5153 24.524 16.3173 24.524 16.0734V14.5203C24.524 13.0459 23.2574 11.8463 21.7003 11.8463C20.1432 11.8463 18.8764 13.0459 18.8764 14.5203V20.4672C18.8764 23.518 16.2552 25.9999 13.0334 25.9999Z" fill="white"/>
<path d="M13.906 11.8464C13.906 11.8464 13.9051 11.8464 13.9045 11.8464C13.6469 11.8458 13.4384 11.6472 13.4394 11.403L13.4689 2.55852C13.4689 1.63586 12.675 0.883773 11.699 0.883773C11.4411 0.883773 11.2324 0.686102 11.2324 0.441886C11.2324 0.19767 11.4411 0 11.699 0C13.1899 0 14.4023 1.14832 14.4023 2.55999L14.3727 11.406C14.3718 11.6496 14.163 11.8464 13.906 11.8464Z" fill="white"/>
<path d="M1.4084 11.8464C1.15143 11.8464 0.94236 11.6496 0.941737 11.406L0.912182 2.56147C0.912182 1.14861 2.12489 0 3.61543 0C3.87334 0 4.08209 0.19767 4.08209 0.441886C4.08209 0.686102 3.87334 0.883773 3.61543 0.883773C2.63947 0.883773 1.84552 1.63586 1.84552 2.55999L1.87507 11.403C1.87569 11.6472 1.66756 11.8455 1.40996 11.8464C1.40934 11.8464 1.4084 11.8464 1.4084 11.8464Z" fill="white"/>
<path d="M9.09564 19.9749H6.21849C5.96058 19.9749 5.75182 19.777 5.75182 19.5331L5.75182 18.4283C2.3968 17.6144 0 14.7168 0 11.4044C0 11.1602 0.208756 10.9625 0.466667 10.9625H2.49729C2.7552 10.9625 2.96396 11.1602 2.96396 11.4044C2.96396 13.8548 5.06924 15.8486 7.65707 15.8486C10.2449 15.8486 12.3505 13.8548 12.3505 11.4044C12.3505 11.1602 12.5592 10.9625 12.8172 10.9625H14.8475C15.1051 10.9625 15.3141 11.1602 15.3141 11.4044C15.3141 14.7168 12.9173 17.6144 9.56231 18.4283V19.5331C9.56231 19.777 9.35355 19.9749 9.09564 19.9749ZM6.68547 19.0912H8.62929V18.0766C8.62929 17.8666 8.78547 17.6854 9.00324 17.6436C11.9663 17.0735 14.1568 14.6735 14.3652 11.8463H13.2652C13.0268 14.578 10.6027 16.7324 7.65707 16.7324C4.71147 16.7324 2.28791 14.578 2.0496 11.8463H0.949511C1.15796 14.6735 3.34849 17.0735 6.31151 17.6436C6.52898 17.6854 6.68547 17.8666 6.68547 18.0766L6.68547 19.0912Z" fill="white"/>
<path d="M24.9906 21.3309C23.3315 21.3309 21.9816 20.0526 21.9816 18.4813C21.9816 16.9099 23.3315 15.6317 24.9906 15.6317C26.6501 15.6317 28 16.9099 28 18.4813C28 20.0526 26.6501 21.3309 24.9906 21.3309ZM24.9906 16.5158C23.846 16.5158 22.9149 17.3975 22.9149 18.4816C22.9149 19.5657 23.846 20.4474 24.9906 20.4474C26.1355 20.4474 27.0667 19.5657 27.0667 18.4816C27.0667 17.3975 26.1355 16.5158 24.9906 16.5158Z" fill="white"/>
<path d="M24.9906 19.4587C25.5606 19.4587 26.0226 19.0212 26.0226 18.4816C26.0226 17.9419 25.5606 17.5044 24.9906 17.5044C24.4207 17.5044 23.9587 17.9419 23.9587 18.4816C23.9587 19.0212 24.4207 19.4587 24.9906 19.4587Z" fill="white"/>
</svg>
