<svg xmlns="http://www.w3.org/2000/svg" xmlns:xlink="http://www.w3.org/1999/xlink" height="902.5" preserveAspectRatio="xMidYMid meet" version="1.0" viewBox="-0.5 -3.3 394.4 902.5" width="394.4" zoomAndPan="magnify"><g><g><g><g transform="translate(-1374.5 -891.8)"><g><path d="M1717.4,1711.1c-0.4,1.8-0.8,3.6-1.3,5.5c-1.7,18.8,6.4,19.3,24.1,1.5l7.4-8.5c2-3,3.9-6.2,5.6-9.8 c-6.9,4.3-14.2,7.3-22.1,9.2C1726.7,1710,1722.2,1710.7,1717.4,1711.1 M1575.7,1741.5c-0.5,0.4-0.9,0.8-1.3,1.3 c-4.1,4.3-3,7.9,3.2,10.6c1.8,0.4,3.7,0.7,5.6,0.8c12.6,0.7,26.8-4.8,42.7-16.4C1609.1,1742.6,1592.4,1743.9,1575.7,1741.5z" fill="#FFE4D8"/></g><g><path d="M1582.1,1358.4c-6.2,1-12.8,1-19.7,0l-19.8,153c-6.3-1.9-12.5-4.2-18.6-6.9l41.7,235.1 c2.7,0.6,5.5,1.1,8.2,1.5c0.6,0.1,1.2,0.2,1.8,0.3c16.7,2.4,33.4,1.2,50.1-3.7c-15.9,11.6-30.1,17.1-42.7,16.4 c-1.9-0.1-3.8-0.4-5.6-0.8c-6.2-2.7-7.3-6.3-3.2-10.6c-2.4,2.1-4.9,4.3-7.6,6.4c-0.6,0.5-1.2,0.9-1.8,1.4 c-8.8,6.9-19.1,13.7-30.8,20.2c-0.2,0.1-0.5,0.3-0.7,0.4c-3.8,2.3-5,6.1-3.6,11.3c6.2,7,20.1,8.6,41.7,4.6 c19.3-5.4,36.2-13.2,50.7-23.4c3.5-1.7,5-5.9,4.6-12.3l-0.9-13.7c3.4-1,6.8-2.1,10.2-3.4c-5.7-54.2-12.3-103.7-19.8-148.4 c-2.7-16-5.6-31.3-8.5-46.1v-24.3c-3.5,0.3-7,0.6-10.5,0.8L1582.1,1358.4 M1704.5,1518.1l-3.5-24.6 c-23.9,9.5-48.7,16.1-74.6,19.9l82.3,197.9c2.9,0,5.8,0,8.7-0.3c4.7-0.4,9.3-1.1,13.7-2.1c7.9-1.9,15.3-4.9,22.1-9.2 c-1.8,3.6-3.7,6.8-5.6,9.8l-7.4,8.5c-17.7,17.8-25.8,17.3-24.1-1.5c-1.4,5.1-3.1,10.3-5.2,15.8c-0.3,0.7-0.6,1.4-0.9,2.1 c-4.2,10.4-9.8,21.3-16.8,32.8c-0.1,0.2-0.3,0.4-0.4,0.7c-2.1,3.9-1.3,7.8,2.6,11.7c8.9,3,21.7-2.5,38.4-16.6 c14.1-14.2,24.9-29.4,32.4-45.5c2.2-3.3,1.5-7.6-2.1-13l-5.4-8.3c3-2.2,5.9-4.7,8.6-7.4c0-0.1,0.1-0.1,0.1-0.1 c-3.7-12.3-7.5-24.5-11.4-36.5c-7.3-22.4-15.1-44.5-23.4-66.3C1723.8,1562.9,1714.4,1540.3,1704.5,1518.1z" fill="#182647"/></g><g><path d="M1574.1,1275.8l-1,6.7l-10.7,76c6.9,1,13.4,1,19.7,0l-6.5-67L1574.1,1275.8 M1586.3,1053.5l-7.9,3.5 c-2,0.8-4.1,1.7-6.2,2.5c-0.3,0.1-0.6,0.3-1,0.4c0,0.2,0,0.3,0,0.5c-0.5,27.2,0.2,54.7,2,82.5c1,13.5,2.2,27.1,3.7,40.7 c0.4,2.8,0.7,5.6,1,8.4l1.5-3.2l55.5-115.9c2.6-3.2,5.2-6.5,7.6-9.8v-0.1c0,0,0,0-0.1,0l-15.5-10.3c-0.2,0.8-2.3,3.8-6.3,9 c-5.1,6.6-14,12.9-26.6,18.9c-3.2-2.2-6.1-8-8.5-17.5C1586.3,1060.4,1586.5,1057.2,1586.3,1053.5z" fill="#4C80E7"/></g><g><path d="M1511.3,1205.6c0.5-16.2,1.1-32.3,1.9-48.4c-1.4-1.7-2.1,1.4-2.1,9.3l-3.6,53.4l-0.1,0.7l3.6-5.1 c0-0.1,0-0.2,0-0.4C1511.1,1211.9,1511.2,1208.7,1511.3,1205.6 M1473.1,1167.2L1473.1,1167.2l0.6,1.9c0.5,1.9,1.1,3.7,1.7,5.6 l4.3,12.3c0.5,0.7,0.9,0.9,1.2,0.4c0.2-0.6,0.3-2.2,0.1-4.8l-5.8-18.7c0,0,0,0.1-0.1,0.1c0,0.1-0.1,0.2-0.2,0.3L1473.1,1167.2 M1655.1,1104.6l0.5-33.2c-0.9-0.6-1.8-1.2-2.8-1.7v32.5l-20-0.1l8.5,22.4l-61.9,64.6v-0.3l-1.5,3.2c-0.3-2.8-0.6-5.7-1-8.4 l-0.1,3.8l-30.7-65.4l14.5-19.9l-16.5-2.2l13.4-33.8c-0.9,0.5-1.8,1-2.8,1.5l-13.3,33.7l15.4,2.3l-13.5,17.9l33.3,71.2 l-2.7,80.3c0,0.1,0,0.1,0,0.2l-0.8,9.3l1-6.7l1.5,15.7l3.6-97.8l65.2-68.9l-8.5-20.4L1655.1,1104.6 M1577.8,1195.3v-0.3V1195.3 L1577.8,1195.3z" fill="#94B0DC"/></g><g><path d="M1571.2,1060C1571.2,1060,1571.1,1060,1571.2,1060c-4.5,1.9-9.1,4-13.7,6.3l-13.4,33.8l16.5,2.2 l-14.5,19.9l30.7,65.4l0.1-3.8c-1.5-13.6-2.7-27.2-3.7-40.7c-1.9-27.8-2.5-55.3-2-82.5C1571.2,1060.3,1571.2,1060.2,1571.2,1060 M1452.9,1100.3l-7,1.8l-30.8,7.7l-16.3,4l31.9,106.9c4.5,14.4,11.2,23.6,20.1,27.4c10.9,6.1,23.7,4.3,38.3-5.5 c1.9-1.4,3.4-2.8,4.5-4.1l0.5-0.3l13.3-18.3l3.6-53.4c0-7.8,0.7-10.9,2.1-9.3c-0.8,16.1-1.4,32.2-1.9,48.4 c-0.1,3.1-0.2,6.3-0.3,9.4l0.3-0.3c-0.2,3.2-0.5,6.4-0.7,9.7c-0.7,9.9-1.4,19.8-2,29.7c0,0.3-0.1,0.7-0.1,1l-19.7,228.8 c11.1,8.5,22.8,15.4,35.2,20.8c6.1,2.7,12.3,5,18.6,6.9l19.8-153l10.7-76l0.8-9.3c0,0,0-0.1,0-0.2l2.7-80.3l-33.3-71.2 l13.5-17.9l-15.4-2.3l13.3-33.7c-1.4,0.6-2.7,1.3-4.1,2.1c-6.1,3.2-12.3,6.1-18.6,8.7c-5.5,3-12.7,8.8-21.4,17.3 c-0.7,0.7-1.4,1.4-2.1,2c-10.8,21.5-21.9,43.5-33.3,66.1l5.8,18.7c0.2,2.6,0.2,4.2-0.1,4.8c-0.3,0.5-0.7,0.3-1.2-0.4l-4.3-12.3 c-0.6-1.8-1.1-3.7-1.7-5.6l-0.6-1.8l0,0L1452.9,1100.3 M1655.6,1071.5l-0.5,33.2l-19.3-0.3l8.5,20.4l-65.2,68.9l-3.6,97.8 l6.5,67l15.3,158c3.5-0.2,7-0.5,10.5-0.8c6.3-0.6,12.5-1.3,18.6-2.3c25.9-3.8,50.7-10.4,74.6-19.9c0.9-0.4,1.8-0.8,2.8-1.1 l0.8-118.7c15.3-0.6,25.7-8.3,31.4-22.9c2.9-34.4,4.1-70.7,3.6-108.9c-7.5-67.3-19.5-114.9-36.1-142.8c-2.7-2.5-5.4-5-8.2-7.5 c-17.1-10.4-34.6-19.8-52.5-28.4c-0.1,0-0.1,0-0.2-0.1v0.1c-2.4,3.3-5,6.6-7.6,9.8l-55.5,115.9v0.3l61.9-64.6l-8.5-22.4l20,0.1 v-32.5C1653.8,1070.3,1654.7,1070.9,1655.6,1071.5z" fill="#FFF"/></g><g><path d="M1610.8,1046.3c-1.2,0.5-2.4,1-3.7,1.5c-1.1,0.4-2.2,0.8-3.3,1.2c-3.6,1.1-7.4,2-11.6,2.8 c-0.1,0-0.3,0-0.5,0.1c-1.9,0.3-3.7,0.5-5.4,0.7c0,0.4,0,0.7,0,1.1c0.2,3.6,0,6.9-0.7,9.7c2.4,9.5,5.2,15.3,8.5,17.5 c12.6-6,21.5-12.3,26.6-18.9c4-5.2,6.1-8.2,6.3-9l-0.3-0.3c-0.2-1.5-0.3-3.1-0.3-4.8c-0.1-1.5-0.1-3.1,0-4.8 c0.1-2.3,0.3-4.7,0.5-7.3c-0.9,0.9-1.8,1.7-2.8,2.4l-3,2.4C1618,1042.8,1614.6,1044.7,1610.8,1046.3z" fill="#FFB6A8"/></g><linearGradient xmlns:xlink="http://www.w3.org/1999/xlink" gradientTransform="translate(-2749 -1245.72)" gradientUnits="userSpaceOnUse" id="a" x1="4122.284" x2="4141.934" xlink:actuate="onLoad" xlink:show="other" xlink:type="simple" y1="2269.008" y2="2296.183"><stop offset=".326" stop-color="#fdb8bb"/><stop offset="1" stop-color="#ffdccd"/></linearGradient><path d="M1376.1,1041.4c0,0,0.1,0.1,0,0.2c-2.1,1.3-2.1,4.5-0.1,9.7c0,0,0,0.1,0.1,0.1 c1.8,4.4,3.5,8.6,5.3,12.6l7.8-6.5l-4.8-8.8C1381.7,1042.6,1378.9,1040.2,1376.1,1041.4 M1381.5,1034.2c-1.1-2.4-2.7-3.1-4.6-2 c-1.5,1.3-1.9,3.9-1.1,7.8c0,0,0.1,0,0.2,0c3.1-1,6,0.6,8.7,4.8c0.9,1.4,1.8,3.1,2.6,5.2l3.5,6.5l9.1-7.5l-7.2-11l0,0v-0.1 c-3.8-8-7.2-11.5-10.3-10.4C1380.3,1028.1,1380.1,1030.3,1381.5,1034.2 M1407.4,1042.4L1407.4,1042.4 c-7.6-13.4-13-19.5-16.2-18.3c-1.7,0.7-2,3.1-1,7.1l10.8,16.6L1407.4,1042.4z" fill="url(#a)"/><g><path d="M1375.9,1039.9c-0.1,0-0.1,0-0.2,0v0.1c0.1,0.4,0.2,0.9,0.4,1.3c2.8-1.2,5.6,1.2,8.4,7.3l4.8,8.8 l3.9,7.2c0.1,0.1,0.2,0.1,0.3,0.2c0.9,0.6,1.2,0.3,1-1c0-0.2-0.1-0.4-0.1-0.6l-3.8-6.9l-3.5-6.5c-0.8-2-1.7-3.7-2.6-5.2 C1381.9,1040.5,1379,1038.9,1375.9,1039.9 M1419,1054.2l-2-1.9c0.1,2.5,0.9,5.4,2.2,8.6c-2.2,7.8-0.8,16,4.2,24.6 c-3.6-10.8-4.4-18.9-2.4-24.1l-0.5-1.7l-1.5-5.3C1419,1054.4,1419,1054.3,1419,1054.2 M1404.9,1054.2c0-0.2-0.1-0.4-0.2-0.6 l-3.8-5.8l-10.8-16.6c0.4,1.8,1.2,4,2.3,6.6l0,0l7.2,11l4.3,6.5c0.1,0.1,0.2,0.1,0.3,0.1 C1405.1,1056,1405.3,1055.5,1404.9,1054.2z" fill="#FA8E79"/></g><g><path d="M1408.7,1044.7c-0.4-0.8-0.9-1.5-1.3-2.3l-6.4,5.4l3.8,5.8c0.1,0.2,0.1,0.4,0.2,0.6 c0.4,1.3,0.1,1.7-0.7,1.3c-0.1,0-0.2-0.1-0.3-0.1l-4.3-6.5l-9.1,7.5l3.8,6.9c0,0.2,0.1,0.4,0.1,0.6c0.2,1.3-0.1,1.6-1,1 c-0.1-0.1-0.2-0.1-0.3-0.2l-3.9-7.2l-7.8,6.5c1,2.3,2.1,4.6,3.1,6.8c1,2.1,2,4.2,3.1,6.3l0.3,0.3c3.2,5.9,6.9,11.4,11.2,16.5 c4.7,5.7,10.1,11,16.1,15.9l30.8-7.7l-2-13.1c0-7.9-2.8-16.2-8.3-24.8l-1.5-6c-0.3,0.1-0.6,0.1-0.9,0.2c-4.2,1-7.7,1.4-10.4,1.4 c-0.8,0-1.6,0-2.4-0.1l0.5,1.7c-2.1,5.2-1.3,13.3,2.4,24.1c-5-8.6-6.4-16.8-4.2-24.6c-1.3-3.2-2.1-6.1-2.2-8.6L1408.7,1044.7z" fill="#FFDCCD"/></g><linearGradient xmlns:xlink="http://www.w3.org/1999/xlink" gradientTransform="translate(-2749 -1245.72)" gradientUnits="userSpaceOnUse" id="b" x1="4174.009" x2="4175.484" xlink:actuate="onLoad" xlink:show="other" xlink:type="simple" y1="2270.34" y2="2304.015"><stop offset=".326" stop-color="#fdb8bb"/><stop offset="1" stop-color="#ffdccd"/></linearGradient><path d="M1421.1,1034.7c-1.3,1.7-2.1,4.3-2.5,7.7c-0.3,3.2-0.2,7.2,0.3,11.9c0,0.1,0,0.2,0,0.3l1.5,5.3 c0.8,0.1,1.6,0.1,2.4,0.1c2.7,0,6.2-0.5,10.4-1.4c0.3-0.1,0.6-0.1,0.9-0.2l-5.7-22C1426.7,1032.3,1424.2,1031.8,1421.1,1034.7z" fill="url(#b)"/></g></g></g><g><g><g><g><path d="M1651,984.2c0,0-0.1,0-0.2,0c-3.6,7.3-6.8,12.5-9.7,15.8c-2,2.4-3.9,3.7-5.5,3.8c-0.7,0-1.4-0.2-2-0.6 c-3.7-2.2-4.2-10.7-1.5-25.5c0.2-1.2,0.5-2.5,0.7-3.7c1.1-5.5,2.6-11.7,4.3-18.6c-23.9-0.1-40.3-7.6-49.4-22.3 c-9.8,8.9-19.9,14.8-30.3,17.9c-2.8,1.9-5.2,6.8-7.1,14.8c-0.1,0.3-0.1,0.6-0.2,0.9c-0.7,4.2-1.4,9-1.9,14.4 c0-0.1-0.1-0.1-0.1-0.2l-1.3,21.6c-0.4,5.4-0.3,10.3,0.3,14.9c0.3,2.6,0.8,5,1.4,7.3c0.1,0.6,0.3,1.1,0.5,1.7 c0.5,1.4,1,2.8,1.7,4.2c2.9,6.5,7.4,11.8,13.3,15.8c0.6,0.4,1.2,0.8,1.8,1.2c0.1,0,0.1,0.1,0.2,0.2c4.8,2.5,9.9,4,15.3,4.5 c0.6,0,1.3,0.1,1.8,0.1c1,0,2,0.1,3.1,0.1c1.8-0.1,3.6-0.2,5.4-0.3c0.2,0,0.3-0.1,0.5-0.1c4.2-0.5,8.1-1.2,11.8-2.1 c1.1-0.3,2.3-0.7,3.3-1c1.3-0.4,2.6-0.8,3.8-1.2c3.9-1.4,7.4-3.2,10.6-5.2l3.2-2.1c0.5-0.4,1.1-0.8,1.6-1.3 c0.6-0.6,1.2-1.1,1.9-1.7c0.4-0.4,0.7-0.7,0.9-0.9c0.4-0.5,0.8-0.9,1.3-1.3c1.6-1.7,3.1-3.5,4.4-5.4c0.6-0.9,1.3-1.9,1.8-2.9 l4.3-7.2v0.3c0-0.1,0-0.2,0-0.3c5.2,0.7,9.8,0.8,13.8,0.1c9.9-2.3,14.8-8.7,14.8-19.3c0-0.1,0-0.2,0-0.3c0-1.2-0.1-2.3-0.3-3.3 c-0.1-1.6-0.4-2.9-0.8-4.1v-0.1c-2-5.5-6.3-8.4-13-8.8C1654.2,984.1,1652.7,984.1,1651,984.2z" fill="#FFE4D8" transform="translate(-1374.5 -891.8)"/></g><g><path d="M1660.6,917c-4.5-1.2-8.3-2-11.4-2.5c-1.7-0.3-3.2-0.5-4.5-0.5c-3.9-0.6-6.1-0.9-6.7-0.9 c-0.5-0.4-1-0.9-1.4-1.3c-2.4-2.1-4.8-4-7.2-5.9c-18.9-13.7-39.9-17.4-62.8-11.2c-5.2,2-9.6,4.2-13.2,6.6c-1.5,1-2.8,2.1-4,3.2 c-2.7,2.5-4.7,5.2-6.1,8c-1.3,2.7-2,5.6-2.1,8.6c-0.3,6.7,2.1,14.2,7.2,22.6c-0.5,2.3-1,4.5-1.3,6.7c0,0.1-0.1,0.2-0.1,0.3 c-0.5,2.8-0.8,5.5-1,8.1c-0.7,8.1-0.1,15.2,1.9,21.3c0.1,0.3,0.1,0.6,0.3,0.9c0,0.1,0.1,0.1,0.1,0.2c0.6-5.4,1.2-10.2,1.9-14.4 c0.1-0.3,0.1-0.6,0.2-0.9c1.9-8,4.3-12.9,7.1-14.8c10.5-3.1,20.6-9,30.3-17.9c9.1,14.7,25.6,22.2,49.4,22.3 c-1.8,6.9-3.3,13.1-4.3,18.6c-0.2,1.2-0.5,2.5-0.7,3.7c-2.7,14.7-2.2,23.2,1.5,25.5c0.6,0.4,1.3,0.6,2,0.6 c1.6-0.1,3.5-1.4,5.5-3.8c2.9-3.3,6.1-8.5,9.7-15.8c0.1,0,0.2,0,0.2,0c1.6-0.1,3.2-0.1,4.6-0.1c6.7,0.4,11,3.3,13,8.8v0.1 c6-6.7,11.2-15.5,15.7-26.5c0.2-0.5,0.4-1,0.6-1.6c3.4-11.6,0.7-21.1-8.1-28.4c-1.8-1.5-3.9-2.9-6.4-4.3c0-2.4-0.2-4.5-0.7-6.3 C1668.5,921.1,1665.5,918.2,1660.6,917z" fill="#182647" transform="translate(-1374.5 -891.8)"/></g></g></g></g><g><g><g transform="translate(-1374.5 -891.8)"><radialGradient xmlns:xlink="http://www.w3.org/1999/xlink" cx="-1742.752" cy="2046.568" gradientTransform="matrix(-.9982 -.05967 -.05335 .881 32.898 -919.772)" gradientUnits="userSpaceOnUse" id="c" r="17.807" xlink:actuate="onLoad" xlink:show="other" xlink:type="simple"><stop offset=".326" stop-color="#fdb8bb"/><stop offset=".988" stop-color="#fdb8bb" stop-opacity="0"/></radialGradient><path d="M1650.9,984.1C1650.9,984.1,1650.8,984.2,1650.9,984.1c-1.4,2.9-2.8,5.5-4,7.7 c0.7,1.9,1.9,3.7,3.6,5.4c3.2,3.3,7.2,5,12,5.3c2.5,0.1,4.7-0.2,6.8-0.8c0.1-0.6,0.2-1.1,0.3-1.6c0.1-2.6-0.2-5-0.9-7.2 c-0.3-1.1-0.8-2.1-1.4-3c-0.1-0.2-0.2-0.4-0.2-0.5c-2.5-3.4-6.6-5.2-12.3-5.4c-1.1-0.1-2.3-0.1-3.6,0.1 C1651.1,984.1,1651,984.1,1650.9,984.1z" fill="url(#c)"/></g></g></g><g><g><g><g><path d="M1596.7,1018.9c-2.5,1.9-6.3,2.5-11.3,1.9c-6.3,0-10.8-1.1-13.4-3.3c-0.2,5.5,2.3,9.3,7.6,11.3 c0.1,0.1,0.2,0.2,0.3,0.3c7.9,1.5,13.2-0.6,15.8-6.3C1596.2,1021.6,1596.5,1020.3,1596.7,1018.9z" fill="#D1665E" transform="translate(-1374.5 -891.8)"/></g><g><path d="M1585.4,1020.8c5.1,0.6,8.9,0,11.3-1.9c0.1-0.5,0.2-1.1,0.3-1.6l-25-1.2c-0.2,0.5-0.2,0.9-0.1,1.3 C1574.6,1019.7,1579.1,1020.8,1585.4,1020.8z" fill="#FFF" transform="translate(-1374.5 -891.8)"/></g><g><path d="M1578.3,989.5c-5,6.1-7.6,10.1-7.7,12c0,1.9,1,3.8,3,5.4c2.1,1.7,3.8,2.7,5,3c-0.5-0.7-1.1-1.6-1.8-2.7 c-1.7-2.5-2.5-4.6-2.4-6.2c0.1-0.9,0.8-3.1,2.1-6.4C1577.3,992.5,1577.9,990.8,1578.3,989.5z" fill="#FA8E79" transform="translate(-1374.5 -891.8)"/></g><g><path d="M1603.7,980.1c-1.4-0.1-2.7,0.7-3.8,2.3c-1.2,1.6-1.9,3.6-2,6c-0.2,2.4,0.3,4.4,1.3,6.1 c0.9,1.8,2.1,2.7,3.6,2.8c1.6,0.1,3-0.7,4.3-2.3c1.1-1.6,1.7-3.6,1.8-5.9c0.2-2.4-0.2-4.4-1.1-6.2 C1606.6,981.1,1605.3,980.2,1603.7,980.1 M1562.9,985.5c-0.1,2.3,0.2,4.3,0.9,5.9c0.7,1.7,1.6,2.5,2.7,2.6 c1.2,0.1,2.3-0.7,3.2-2.2c0.9-1.6,1.4-3.5,1.5-5.8c0.2-2.2-0.1-4.2-0.8-5.8c-0.7-1.7-1.7-2.6-2.9-2.7c-1.1-0.1-2.1,0.7-3,2.3 C1563.6,981.4,1563.1,983.3,1562.9,985.5z" fill="#182647" transform="translate(-1374.5 -891.8)"/></g><g><path d="M1659,991.2c-0.5-0.2-0.9-0.1-1.4,0.1c-2.5,1-4.5,2.3-6,3.9c0,0-0.1,0.1-0.2,0.1 c-1.5,1.8-2.3,3.1-2.3,3.9c-0.2,0.8,0.1,2.4,0.9,4.8c0,0,0.1,0.1,0.1,0.2c0.7,1.5,1,2.4,1,2.8v0.1c-0.2,0.6-0.7,1.2-1.6,1.5v0.1 c-0.4,0.2-0.8,0.4-1.2,0.6c-0.5,0.1-0.8,0.4-1.1,0.9c-0.2,0.4-0.2,0.9,0,1.3s0.5,0.8,1,0.9c0.5,0.2,1,0.2,1.4,0.1 c0.5-0.2,1.1-0.4,1.8-0.8c1.8-0.9,2.9-2.1,3.3-3.7c0.4-0.8,0-2.5-1.1-5c-0.5-1.7-0.7-2.8-0.7-3.3c0.1-0.4,0.6-1.2,1.5-2.3 c1.2-1.2,2.8-2.2,4.8-3c0.5-0.2,0.9-0.5,1-0.9c0.2-0.5,0.2-0.9,0-1.3C1659.8,991.7,1659.5,991.4,1659,991.2z" fill="#FFA08E" transform="translate(-1374.5 -891.8)"/></g></g></g><g><path d="M1574.2,962.8c-4.1-2.7-7.7-2.6-10.8,0.4c-0.7,0.6-1.3,1.3-1.9,2.3 M1600.2,964.4c7.4-2.7,13-0.9,16.9,5.6" fill="none" stroke="#182647" stroke-linecap="round" stroke-linejoin="round" stroke-width="5" transform="translate(-1374.5 -891.8)"/></g></g><g><g><g><path d="M1561.2,980.9c-4-0.2-7.5,0.6-10.5,2.4c-3.3,2-5.1,4.7-5.2,7.9c-0.3,3.2,1.1,6,4.2,8.4 c2.7,2.1,6.1,3.3,10.1,3.6c4,0.2,7.5-0.6,10.5-2.3v-0.1c3.3-2,5-4.6,5.2-7.8v-0.1c3.5-0.6,7-0.4,10.7,0.6l0,0 c-0.3,3.2,1.4,6.1,5,8.6c3.2,2.1,7.1,3.3,11.8,3.6c4.6,0.3,8.7-0.4,12.1-2.2c4-2,6-4.6,6.1-7.9l0,0c0.3-3.2-1.4-6.1-5.1-8.5l0,0 c-3.2-2.1-7.1-3.3-11.8-3.7c-4.7-0.3-8.7,0.4-12.2,2.3c-2.2,1.1-3.7,2.3-4.6,3.8c-4.4-1.3-8.7-1.5-12.8-0.8 c-0.7-1.6-1.8-3-3.4-4.2C1568.6,982.4,1565.2,981.2,1561.2,980.9 M1552.9,986.9c2.3-1.4,4.9-2,8-1.8s5.6,1.1,7.8,2.8l0,0 c1.4,1.1,2.3,2.3,2.6,3.7v0.2c0.1,0.3,0.1,0.6,0.1,0.9c-0.2,1.8-1.3,3.3-3.3,4.5l0,0c-2.3,1.3-5,1.9-8,1.8 c-3.1-0.2-5.7-1.1-7.8-2.7c-1.8-1.4-2.7-3-2.6-4.8l0,0C1549.9,989.6,1551,988.1,1552.9,986.9 M1590.7,992.9 c0.5-1.3,1.6-2.5,3.4-3.4c2.8-1.4,6.1-2,10-1.7c3.8,0.2,7,1.2,9.6,2.8v0.1c2.1,1.4,3.2,3,3.3,4.7c-0.3,1.8-1.6,3.2-3.8,4.3v0.1 c-2.8,1.4-6.1,1.9-9.9,1.7c-3.9-0.2-7.1-1.2-9.8-3c-2.1-1.4-3.2-3-3.2-4.7C1590.3,993.5,1590.4,993.2,1590.7,992.9 C1590.7,993,1590.7,992.9,1590.7,992.9z" fill="#516EC7" transform="translate(-1374.5 -891.8)"/></g></g></g><g><g><g><path d="M1540.1,1417.7c1,1,2.1,1.5,3.5,1.5s2.5-0.5,3.5-1.5s1.5-2.1,1.5-3.5s-0.5-2.6-1.5-3.5 c-1-1-2.2-1.5-3.5-1.5c-1.4,0-2.5,0.5-3.5,1.5s-1.5,2.1-1.5,3.5S1539.1,1416.8,1540.1,1417.7 M1548.5,1334.4 c-1,1-1.4,2.2-1.4,3.6s0.5,2.5,1.4,3.5c1,1,2.2,1.4,3.6,1.4s2.5-0.5,3.5-1.4c1-1,1.5-2.1,1.5-3.5s-0.5-2.6-1.5-3.6 s-2.1-1.4-3.5-1.4S1549.5,1333.4,1548.5,1334.4 M1556.9,1270.9c1,0.9,2.2,1.4,3.6,1.4s2.5-0.5,3.5-1.4c1-1,1.5-2.2,1.5-3.6 s-0.5-2.6-1.5-3.5c-1-1-2.1-1.4-3.5-1.4s-2.6,0.5-3.6,1.4s-1.4,2.1-1.4,3.5C1555.4,1268.7,1555.9,1269.9,1556.9,1270.9 M1560.1,1204.1c-1,1-1.5,2.2-1.5,3.6s0.5,2.5,1.5,3.5s2.1,1.5,3.5,1.5s2.5-0.5,3.5-1.5s1.5-2.1,1.5-3.5s-0.5-2.6-1.5-3.6 s-2.2-1.4-3.5-1.4C1562.2,1202.6,1561.1,1203.1,1560.1,1204.1z" fill="#99ACBD" transform="translate(-1374.5 -891.8)"/></g></g></g><g><g><g><path d="M1735.5,1422.5l-14.6-92.7h-108.2l15.5,97.6L1735.5,1422.5z" fill="#8AB1FF" transform="translate(-1374.5 -891.8)"/></g></g></g><g><g><g transform="translate(-1374.5 -891.8)"><linearGradient xmlns:xlink="http://www.w3.org/1999/xlink" gradientTransform="translate(-2749 -1245.72)" gradientUnits="userSpaceOnUse" id="d" x1="4400.375" x2="4423.875" xlink:actuate="onLoad" xlink:show="other" xlink:type="simple" y1="2651.591" y2="2651.591"><stop offset=".326" stop-color="#fdb8bb"/><stop offset="1" stop-color="#ffdccd"/></linearGradient><path d="M1656.7,1413c4.3,4.9,11.8,3.2,22.4-5.2c-0.6-2.3-1.4-6.2-2.2-11.8l-20.2,12.3 C1655.3,1410.2,1655.3,1411.8,1656.7,1413z" fill="url(#d)"/><linearGradient xmlns:xlink="http://www.w3.org/1999/xlink" gradientTransform="translate(-2749 -1245.72)" gradientUnits="userSpaceOnUse" id="e" x1="4441.043" x2="4445.868" xlink:actuate="onLoad" xlink:show="other" xlink:type="simple" y1="2696.71" y2="2668.71"><stop offset=".326" stop-color="#fdb8bb"/><stop offset="1" stop-color="#ffdccd"/></linearGradient><path d="M1716.1,1428.7c1.9-1.2,3.3-2.7,4.3-4.3l-34.7-2.3c-1.1,1.2-2.4,2.2-3.8,3l-9.2,0.3 c0.7,3.2,3.3,5.9,7.9,8.3c7.4,0.9,14.4,0.9,21.1,0C1706.6,1432.8,1711.4,1431.2,1716.1,1428.7z" fill="url(#e)"/><g><path d="M1679.8,1394.2l-2.9,1.8c0.8,5.6,1.6,9.5,2.2,11.8c0.3-0.3,0.7-0.5,1.1-0.8c5.1-0.2,8.2,2.6,9.4,8.3 c-1,2.7-2.3,4.9-3.8,6.7l34.7,2.3c0.4-0.8,0.7-1.6,0.9-2.4c3.1-12.3,5.7-25.3,7.8-39.2h-37.4L1679.8,1394.2z" fill="#FFDCCD"/></g></g></g></g><g><g><g><g><path d="M1673.5,1170.7c0.1,1.4,0.2,2.8,0.4,4.1c0.2,2.8,0.4,5.6,0.6,8.4c0.1,1.5,0.2,3.2,0.4,5.2 c3,43.3,3.8,90.4,2.4,141.4c-0.5,17.2-1.2,34.9-2.2,53.1c19.1,2.1,38.4,2.1,57.8,0c5.2-43.9,7.5-90.9,6.9-141.1 c-7.7-69.6-20.3-118.2-37.9-145.6c-12.7,18.5-22.2,41.9-28.3,70.3c-0.1,0.4-0.2,0.8-0.3,1.3 C1673.4,1168.8,1673.4,1169.8,1673.5,1170.7z" fill="#FFF" transform="translate(-1374.5 -891.8)"/></g><g><path d="M1673.9,1174.8c-1.2-2.8-1.5,1.8-0.9,13.7c2.4,48.4,2.4,95.4,0.1,141.3h4.2c1.4-51,0.6-98.1-2.4-141.4 c-0.1-1.9-0.3-3.6-0.4-5.2C1674.3,1180.4,1674.1,1177.6,1673.9,1174.8z" fill="#94B0DC" transform="translate(-1374.5 -891.8)"/></g></g></g></g><g><g><g><path d="M1661.6,1201.1v-8.8c0-2.1-1-3.1-3.1-3c-14.2,0.9-28.8,1.4-43.9,1.5c-2.1,0.1-3.2,1.2-3.2,3.3v8.9 c0,1.5,0.5,2.4,1.6,2.8v20.3c0.4,5.1,2.9,7.8,7.5,8.1c3.1,0,6.1,0,9.1-0.1c5.9-0.2,11.7-0.4,17.4-0.7v-0.1c2-0.1,4-0.3,6-0.4 c4.2-0.7,6.5-2.9,6.8-6.7v-22C1661,1203.8,1661.6,1202.8,1661.6,1201.1 M1657.3,1202.5c-0.3,0.1-0.6,0.1-0.9,0.1 c-8.8,0.7-18,1.1-27.6,1.2c-6.3,0.2-10.5,0.2-12.5,0.2c-0.4,0-0.7,0-1-0.1c-1-0.2-1.4-1-1.4-2.2v-6.3c0-1.6,0.8-2.5,2.4-2.5 c2,0,6.2-0.1,12.5-0.3c9.5-0.1,18.7-0.5,27.6-1.1c1.6-0.1,2.4,0.7,2.4,2.3v6.4C1658.9,1201.4,1658.3,1202.2,1657.3,1202.5 M1657.3,1224.7c-0.1,3.5-1.6,5.5-4.5,6.3c-2.4,0.2-4.9,0.3-7.5,0.5l0,0c-5.3,0.3-10.8,0.4-16.5,0.5c-0.3,0-0.6,0-0.9,0h-0.5 c-2.2,0.1-4.1,0.1-5.8,0.2c-4.2-0.7-6.3-2.9-6.3-6.4V1206c14.7,0,28.7-0.4,42-1.4L1657.3,1224.7L1657.3,1224.7z" fill="#97B2E4" transform="translate(-1374.5 -891.8)"/></g></g></g><g><g><g><path d="M1648.4,1185.6c0-0.7-0.3-1.4-0.8-1.9s-1.2-0.7-2-0.6c-0.8,0-1.4,0.3-1.9,0.9s-0.8,1.3-0.8,2v9.1 c0,0.8,0.3,1.4,0.8,1.9s1.2,0.7,1.9,0.7v1.9c0,0.4,0.1,0.7,0.4,0.9c0.3,0.3,0.6,0.4,1,0.3c0.4,0,0.7-0.2,1-0.4 c0.2-0.3,0.3-0.6,0.3-1L1648.4,1185.6L1648.4,1185.6z" fill="#5B6988" transform="translate(-1374.5 -891.8)"/></g></g></g><g><g><g><g><path d="M1528.1,1132.6c-0.5,0-0.9,0.1-1.2,0.3c-0.3,0.2-0.4,0.5-0.5,0.8c-0.1,0.1-0.1,0.2-0.1,0.3 c-1.4,17.2,0.7,29.5,6.5,36.8c0.7,0.9,1.4,1.7,2.2,2.5c-3.9,2.7-8.3,2.9-13.3,0.8c0-0.1,0-0.3,0-0.5c0-1-0.3-1.8-1.1-2.5 c-0.7-0.6-1.4-1-2.3-1c-0.1,0-0.1,0-0.2,0c-0.3,0-0.5,0-0.7,0.1c-0.1,0-0.2,0-0.3,0.1c-0.6,0.1-1.1,0.4-1.6,0.9 c-0.7,0.7-1,1.5-1,2.5s0.3,1.8,1,2.5s1.6,1.1,2.6,1.1c0.6,0,1.2-0.2,1.7-0.5c6.6,3.2,12.5,2.7,17.6-1.3c5.4,3.7,12.7,4.7,22,3.1 c0.7,0.6,1.4,0.9,2.3,0.9c1,0,1.8-0.3,2.5-1s1.1-1.5,1.1-2.5s-0.4-1.8-1.1-2.5c-0.6-0.6-1.4-1-2.3-1c0,0-0.1,0-0.2,0 c-0.2,0-0.4,0-0.6,0c-0.1,0-0.2,0-0.3,0.1c-0.6,0.1-1.1,0.4-1.6,0.8c-0.6,0.6-0.9,1.3-0.9,2.1c-7.6,1.3-13.8,0.5-18.4-2.3 c0.1-0.2,0.3-0.3,0.4-0.5c5.9-6.5,10.6-18.6,14.1-36.3v-0.2c0-0.4-0.1-0.7-0.3-1.1c-0.2-0.4-0.6-0.6-1-0.7s-0.8,0-1.2,0.2 c-0.3,0.2-0.5,0.4-0.7,0.8l0,0c0,0.1,0,0.1,0,0.2c-3.4,17-7.8,28.6-13.3,34.9c-0.2,0.3-0.4,0.5-0.7,0.8 c-0.8-0.7-1.5-1.5-2.1-2.3c-5.2-6.9-7.1-18.4-5.8-34.6c0-0.1,0-0.1,0-0.2c0-0.4-0.1-0.7-0.4-1 C1528.9,1132.9,1528.5,1132.7,1528.1,1132.6z" fill="#8D94A4" transform="translate(-1374.5 -891.8)"/></g><g><path d="M1583.2,1052.3L1583.2,1052.3c-0.7,0-1.3-0.1-1.9-0.1c-1.5-0.1-2.9-0.3-4.3-0.6 c-13.1,7.1-23.5,23.8-31.3,49.8c-11.4,0.3-17.8,11.1-19.2,32.3v0.1c0.1-0.3,0.2-0.6,0.5-0.8c0.3-0.3,0.7-0.4,1.2-0.3 c0.4,0,0.8,0.2,1,0.6c0.3,0.3,0.4,0.6,0.4,1c0-0.1,0.1-0.3,0.1-0.3c1.2-19.2,6.8-29,16.8-29.3c4,0.6,6.4,3.3,7.3,7.8 c1.1,5.3,0.3,12.9-2.2,22.8c0.1-0.3,0.3-0.6,0.7-0.8c0.3-0.2,0.7-0.3,1.2-0.2c0.4,0.1,0.8,0.3,1,0.7c0.2,0.3,0.3,0.7,0.3,1.1 c2.7-10.5,3.4-18.6,2.3-24.2c-1.1-5.3-3.7-8.6-7.9-9.9C1557.2,1074.1,1568.7,1057.5,1583.2,1052.3 M1657.5,1137.8l0.4-4.3 c0-0.3,0-0.5,0.1-0.8c2.9-43-7.6-71.8-31.5-86.5c-0.1-0.1-0.2-0.1-0.3-0.2c0,0.6,0,1.2,0.1,1.8c0,0.7,0,1.4,0.1,2 c21.7,14.5,31.2,42.1,28.4,82.7c0,0.6-0.1,1.1-0.1,1.7l-0.2,3.3c0.2,0,0.4,0,0.7,0C1656.1,1137.6,1656.8,1137.7,1657.5,1137.8z" fill="#182647" transform="translate(-1374.5 -891.8)"/></g><g><path d="M1658.2,1138c-0.2-0.1-0.4-0.1-0.7-0.2c-0.7-0.2-1.5-0.3-2.3-0.3c-0.2,0-0.5,0-0.7,0s-0.4,0-0.5,0 c-0.8,0.1-1.5,0.2-2.1,0.3c-0.4,0-0.8,0.1-1.1,0.3c-2.5,0.6-4.7,1.8-6.5,3.7c-2.8,2.8-4.2,6.2-4.2,10.2s1.4,7.3,4.2,10 c2.9,2.9,6.3,4.3,10.3,4.3c3.8,0,7.2-1.4,10-4.3c2.9-2.7,4.3-6,4.3-10s-1.5-7.3-4.3-10.2 C1662.7,1139.8,1660.6,1138.6,1658.2,1138 M1654.5,1144.4c0.2,0,0.3,0,0.4,0c1.9,0.1,3.5,0.8,4.8,2.1c1.5,1.5,2.2,3.3,2.2,5.3 c0,2.1-0.7,3.8-2.2,5.2c-1.5,1.5-3.2,2.2-5.3,2.2s-3.8-0.7-5.3-2.2c-1.4-1.4-2.1-3.1-2.1-5.2c0-2,0.7-3.8,2.1-5.3 c1-1,2.1-1.6,3.3-1.8c0.2-0.1,0.4-0.2,0.7-0.2C1653.6,1144.5,1654,1144.4,1654.5,1144.4z" fill="#B4C7D8" transform="translate(-1374.5 -891.8)"/></g><g><path d="M1654.9,1144.4c-0.1,0-0.2,0-0.4,0c-0.5,0-0.9,0-1.3,0.1c-0.2,0-0.4,0.1-0.7,0.2 c-1.2,0.3-2.3,0.9-3.3,1.8c-1.4,1.5-2.1,3.3-2.1,5.3c0,2.1,0.7,3.8,2.1,5.2c1.5,1.5,3.2,2.2,5.3,2.2s3.8-0.7,5.3-2.2 c1.5-1.4,2.2-3.1,2.2-5.2c0-2-0.7-3.8-2.2-5.3C1658.4,1145.2,1656.8,1144.5,1654.9,1144.4z" fill="#D8E7F4" transform="translate(-1374.5 -891.8)"/></g></g></g></g><g><path d="M56.8,125c-0.1,0-0.1,0.1-0.1,0.1C57,126.1,57.1,126.1,56.8,125z" fill="#5385E1"/></g></g></svg>