<svg xmlns="http://www.w3.org/2000/svg" xmlns:xlink="http://www.w3.org/1999/xlink" height="881.2" preserveAspectRatio="xMidYMid meet" version="1.0" viewBox="-0.1 -1.8 396.3 881.2" width="396.3" zoomAndPan="magnify"><g><g><g><g><g><path d="M2344,846.7h0.4c-0.1-0.1-0.3-0.2-0.4-0.3V846.7z" fill="#2873B7" transform="translate(-2124.9 -32.4)"/></g><g><path d="M2343.4,847.2l-0.2,0.8v20.3c0,0,0,0.1,0,0.2c0.4,5.2,3.9,10.4,10.5,15.7l34.1,17.5 c18.3,8.2,30.9,10.1,37.8,5.8c0-0.1,0.1-0.1,0.1-0.2c9.5-3.9,7.3-13.5-6.5-28.8c-0.1-0.1-0.1-0.2-0.2-0.2c-0.9-1-1.8-2-2.8-3 c-4-3.8-8.6-8.4-13.8-13.8c0.2,0.9,0.4,1.7,0.6,2.5c1.7,9.9-5.6,13.2-21.8,9.8c-5.7-1.4-11.6-4.3-17.8-8.9 c-7.1-5.3-13.7-11.2-19.7-17.8L2343.4,847.2 M2188.4,879.8c-0.3,0.1-0.6,0.3-0.8,0.4c-4,2.4-5.4,6.2-4.3,11.4 c5.8,7.1,19.8,8.7,41.8,4.7c19.8-5.5,37.3-13.4,52.5-23.7c3.7-1.8,5.5-5.9,5.5-12.4l-0.1-13.9c-7.6,6-15.7,11.4-24.2,16.2 c-7.3,4.1-13.9,6.7-19.9,7.9c-18.4,3.2-24.5-0.4-18.3-11C2211.4,866.4,2200.6,873.2,2188.4,879.8z" fill="#31508E" transform="translate(-2124.9 -32.4)"/></g><g><path d="M2398.2,643.5c-19,3.9-37.8,6.4-56.5,7.6l2.3,195.3c0.1,0.1,0.2,0.2,0.4,0.3h0.1 c-0.3,0.2-0.5,0.4-0.8,0.6c6,6.6,12.5,12.5,19.7,17.8c6.2,4.6,12.1,7.6,17.8,8.9c16.2,3.4,23.5,0.1,21.8-9.8 c-7.7-7.8-13.4-15.2-17.3-22.3l-0.3-2.9c0.1,0.2,0.1,0.2,0.1,0h-0.1c0.5-6.8,1-13.5,1.5-20.3 C2391.2,759.7,2394.9,701.4,2398.2,643.5 M2304.6,651.6c-18.8-0.7-37.4-2.7-55.8-6.1c-2.7,64.2-4.8,129-6.4,194.3 c-6,6.7-13.3,13.2-21.7,19.5c-6.1,10.6,0,14.2,18.3,11c6-1.2,12.6-3.8,19.9-7.9c8.5-4.8,16.6-10.2,24.2-16.2L2304.6,651.6z" fill="#FFD3C0" transform="translate(-2124.9 -32.4)"/></g><g><path d="M2398.2,643.5c0.4-6.5,0.7-13,1.1-19.5c-9.6,0-19.2,0.7-28.6,2.2c-9.4,1.5-19.2,4.7-29.3,9.6l0.2,15.3 C2360.4,649.9,2379.2,647.4,2398.2,643.5 M2249.7,624c-0.3,7.2-0.6,14.3-0.9,21.5c18.4,3.4,37,5.4,55.8,6.1l1.8-15.8 c-9.6-4.9-19.1-8.1-28.4-9.6C2268.8,624.7,2259.3,624,2249.7,624z" fill="#FCAB9B" transform="translate(-2124.9 -32.4)"/></g></g></g></g><g><g><g><path d="M2359.5,49.7c-4.2-3.7-8.4-6.8-12.6-9.3c-12.7-7.6-26-9.8-39.9-6.5c-3,0.9-5.9,1.9-8.8,3.1 c-20.7,8.6-34.4,25.6-41.1,51.1v0.1c-1.9,10.8-5.4,20.5-10.7,29.1c-0.1,0-0.1,0.1-0.1,0.2c-11.3,18.4-12.7,34.6-4.1,48.7 c0.8,1.2,1.6,2.5,2.5,3.7c0.1,0.1,0.1,0.2,0.2,0.3c0.4,0.5,0.9,1.1,1.4,1.6c4.4,6,6.2,13.9,5.5,23.7c0,0.4,0,0.8-0.1,1.2 l-0.1,0.4c-3.4,9.4-5.8,18.5-7.2,27.5l148.8,8.4c-0.4-9.1-1.8-18.5-4-28.1l-0.1-0.4c0-0.4,0-0.8,0-1.2c0.4-9.8,3.1-17.5,8.2-23 c0.5-0.5,1-0.9,1.4-1.4c0.1-0.1,0.2-0.2,0.3-0.3c3-3.2,5.4-6.7,7.3-10.3c5.6-11.7,4.6-25.7-3-41.9c0-0.1-0.1-0.2-0.1-0.2 c-3.6-7.8-6.1-16-7.4-24.7l-0.1-0.3c0-0.1,0-0.3,0-0.4C2395.1,70.3,2383,53.3,2359.5,49.7z" fill="#182647" transform="translate(-2124.9 -32.4)"/></g></g></g><g><g><g><g><path d="M2298.8,397.9c-1,36.7-2.9,75.5-5.8,116.2c-2.1,29.7-4.8,60.5-7.9,92.4c-11.6-0.9-23.2-2.1-34.7-3.8 c-2.2-0.3-4.3-0.6-6.4-1c-2.1-0.3-4.2-0.7-6.3-1l-0.7,29.1c56.9,11.6,115.9,11.4,177.2-0.4l0.2-31c-16.5,3.2-33,5.6-49.4,7.1 c-2.8-30.4-5.1-60.9-7-91.5c-2.4-38.7-4.1-77.5-5-116.2C2334.9,398.8,2316.9,398.8,2298.8,397.9z" fill="#4C80E7" transform="translate(-2124.9 -32.4)"/></g><g><path d="M2292.4,196.4L2292.4,196.4c-12.1,4.9-23.9,10.3-35.7,16.1c-3.5,1.5-7.3,3.2-11.3,5.1 c-0.2,0.1-0.5,0.2-0.7,0.3c-0.9,0.4-1.8,1-2.9,1.7c-3.6,2.4-6.6,5.7-8.9,9.8c-10,20.6-17.2,44.2-21.5,70.8l17.3,29.2l8.6,57.2 c-5.8,40.7-11,83.2-15.7,127.7l0.3-0.8l-7.9,82.7l30,5.7c2.1,0.3,4.3,0.7,6.4,1c11.5,1.7,23.1,2.9,34.7,3.8 c3.1-31.9,5.7-62.7,7.9-92.4c2.9-40.8,4.8-79.5,5.8-116.2c2-73.9,0.1-139.7-5.6-197.4c-0.2-1.5-0.3-2.9-0.4-4.3 C2292.7,196.3,2292.5,196.3,2292.4,196.4 M2400.3,212.3c-0.9-0.4-1.7-0.8-2.6-1.1c-14.3-6.1-28.8-11.3-43.4-15.6v0.1 c-0.1,1.4-0.1,2.8-0.2,4.2c0,0.2,0,0.4,0,0.6c-2.5,66-2.9,131.9-1.3,197.6c0.9,38.8,2.6,77.5,5,116.2c1.9,30.5,4.2,61,7,91.5 c16.4-1.5,32.9-3.9,49.4-7.1c6.4-1.2,12.9-2.6,19.3-4.1c-6.7-68.4-14.6-136.7-23.6-204.8l1.5-10.5l21.5-0.8V253.6 c-1.5-5.8-3.1-10.7-4.8-14.6c-4.8-10.4-11.8-18.1-20.8-23.1C2405.4,214.7,2403,213.5,2400.3,212.3z" fill="#FFF" transform="translate(-2124.9 -32.4)"/></g><g><path d="M2345.1,207.2c-6,3.3-13,5.2-21.2,5.8c-8.2-0.3-15.3-2-21.3-5.3c-3.5-1.9-6.7-4.3-9.5-7.2 c5.7,57.7,7.6,123.5,5.6,197.4c18.1,0.8,36.2,0.8,54.2,0c-1.7-65.7-1.3-131.6,1.3-197.6C2351.5,203.1,2348.4,205.4,2345.1,207.2 M2336.3,351v0.6l-0.3-0.3L2336.3,351z" fill="#98BAFF" transform="translate(-2124.9 -32.4)"/></g><g><path d="M2341.9,169.2c-6.3,3.2-13.2,4.8-20.7,4.8c-7.1,0-13.7-1.5-19.8-4.4c0.1,1.4,0.1,3.8,0.2,7.1 c0,1.3,0,2.6-0.1,3.8c7.5,3.8,18,6.9,31.6,9.2c2.6,0.4,6.7,1,12.2,1.8C2342.9,186.2,2341.7,178.8,2341.9,169.2z" fill="#FCAB9B" transform="translate(-2124.9 -32.4)"/></g><g><path d="M2354.4,195.6c-0.2-0.1-0.5-0.1-0.7-0.1c-3.3-0.8-5.9-1.9-7.8-3.1h-0.1l0,0c-0.2-0.3-0.3-0.5-0.4-0.8 c-5.5-0.8-9.6-1.4-12.2-1.8c-13.6-2.3-24.1-5.4-31.6-9.2c-0.1,1.1-0.2,2.1-0.3,3.2c-0.1,0.3-0.1,0.7-0.1,1 c-0.1,0.5-0.2,1-0.3,1.5c-0.6,3-1.1,5.4-1.7,7c-1.2,0.6-2.9,1.4-5.2,2.4c-0.2,0.1-0.5,0.2-0.8,0.4c-0.1,0.1-0.3,0.1-0.4,0.2 c0.1,1.4,0.3,2.9,0.4,4.3c2.8,2.9,6,5.3,9.5,7.2c6,3.2,13.1,5,21.3,5.3c8.1-0.5,15.2-2.4,21.2-5.8c3.3-1.9,6.3-4.1,9.1-6.9 c0-0.2,0-0.4,0-0.6C2354.3,198.4,2354.3,197,2354.4,195.6z" fill="#FFD3C0" transform="translate(-2124.9 -32.4)"/></g></g></g></g><g><g><g><path d="M2285.6,199.2l-3.6,1.5c-5.6,10.2-11.1,22.7-16.3,37.3l10.9,10.4l-9.8,16c10.4,26,21.3,50.6,32.7,73.8 c0-2,0-4.1,0-6.1c-10.2-21.6-19.9-44.1-29.3-67.6l10.9-16.7l-11.9-10.4C2274.4,222.8,2279.9,210.1,2285.6,199.2 M2364.9,198.7 l-3.3-1c6,11.2,11.7,24.3,17,39.5l-11.9,10.4l10.9,16.7c-8.3,20.9-16.9,41-25.8,60.4c0,2.1,0,4.2,0,6.4 c10.1-21.1,19.9-43.4,29.3-66.8l-9.8-16l10.9-10.4C2376.8,222.4,2371,209.3,2364.9,198.7z" fill="#97B2E4" transform="translate(-2124.9 -32.4)"/></g></g></g><g><g><g><path d="M2275,541.1c-0.8,0.8-1.3,1.8-1.3,2.9c0,1.2,0.4,2.2,1.3,3c0.8,0.8,1.8,1.3,3,1.3s2.1-0.4,2.9-1.3 c0.8-0.8,1.2-1.8,1.2-3c0-1.1-0.4-2.1-1.2-2.9c-0.8-0.8-1.8-1.3-2.9-1.3C2276.8,539.9,2275.8,540.3,2275,541.1 M2281.2,478.6 c-1.1,0-2.1,0.4-2.9,1.2c-0.8,0.8-1.2,1.8-1.2,3s0.4,2.1,1.2,2.9c0.8,0.8,1.8,1.3,2.9,1.3c1.2,0,2.2-0.4,3-1.3 c0.8-0.8,1.3-1.7,1.3-2.9s-0.4-2.2-1.3-3C2283.4,479,2282.4,478.6,2281.2,478.6 M2289.1,422.5c0-1.2-0.4-2.1-1.3-2.9 c-0.8-0.8-1.8-1.2-2.9-1.2c-1.1,0-2.1,0.4-2.9,1.2c-0.8,0.8-1.2,1.8-1.2,2.9s0.4,2.1,1.2,2.9s1.8,1.2,2.9,1.3 c1.2,0,2.1-0.4,2.9-1.3C2288.7,424.6,2289.1,423.6,2289.1,422.5 M2289.5,366.3c0.8-0.8,1.3-1.8,1.3-2.9c0-1.2-0.4-2.2-1.3-3 c-0.8-0.8-1.8-1.2-2.9-1.2c-1.1,0-2.1,0.4-2.9,1.2c-0.8,0.8-1.2,1.8-1.2,3c0,1.1,0.4,2.1,1.2,2.9s1.8,1.3,2.9,1.3 C2287.8,367.6,2288.7,367.2,2289.5,366.3z" fill="#97B2E4" transform="translate(-2124.9 -32.4)"/></g></g></g><g><g><g transform="translate(-2124.9 -32.4)"><radialGradient xmlns:xlink="http://www.w3.org/1999/xlink" cx="119.975" cy="5535.795" gradientTransform="matrix(-.4277 -.9039 .6447 -.3051 -1317.114 1966.99)" gradientUnits="userSpaceOnUse" id="a" r="27.823" xlink:actuate="onLoad" xlink:show="other" xlink:type="simple"><stop offset=".326" stop-color="#fdb8bb"/><stop offset="1" stop-color="#ffd3c0"/></radialGradient><path d="M2195.2,195.6c0.6-1.6,2.2-4.2,4.6-7.6c2.4-3.4,2.5-6.2,0.3-8.5l-12.6,11.5l-1.4,2.6 c1.5,0.8,3.1,1.4,4.9,1.7C2192.7,195.6,2194.1,195.7,2195.2,195.6 M2199,178.1l0.2-0.1c0.8-2.6,0.8-4.3-0.2-5l-5.7,2.1 l-15.4,10.1c0.4,0.7,0.8,1.4,1.3,2.1c1.6,2.3,3.3,4.1,5.3,5.4l1.3-2.7L2199,178.1 M2192.7,173.4c0,0,0.1,0,0.1-0.1 c0.1,0,0.3,0,0.5-0.1l3.4-1.1c-1.2-2.3-3.1-3-5.9-2.2c-2.7,0.9-4.2,1.3-4.5,1.2s-1.4,0.3-3.5,1.1c-2.1,0.9-4.6,2.1-7.6,3.7 c0.2,2.5,0.7,4.8,1.6,7c0.1,0.1,0.1,0.1,0.1,0.2L2192.7,173.4z" fill="url(#a)"/><g><path d="M2200.1,179.5c-0.4-0.7-0.7-1.1-1.1-1.4l-13.3,11.9l-1.3,2.7l-3.2,6.5c0.3,1.4,1.2,1,2.6-1.2l2.3-4.3 l1.4-2.6L2200.1,179.5 M2196.7,172.2L2196.7,172.2l-3.4,1.1c-0.2,0-0.4,0.1-0.5,0.1s-0.1,0.1-0.1,0.1l-15.7,9.8l-0.6,0.4 c-1.1,0.9-1.9,1.9-2.4,3l-5.5,10.3c0.6,1.1,1.6,0.5,3-1.8l5-9l1.4-0.9l15.4-10.1l5.7-2.1 C2198.4,172.6,2197.7,172.3,2196.7,172.2z" fill="#EF9894"/></g><g><path d="M2147.6,188.1c-0.2,0.3-0.4,0.6-0.6,1c-2.3,3.9-4.8,5.8-7.5,5.9c-0.2,0-0.4,0-0.6,0 c1.1,1.5,2.3,2.8,3.3,4.1c5.8,6.9,10.1,12,12.9,15.4l-0.1-0.1c0.8,1.4,1.5,2.4,2,3c1.3,1.5,5.3,6.1,11.9,13.9 c6.6,7.8,11.1,12.6,13.6,14.6l6.4,20.6l30.1-0.9l-1.4-6.4l-7.5-23.8c-0.2-5.1-0.9-8.9-2.1-11.5c-4.5-5.1-7.8-8.8-10-11.2 c-2.9-3.4-4.4-5.7-4.6-7.1c0-3.3,0.6-6.6,1.8-10c-1.1,0.1-2.5,0-4.3-0.3c-1.7-0.3-3.4-0.9-4.9-1.7l-2.3,4.3 c-1.4,2.2-2.3,2.6-2.6,1.2l3.2-6.5c-2-1.3-3.7-3.1-5.3-5.4c-0.4-0.7-0.9-1.4-1.3-2.1l-1.4,0.9l-5,9c-1.4,2.3-2.4,2.9-3,1.8 l5.5-10.3c0.5-1.1,1.3-2.1,2.4-3l0.6-0.4c0-0.1-0.1-0.1-0.1-0.2c-0.9-2.2-1.4-4.5-1.6-7c-3.6,2-6.3,4.2-8.1,6.7l-5.2,8.7 l-2.8,9.5l-8.3-8.8l0.3,0.3c-0.2-0.3-0.5-0.5-0.7-0.8C2149.6,190.3,2148.6,189.2,2147.6,188.1z" fill="#FFD3C0"/></g><radialGradient xmlns:xlink="http://www.w3.org/1999/xlink" cx="-666.256" cy="5025.025" gradientTransform="matrix(-.6396 -.7687 .4989 -.4157 -804.638 1753.299)" gradientUnits="userSpaceOnUse" id="b" r="19.367" xlink:actuate="onLoad" xlink:show="other" xlink:type="simple"><stop offset=".326" stop-color="#fdb8bb"/><stop offset="1" stop-color="#ffd3c0"/></radialGradient><path d="M2142.7,183c-3.5-4.1-7.1-7.4-10.8-9.8c-3.4-0.7-5.6-0.2-6.7,1.6c-0.4,0.6-0.3,1.3,0.1,2.2 c1,1.4,2.4,3.2,4,5.3c1.5,2.1,3,4.1,4.4,6c1.8,2.4,3.5,4.7,5.2,6.8c0.2,0,0.4,0,0.6,0c2.7,0,5.2-2,7.5-5.9 c0.2-0.4,0.4-0.7,0.6-1C2146,186.3,2144.3,184.6,2142.7,183z" fill="url(#b)"/></g></g></g><g><g><g><g><path d="M2229.4,237.2l-1.5,3.8l37.7,110.2c3.2,16.8-3.6,29-20.4,36.5c-6.3,1.4-12.1,1.4-17.6,0.1 c-0.6-0.2-1.2-0.3-1.8-0.4c0.8,0.3,1.6,0.6,2.5,0.9c0.8,0.3,1.6,0.5,2.4,0.8c5.5,1.3,11.4,1.2,17.8-0.1 c16.8-7.5,23.6-19.7,20.4-36.5L2229.4,237.2z" fill="#97B2E4" transform="translate(-2124.9 -32.4)"/></g><g><path d="M2227.9,241l-3.3-9.6L2175,253l26.9,115.7c6.7,9.5,14.3,15.7,22.9,18.4c0.3,0.1,0.6,0.2,0.9,0.3 c0.6,0.1,1.1,0.3,1.8,0.4c5.5,1.3,11.4,1.2,17.6-0.1c16.8-7.5,23.6-19.7,20.4-36.5L2227.9,241z" fill="#FFF" transform="translate(-2124.9 -32.4)"/></g></g></g></g><g><g><g><path d="M2398,430.5c5.8-0.6,11.6-1.3,17.2-2c-0.1-0.7-0.2-1.5-0.3-2.2c-10.2,1.4-20.6,2.6-31.3,3.6 c-2.1,0.3-3.1,1.5-2.9,3.5l0.8,8.8c0.1,1.5,0.7,2.4,1.9,2.7l1.8,20.3v0.2l0.9,10.5c0.8,5,3.6,7.5,8.2,7.4c3-0.3,6-0.6,9-0.9 c5.9-0.7,11.7-1.4,17.3-2.2v-0.1c0.3,0,0.5-0.1,0.8-0.1c-0.1-0.7-0.1-1.3-0.2-2c-0.8,0.1-1.6,0.3-2.4,0.3v0.1 c-5.3,0.7-10.8,1.4-16.4,1.9c-0.3,0-0.6,0-0.9,0.1h-0.6c-2.2,0.3-4.1,0.5-5.8,0.6c-4.3-0.4-6.6-2.3-6.8-5.8l-0.8-9.5l-0.1-0.2 l-1.8-20.7c10.8-0.9,21.2-2,31.1-3.4c-0.1-0.7-0.2-1.3-0.3-2c-5.7,0.8-11.6,1.5-17.7,2c-6.3,0.7-10.4,1.1-12.4,1.3 c-0.4,0-0.7,0-0.9,0c-1-0.2-1.5-0.9-1.6-2.1l-0.5-6.2c-0.2-1.6,0.5-2.5,2.1-2.7C2387.6,431.7,2391.7,431.2,2398,430.5 M2263.2,434.5l-0.5,6.2c-0.1,1.2-0.7,1.9-1.6,2.1c-0.3,0-0.6,0-0.9,0c-2-0.1-6.2-0.6-12.4-1.3c-6.1-0.5-12-1.2-17.7-2 c-0.1,0.6-0.1,1.3-0.3,2c9.9,1.4,20.3,2.5,31.1,3.4l-1.8,20.7l-0.1,0.2l-0.8,9.5c-0.2,3.5-2.5,5.5-6.8,5.8 c-1.7-0.2-3.6-0.4-5.8-0.6h-0.6c-0.3-0.1-0.6-0.1-0.9-0.1c-5.6-0.5-11.1-1.2-16.4-1.9v-0.1c-0.8-0.1-1.6-0.2-2.4-0.3 c-0.1,0.7-0.1,1.3-0.2,2c0.3,0,0.5,0.1,0.8,0.1v0.1c5.6,0.8,11.4,1.5,17.3,2.2c3,0.3,6,0.6,9,0.9c4.6,0.1,7.4-2.4,8.2-7.4 l0.9-10.5v-0.2l1.8-20.3c1.1-0.3,1.8-1.2,1.9-2.7l0.8-8.8c0.2-2.1-0.8-3.3-2.9-3.5c-10.7-1-21.1-2.2-31.3-3.6 c-0.1,0.7-0.2,1.4-0.3,2.2c5.6,0.7,11.4,1.4,17.2,2c6.3,0.7,10.4,1.1,12.4,1.3C2262.7,432,2263.4,432.9,2263.2,434.5z" fill="#97B2E4" transform="translate(-2124.9 -32.4)"/></g></g></g><g><g><g><g><path d="M2273.7,274c-0.1,0-0.3,0-0.5,0s-0.4,0-0.7,0c-0.8,0.1-1.5,0.2-2.3,0.4c-0.2,0-0.4,0.1-0.6,0.1 c-2.4,0.6-4.5,1.9-6.4,3.8c-2.9,2.8-4.3,6.2-4.3,10.1c0,4,1.4,7.3,4.3,10c2.8,2.9,6.1,4.3,10,4.3c4,0,7.4-1.4,10.3-4.3 c2.8-2.7,4.2-6,4.2-10s-1.4-7.4-4.2-10.1c-1.9-1.9-4.1-3.1-6.5-3.7c-0.3-0.1-0.7-0.2-1.1-0.3 C2275.2,274.2,2274.5,274.1,2273.7,274 M2273.3,280.9c0.5,0,0.9,0,1.3,0.1c0.2,0,0.4,0,0.6,0.1c1.2,0.3,2.3,0.9,3.3,1.9 c1.4,1.5,2.1,3.3,2.1,5.3c0,2.1-0.7,3.8-2.1,5.2c-1.5,1.5-3.2,2.2-5.3,2.2c-2,0-3.8-0.7-5.3-2.2c-1.5-1.4-2.2-3.1-2.2-5.2 c0-2,0.7-3.8,2.2-5.3c1.3-1.3,2.9-2,4.9-2.1C2273,280.9,2273.2,280.9,2273.3,280.9z" fill="#B4C7D8" transform="translate(-2124.9 -32.4)"/></g><g><path d="M2274.6,281c-0.4-0.1-0.8-0.1-1.3-0.1c-0.2,0-0.3,0-0.4,0c-1.9,0.1-3.5,0.8-4.9,2.1 c-1.5,1.5-2.2,3.3-2.2,5.3c0,2.1,0.7,3.8,2.2,5.2c1.5,1.5,3.2,2.2,5.3,2.2c2,0,3.8-0.7,5.3-2.2c1.4-1.4,2.1-3.1,2.1-5.2 c0-2-0.7-3.8-2.1-5.3c-1-1-2.1-1.6-3.3-1.9C2275.1,281.1,2274.8,281,2274.6,281z" fill="#D8E7F4" transform="translate(-2124.9 -32.4)"/></g><g><path d="M2301.4,182.6c-0.1,0-0.1,0.1-0.2,0.1c-23.9,14.7-34.4,43.5-31.5,86.5c0,0.3,0.1,0.6,0.1,0.9l0.4,4.3 c0.7-0.2,1.5-0.3,2.3-0.4c0.2,0,0.4,0,0.7,0l-0.2-3.3c0-0.6-0.1-1.1-0.1-1.7c-2.7-40.2,6.6-67.7,27.9-82.3 c0-0.2,0.1-0.4,0.1-0.6c0-0.5,0.1-1,0.3-1.5c0-0.3,0.1-0.7,0.1-1C2301.4,183.3,2301.4,183,2301.4,182.6 M2358.4,194.9 c1,1.1,1.9,2.2,2.8,3.5c6.5,8.5,12.1,20.4,16.7,35.9c-4.2,1.3-6.8,4.6-7.9,9.9c-1.2,5.6-0.4,13.7,2.3,24.2 c0-0.4,0.1-0.7,0.3-1.1s0.6-0.6,1-0.6c0.4-0.1,0.8,0,1.2,0.2c0.3,0.2,0.5,0.4,0.6,0.8c-2.5-9.9-3.3-17.5-2.2-22.8 c0.9-4.6,3.3-7.2,7.3-7.9c10,0.3,15.6,10,16.8,29.3c0,0.1,0,0.2,0.1,0.4c0-0.4,0.1-0.7,0.4-1c0.3-0.4,0.6-0.6,1-0.6 c0.5,0,0.9,0.1,1.2,0.4c0.3,0.2,0.4,0.5,0.5,0.8v-0.1c-1.4-21.2-7.8-31.9-19.2-32.3c-4.9-16.5-10.9-29.2-18-38.1 c-0.5-0.7-1.1-1.3-1.6-1.9c-4.1-4.5-8.4-7.7-13.1-9.6c-1.9-0.8-3.9-1.4-5.9-1.6c0.2,1.1,0.4,2.2,0.6,3.2 C2348.7,187,2353.8,190.1,2358.4,194.9z" fill="#182647" transform="translate(-2124.9 -32.4)"/></g><g><path d="M2375.3,267.5c-0.1-0.3-0.4-0.6-0.6-0.8c-0.3-0.2-0.7-0.3-1.2-0.2c-0.4,0.1-0.8,0.3-1,0.6 c-0.2,0.3-0.3,0.7-0.3,1.1v0.1c3.5,17.7,8.2,29.9,14.1,36.4c0.2,0.2,0.3,0.4,0.4,0.5c-4.6,2.8-10.8,3.6-18.4,2.3 c-0.1-0.8-0.4-1.5-0.9-2.1c-0.5-0.5-1-0.8-1.6-0.9c-0.1-0.1-0.3-0.1-0.4-0.1c-0.2,0-0.4,0-0.6,0c-0.1,0-0.2,0-0.2,0 c-0.9,0-1.7,0.4-2.3,1c-0.7,0.7-1.1,1.5-1.1,2.5s0.3,1.8,1.1,2.5c0.7,0.7,1.5,1,2.5,1c0.9,0,1.7-0.3,2.3-0.9 c9.3,1.6,16.6,0.6,22-3.1c5.1,4,10.9,4.5,17.6,1.3c0.5,0.3,1.1,0.5,1.7,0.5c1,0,1.9-0.4,2.6-1c0.7-0.7,1-1.5,1-2.5 s-0.3-1.8-1-2.5c-0.5-0.5-1-0.8-1.6-0.9c-0.1,0-0.2-0.1-0.3-0.1c-0.2,0-0.4,0-0.7,0h-0.1c-0.9,0-1.6,0.4-2.3,1 c-0.7,0.7-1.1,1.5-1.1,2.5c0,0.2,0,0.3,0,0.5c-4.9,2.2-9.3,1.9-13.3-0.8c0.8-0.8,1.5-1.6,2.2-2.5c5.8-7.3,8-19.5,6.5-36.8 c0-0.1,0-0.2-0.1-0.3c-0.1-0.3-0.2-0.6-0.5-0.8c-0.3-0.3-0.7-0.4-1.2-0.4c-0.4,0-0.8,0.2-1,0.6c-0.3,0.3-0.4,0.6-0.4,1v0.1 c1.3,16.2-0.6,27.7-5.8,34.6c-0.6,0.8-1.3,1.5-2.1,2.3c-0.3-0.2-0.5-0.5-0.7-0.8c-5.5-6.3-9.9-17.9-13.3-34.9 C2375.4,267.7,2375.4,267.7,2375.3,267.5L2375.3,267.5z" fill="#8D94A4" transform="translate(-2124.9 -32.4)"/></g></g></g></g><g><g><g><g><path d="M2520.9,270.2c0.2-2-0.7-3-2.7-3.3c-27.5-7.8-54.8-10.4-81.8-7.9L2424,394.3c27.4-3.4,54.6-0.7,81.8,8.1 c2,0.2,3-0.8,3.2-2.8L2520.9,270.2 M2348.9,251.4c-2-0.2-3.1,0.7-3.3,2.7l-12,129.5c-0.2,2,0.7,3.1,2.7,3.3 c27.3-3.3,55-0.9,83.1,7.3c0.3,0.1,0.6,0.2,1,0.3l12.5-135.4c-0.3-0.1-0.7-0.2-1-0.3C2403.9,250.3,2376.2,247.9,2348.9,251.4z" fill="#4C80E7" transform="translate(-2124.9 -32.4)"/></g><g><path d="M2434.2,259.3c-0.4-0.1-0.9-0.3-1.3-0.4l-12.5,135.4c0.4,0.1,0.9,0.2,1.3,0.4c0.7-0.1,1.5-0.2,2.2-0.3 l12.4-135.3C2435.7,259.2,2434.9,259.2,2434.2,259.3z" fill="#3866C3" transform="translate(-2124.9 -32.4)"/></g></g></g></g><g><g><g><path d="M2473.4,292.8c-6.3-0.7-11.9,1-16.9,5c-5,3.9-7.8,9-8.6,15.3c-0.7,6.3,0.9,11.9,4.9,17 c3.9,4.9,9,7.7,15.4,8.5c6.3,0.7,11.9-0.9,17-4.8c4.9-4,7.7-9.1,8.4-15.5c0.7-6.3-0.9-11.9-4.8-16.9 C2484.9,296.5,2479.8,293.6,2473.4,292.8 M2459.1,300.8c4.1-3.2,8.7-4.6,13.9-4s9.4,3,12.8,7.1c3.2,4.1,4.6,8.8,4,13.9 c-0.6,5.2-3,9.5-7.1,12.8c-4.1,3.2-8.8,4.5-13.9,4c-5.2-0.6-9.4-2.9-12.7-7s-4.6-8.8-4-14 C2452.5,308.4,2454.9,304.1,2459.1,300.8 M2468.2,302.8c-0.8-0.1-1.3,0.3-1.4,1.2l-0.6,5.6l-5.7-0.6c-0.9-0.1-1.3,0.3-1.4,1.1 l-0.9,8.2c-0.1,0.9,0.3,1.3,1.1,1.4l5.7,0.7l-0.7,5.7c-0.1,0.9,0.3,1.4,1.1,1.5l8.3,0.9c0.8,0.1,1.3-0.3,1.4-1.1l0.6-5.8 l5.7,0.6c0.9,0.1,1.4-0.3,1.5-1.2l0.9-8.2c0.1-0.9-0.3-1.3-1.1-1.4l-5.7-0.6l0.7-5.8c0.1-0.9-0.3-1.3-1.2-1.4L2468.2,302.8z" fill="#98BAFF" transform="translate(-2124.9 -32.4)"/></g></g></g><g><g><g transform="translate(-2124.9 -32.4)"><linearGradient xmlns:xlink="http://www.w3.org/1999/xlink" gradientTransform="translate(-4249.8 -1245.72)" gradientUnits="userSpaceOnUse" id="c" x1="6684.106" x2="6690.606" xlink:actuate="onLoad" xlink:show="other" xlink:type="simple" y1="1594.68" y2="1619.88"><stop offset=".326" stop-color="#fdb8bb"/><stop offset="1" stop-color="#ffd3c0"/></linearGradient><path d="M2427.4,377.6c-0.2-6.1,0-11.6,0.7-16.6c-4.6,1.6-7.5,7.7-8.8,18.4 C2422.3,378.9,2425,378.3,2427.4,377.6 M2436.3,353.6c-1.1-0.2-2.1-0.1-3.1,0.4c-1.2,0.6-2.1,1.9-2.8,4 c-0.2,1.9-0.3,3.4-0.4,4.5c-0.4,3.5-0.6,8.5-0.6,15c1.6-0.3,3.1-0.6,4.5-0.9c1.8-0.3,3.5-0.6,5.1-0.9L2436.3,353.6 M2451.8,351.2c-2.6-1.7-4.3-1.4-4.9,0.8l7.3,20.5c3.6-1,6.4-1.9,8.4-2.8C2458.3,360.7,2454.7,354.6,2451.8,351.2 M2437.8,352.4 c0,0.1,0.1,0.3,0.1,0.4c1,7.9,2,15.5,3.1,22.6c4.4-0.9,8.1-1.8,11.2-2.6l-6.2-17.1C2442.7,349.2,2440,348.1,2437.8,352.4z" fill="url(#c)"/><g><path d="M2430.5,358.1c-0.3,0.8-0.5,1.6-0.7,2.5c-0.6,0.1-1.1,0.2-1.6,0.4c-0.7,5-0.9,10.5-0.7,16.6l0.3,5.2 c0.8,2.2,1.4,2.7,1.8,1.5c0-2.4,0-4.6,0-6.7c0-6.5,0.2-11.5,0.6-15C2430.2,361.5,2430.3,360,2430.5,358.1 M2446.5,356.8 c-0.2-0.4-0.4-0.7-0.6-1.1l6.2,17.1l2.4,7c1.1,2.2,1.9,2.6,2.5,1.3l-3.1-8.7l-7.3-20.5C2446.5,353.1,2446.4,354.7,2446.5,356.8 M2436.5,353.6c-0.1,0-0.2,0-0.3,0l2.8,22.2l0.8,6.6c0.2,0.8,0.6,1.6,1.1,2.4c0.5,0.7,1,0.6,1.4-0.4c-0.5-2.9-1-6-1.4-9 c-1.1-7.1-2.1-14.7-3.1-22.6c0-0.1-0.1-0.3-0.1-0.4c-0.2,0.4-0.4,0.9-0.6,1.4c0,0,0,0-0.1,0 C2436.9,353.8,2436.7,353.7,2436.5,353.6z" fill="#EF9894"/></g><g><path d="M2454.6,379.8l-2.4-7c-3.1,0.8-6.8,1.6-11.2,2.6c0.4,3.1,0.9,6.1,1.4,9c-0.5,0.9-0.9,1-1.4,0.4 c-0.5-0.8-0.9-1.6-1.1-2.4l-0.8-6.6c-1.6,0.3-3.3,0.6-5.1,0.9c-1.4,0.3-2.9,0.6-4.5,0.9c0,2.1,0,4.3,0,6.7 c-0.4,1.2-1,0.7-1.8-1.5l-0.3-5.2c-2.4,0.7-5.1,1.2-8.1,1.8c-0.3,2.7-0.5,5.7-0.6,9.1c-1.2,2.9-3.1,5.5-5.7,8 c2.5,2.2,7,4,13.4,5.5c10.1,2.3,17.5,2.3,22.3-0.1c4.9-2.4,9.6-4.4,14.3-6.3s7-4.9,6.8-9c-2.6-6.5-5-12.1-7.3-16.9 c-2,0.9-4.8,1.8-8.4,2.8l3.1,8.7C2456.5,382.5,2455.7,382,2454.6,379.8z" fill="#FFD3C0"/></g></g></g></g><g><g><g><path d="M2370.8,104.8l-0.1-0.9c-7.2,0.2-14.4,0.2-21.6,0.1c-0.5-4.2-1.4-8.2-2.8-12.1l-2.2,11.9 c-19.7-0.5-39.5-2-59.2-4.6c-0.6-0.2-1.3-0.4-1.9-0.6l-1.8,11.9c-0.1,0.1-0.1,0.2-0.1,0.3c-0.8-1.1-1.6-2-2.4-2.6 c-1.6-1.1-3.1-1.7-4.5-1.8c-2.7-0.2-5.2,1-7.3,3.7c-1.7,2.2-2.7,5-3,8.3c-0.4,3.3,1.5,8.2,5.6,14.5c4.1,6.5,8.3,9.8,12.8,10 c1.7,5.9,4.3,11.4,7.7,16.6c1,1.5,2,3,3.1,4.3c3.4,4.2,7.2,7.6,11.4,10.1c5,3,10.5,4.8,16.6,5.3c6.3,0.6,12.3-0.2,17.9-2.4 c4.3-1.8,8.4-4.4,12.3-7.8c1.3-1.1,2.6-2.3,3.9-3.6c4.3-4.4,7.8-9.4,10.5-15c4-0.1,8.3-2.7,12.9-7.6c5.2-5.6,7.9-10,8.1-13.3 c0.3-3.3-0.3-6.2-1.6-8.6c-1.5-3-3.7-4.6-6.4-4.9c-1.5-0.1-3.1,0.2-4.9,0.9c-0.6,0.3-1.3,0.8-2,1.5l-1.1-13.8 C2370.9,104.7,2370.9,104.8,2370.8,104.8z" fill="#FFD7C5" transform="translate(-2124.9 -32.4)"/></g></g></g><g><g><g><g><path d="M2280.5,119.3C2280.5,119.3,2280.5,119.2,2280.5,119.3c-0.6-1.6-1.7-3-3.1-4.4c-0.3-0.3-0.7-0.4-1.1-0.4 c-0.5,0-0.9,0.1-1.2,0.4c-0.3,0.3-0.4,0.7-0.4,1.1c0,0.4,0.2,0.8,0.6,1.1c1.1,1.1,1.8,2.2,2.3,3.3c0.3,0.9,0.5,1.6,0.6,1.9 l-0.1,0.1c-0.1,0.3-0.6,1-1.3,1.9c-1.4,1.7-2.1,2.9-2,3.6c-0.1,1.3,0.3,2.6,1.3,3.7h0.1c0.3,0.4,0.7,0.7,1.1,1.1 c0.3,0.2,0.7,0.3,1.1,0.3c0.4,0,0.8-0.2,1.2-0.6c0.3-0.4,0.3-0.7,0.3-1.1c0-0.5-0.2-0.8-0.5-1.1s-0.5-0.5-0.8-0.8l0,0 c-0.4-0.4-0.6-0.8-0.6-1.3c0.1-0.3,0.6-0.9,1.4-1.9v-0.1c1.2-1.6,1.8-2.7,1.9-3.3S2281.1,121,2280.5,119.3 M2376.6,124.1 c-0.3-0.4-0.6-0.6-1.1-0.7c-0.4-0.1-0.8,0-1.2,0.2c-1.7,1.2-3,2.4-3.9,3.8c0,0-0.1,0-0.1,0.1c-0.9,1.6-1.3,2.8-1.3,3.5 c-0.1,0.6,0.3,1.9,1.3,3.6c0,0,0,0.1,0.1,0.1c0.6,1.1,0.9,1.8,1,2.1c-0.1,0.4-0.4,0.7-0.8,1v0.1c-0.4,0.2-0.7,0.4-1,0.6 c-0.4,0.2-0.6,0.5-0.8,0.9c-0.1,0.4,0,0.8,0.2,1.3c0.2,0.4,0.5,0.7,1,0.8c0.4,0.1,0.8,0,1.2-0.2s0.8-0.5,1.2-0.8 c1.3-1,1.9-2.1,2.1-3.4c0.1-0.7-0.3-2-1.4-3.9c-0.5-1.1-0.8-1.9-0.8-2.2s0.3-0.9,0.8-1.8c0.6-1,1.6-2,2.9-2.8 c0.4-0.2,0.6-0.6,0.6-1C2376.9,124.9,2376.8,124.5,2376.6,124.1z" fill="#F39381" transform="translate(-2124.9 -32.4)"/></g><g><path d="M2304,116.4c-1.1,1.6-1.7,3.6-1.9,6c-0.2,2.5,0.1,4.6,0.9,6.4c0.9,1.8,2,2.8,3.3,2.9 c1.3,0.1,2.5-0.6,3.6-2.3c1.2-1.6,1.8-3.6,2.1-6.1c0.2-2.4-0.1-4.6-0.9-6.4c-0.8-1.8-1.8-2.7-3.1-2.8 C2306.5,114.1,2305.2,114.8,2304,116.4 M2311.6,105.9c-7.1-2.3-13-1.7-17.6,2c9.7-2.2,17.3-1,22.6,3.6 C2316.4,109.1,2314.8,107.3,2311.6,105.9 M2359.8,111.6c-4.2-4.2-9.9-5.5-17.3-3.9c-3.3,1-5.1,2.7-5.6,4.9 C2342.8,108.7,2350.4,108.4,2359.8,111.6 M2341.2,126c-0.2,2.4,0.1,4.6,0.8,6.4c0.8,1.8,1.9,2.7,3.3,2.8 c1.3,0.1,2.5-0.6,3.6-2.3c1.2-1.6,1.9-3.6,2.1-6c0.2-2.4-0.1-4.5-0.9-6.4c-0.8-1.8-1.8-2.7-3.1-2.9c-1.4-0.1-2.6,0.7-3.8,2.3 C2342.1,121.7,2341.5,123.7,2341.2,126z" fill="#18244C" transform="translate(-2124.9 -32.4)"/></g><g><path d="M2316.1,154.3c1.8,0.6,3.8,1,5.9,1.3c0.6,0,1.2,0.1,1.8,0.2c0.3,0,0.6,0,1,0.1c0.3,0,0.6,0,0.9,0 c5.8,0,10.1-1.1,13-3.3c0.4-0.4,0.6-0.9,0.9-1.4c0-0.7-0.2-0.9-0.8-0.8c-1.7,0.8-3.6,1.4-5.6,1.8c-5.9,1.3-11.9,0.9-17.8-1.3 l-0.9-0.4c-1.9-0.7-3.5-1.6-5-2.7c-0.9-0.4-1.3-0.1-1.1,0.9c0.1,0.4,0.3,0.7,0.5,1.1C2310.2,151.9,2312.7,153.4,2316.1,154.3 M2327.3,127c0.3,1.2,0.7,2.9,1.4,5.1c0.8,3.2,1.2,5.3,1.3,6.2c-0.1,1.6-0.9,3.5-2.6,5.9c-0.7,1-1.3,1.8-1.8,2.4 c1.1-0.1,2.6-0.9,4.6-2.4s3-3.2,3.1-5.1C2333.3,137.3,2331.3,133.2,2327.3,127z" fill="#FA8E79" transform="translate(-2124.9 -32.4)"/></g></g></g></g><g><g><g transform="translate(-2124.9 -32.4)"><radialGradient xmlns:xlink="http://www.w3.org/1999/xlink" cx="6263.884" cy="844.031" gradientTransform="matrix(.9959 .09027 -.09027 .9959 -3867.59 -1265.827)" gradientUnits="userSpaceOnUse" id="d" r="12.877" xlink:actuate="onLoad" xlink:show="other" xlink:type="simple"><stop offset=".318" stop-color="#fdb8bb"/><stop offset=".988" stop-color="#fdb8bb" stop-opacity="0"/></radialGradient><path d="M2304.1,132.1c-2.2-2.6-5.1-4.1-8.5-4.4c-3.4-0.3-6.4,0.6-9.1,2.8c-2.6,2.2-4.1,5-4.4,8.5 c-0.2,1.4-0.1,2.7,0.1,3.9c0.3,1.2,0.8,2.3,1.4,3.3c0.3,0.7,0.8,1.3,1.3,1.8c2.2,2.7,5,4.2,8.5,4.6c3.4,0.3,6.5-0.7,9.1-2.9 c2.7-2.2,4.2-5,4.5-8.4C2307.4,137.8,2306.4,134.8,2304.1,132.1z" fill="url(#d)"/><radialGradient xmlns:xlink="http://www.w3.org/1999/xlink" cx="6263.884" cy="844.031" gradientTransform="matrix(.9959 .09027 -.09027 .9959 -3892.04 -1297.377)" gradientUnits="userSpaceOnUse" id="e" r="12.878" xlink:actuate="onLoad" xlink:show="other" xlink:type="simple"><stop offset=".318" stop-color="#fdb8bb"/><stop offset=".988" stop-color="#fdb8bb" stop-opacity="0"/></radialGradient><path d="M2278.9,108.2c-1.6-1.1-3.1-1.7-4.5-1.8c-2.7-0.3-5.2,0.9-7.3,3.6c-1.7,2.2-2.7,5-3,8.3 c-0.1,0.4-0.1,0.8-0.1,1.3c1.4,0.8,3,1.3,4.8,1.5c3.4,0.3,6.5-0.7,9.2-3c2.6-2.2,4.1-5,4.4-8.5c0.1-1.3,0.1-2.5-0.2-3.7 c-0.4,1.5-0.8,3.1-1.1,4.8C2280.5,109.7,2279.7,108.8,2278.9,108.2z" fill="url(#e)"/><radialGradient xmlns:xlink="http://www.w3.org/1999/xlink" cx="6263.884" cy="844.031" gradientTransform="scale(.99998) rotate(5.179 12338.64 -42402.07)" gradientUnits="userSpaceOnUse" id="f" r="12.878" xlink:actuate="onLoad" xlink:show="other" xlink:type="simple"><stop offset=".318" stop-color="#fdb8bb"/><stop offset=".988" stop-color="#fdb8bb" stop-opacity="0"/></radialGradient><path d="M2386.4,131.5c0.3-0.7,0.4-1.3,0.4-2c0.3-3.3-0.3-6.1-1.6-8.6c-1.5-3-3.7-4.6-6.4-4.9 c-1.5-0.1-3.1,0.2-4.8,0.9c-0.6,0.3-1.2,0.8-1.9,1.3c-0.3,3.3,0.7,6.3,2.9,8.9c2.2,2.7,5.1,4.2,8.5,4.4 C2384.6,131.6,2385.5,131.6,2386.4,131.5z" fill="url(#f)"/><radialGradient xmlns:xlink="http://www.w3.org/1999/xlink" cx="6263.865" cy="844.021" gradientTransform="matrix(.9959 .09027 -.09027 .9959 -3807.49 -1260.377)" gradientUnits="userSpaceOnUse" id="g" r="12.898" xlink:actuate="onLoad" xlink:show="other" xlink:type="simple"><stop offset=".318" stop-color="#fdb8bb"/><stop offset=".988" stop-color="#fdb8bb" stop-opacity="0"/></radialGradient><path d="M2346.6,136c-2.7,2.2-4.2,5-4.5,8.5c-0.3,3.4,0.7,6.4,2.9,9.2c2.2,2.6,5,4.1,8.4,4.4 c3.4,0.3,6.5-0.7,9.2-2.9c0.5-0.5,1-1,1.5-1.5c0.9-1,1.5-2.1,2-3.3c0.5-1.1,0.8-2.4,0.9-3.7c0.3-3.5-0.7-6.5-2.9-9.2 c-2.3-2.6-5.1-4-8.5-4.3C2352.3,132.9,2349.3,133.8,2346.6,136z" fill="url(#g)"/></g></g></g></g></svg>