<svg xmlns="http://www.w3.org/2000/svg" xmlns:xlink="http://www.w3.org/1999/xlink" height="717.1" preserveAspectRatio="xMidYMid meet" version="1.0" viewBox="-1.6 -1.3 567.6 717.1" width="567.6" zoomAndPan="magnify"><g><g><g><g transform="matrix(1.43237 0 0 1.43237 -1874.15 1439.6)"><g><path d="M1461.6-753.4l-2.7,3.5l3.6,3.9c2.4,2.6,4.4,4.9,6,6.9s3.9,5.4,6.8,10.2c-1.2-5.1-3.1-9.8-5.9-14.4 C1467.3-747.1,1464.6-750.4,1461.6-753.4 M1569.1-598.9c0,0.2-0.1,0.4-0.1,0.6c-0.1,1.7-0.1,3.7-0.2,5.9 c-0.1,0.6-0.1,1.2-0.2,1.9c0,0.3,0,0.6,0,1c0.1,4.8,0.8,9.2,2,13c1.6,4.7,4.1,8.4,7.5,11c2.5,2,5.7,3.4,9.5,4.2 c2.5,0.6,6,1,10.4,1.3c2.6,0.2,5.1,0.3,7.6,0.4c4.9,0.1,9.6,0.1,14,0c3-0.1,5.8-0.2,8.6-0.4c1.4-0.1,2.8-0.2,4.2-0.3 c2.3-0.3,4.6-0.5,6.9-0.9c7.1-0.9,12-3,15-6.1c1.9-2.1,3.1-4.9,3.7-8.2c0.4-2.5,0.4-5.7,0.2-9.6c-0.1-1.9-0.3-4-0.6-6.1 c-0.1-0.4-0.1-0.8-0.2-1.2c-0.1-0.7-0.2-1.4-0.4-2.1l-2,2.5c0.3,2,0.4,3.9,0.6,5.8c0.2,3.7,0.1,6.8-0.2,9.1 c-0.5,3.2-1.7,5.8-3.5,7.7c-2.8,3-7.5,5-14.2,5.9c-2.1,0.3-4.3,0.5-6.5,0.8l-1.8,2.2l-8.2,0.3l-2.1-1.8c-4.4,0.1-9,0.1-13.8-0.1 c-2.2-0.1-4.4-0.2-6.7-0.3c-4.3-0.3-7.6-0.7-9.9-1.2c-3.7-0.8-6.7-2.2-9-4c-3.2-2.4-5.6-5.9-7.1-10.5c-1.1-3.4-1.7-7.2-1.8-11.5 l15.2-0.5l-3.1-2.7l-12,0.4c0.1-2.3,0.1-4.4,0.2-6.2C1570.3-598.8,1569.6-598.8,1569.1-598.9 M1539.1-563.2 c0.8-0.7,1.1-1.6,1.1-2.7c0-1.1-0.4-2-1.1-2.7c-0.8-0.8-1.7-1.1-2.7-1.1s-2,0.4-2.7,1.1c-0.8,0.8-1.1,1.7-1.1,2.7 c0,1.1,0.4,2,1.1,2.7c0.8,0.8,1.7,1.2,2.7,1.2C1537.5-562,1538.4-562.4,1539.1-563.2 M1539.1-620c0.8-0.8,1.1-1.6,1.1-2.7 c0-1-0.4-2-1.1-2.8c-0.8-0.7-1.7-1.1-2.7-1.1s-2,0.4-2.7,1.1c-0.8,0.8-1.1,1.8-1.1,2.8s0.4,1.9,1.1,2.7c0.8,0.8,1.7,1.2,2.7,1.2 C1537.5-618.8,1538.4-619.2,1539.1-620 M1514.5-604c-8.5-2.7-17.3-5.1-26.3-7.2c-0.2,0.8-0.4,1.6-0.5,2.4 c8.2,1.9,16.2,4.1,23.9,6.6c-0.1,2-0.4,6.5-0.8,13.3l-26.3-5.9c-0.2,1-0.4,1.9-0.6,2.9l26.6,6.6c-0.1,2.5-0.3,5.2-0.5,8.2 s-0.5,5.4-1,7c-0.8,2.5-2,4.4-3.7,5.5c-2.5,1.8-6.3,2.1-11.5,0.9c-4.7-1.1-9.2-2.7-13.7-4.6c-0.1,0.8-0.2,1.5-0.3,2.3 c6.6,3.2,13.7,5.3,21.2,6.1c2.3,0.2,4.2,0.2,5.6-0.1c2-0.4,3.6-1.2,4.7-2.4c0.8-0.9,1.3-2.1,1.7-3.6c0.3-0.9,0.5-2.2,0.6-4 c0.3-4.9,0.5-9.8,0.6-14.4C1514.6-591.1,1514.6-597.7,1514.5-604 M1528.2-639.3c-0.1,0.1-0.1,0.2-0.1,0.3 c-2,30.8-2.7,59.2-1.9,85l2.4-2.9v-0.1c-0.5-27,0-53.9,1.4-80.8L1528.2-639.3 M1539.5-684.7c0.1,0.1,0.2,0.2,0.3,0.3l5-5.9 c-0.7-0.6-1.6-0.9-2.5-0.9c-1,0-2,0.4-2.7,1.1c-0.7,0.8-1.1,1.7-1.1,2.7C1538.4-686.3,1538.7-685.4,1539.5-684.7 M1633.1-772.2 c-0.8,3.6-0.9,7.9-0.2,12.7c0.3,2.4,1.2,6.7,2.7,13c1.8,7,3.4,14.2,4.8,21.5c0.7-3,1.6-6.1,2.6-9.2L1633.1-772.2 M1549.4-725 c0.8-0.8,1.2-1.6,1.2-2.7c0-1.1-0.4-2-1.2-2.8c-0.8-0.7-1.6-1.1-2.7-1.1c-1,0-2,0.4-2.7,1.1c-0.7,0.8-1.1,1.7-1.1,2.8 c0,1,0.4,1.9,1.1,2.7c0.8,0.8,1.7,1.2,2.7,1.2S1548.6-724.2,1549.4-725 M1630.6-847.2c-1-0.4-1.9-0.7-2.8-1 c0.4,19.8-3,39.6-10.1,59.4h-25.8l8.2,17.1c-18.8,4.7-38.3,16.1-58.5,34.2c0.4-3,0.9-6.8,1.6-11.4c-0.8,0.8-1.5,1.5-2.3,2.4 c-0.5,3.7-1.1,7.3-1.6,10.9c-0.2,1.3-0.4,2.6-0.5,3.9c-0.1,0.9-0.3,1.9-0.4,2.9c-0.7,5.2-1.4,10.3-2,15.5 c-3.3-30.6-9.8-54.2-19.6-70.6l12.8-7.4l-14-9.6c7.6-15.8,18.2-29.9,31.8-42.2l-4.8,1.6c-14.1,12.4-24.4,26.4-31.1,41.7 l13.6,8.2l-12.3,7.6c12.2,20,19.8,46,22.9,78.2c-1.1,10-2.2,20.1-3.1,30.1l2.2-2.5c0.8-9.2,1.7-18.4,2.8-27.6 c0.3-2.5,0.6-4.9,0.9-7.4c0-0.1,0-0.1,0-0.2c0.6-5.2,1.3-10.3,2-15.5c0.1-1,0.2-1.9,0.4-2.9c0-0.6,0.1-1.2,0.2-1.8 c22.7-19.3,43.6-31.3,62.6-36l-8.2-17.1h25.8C1628.2-806.5,1631.3-826.7,1630.6-847.2z" fill="#97B2E4"/></g><radialGradient xmlns:xlink="http://www.w3.org/1999/xlink" cx="760.678" cy="454.226" gradientTransform="translate(-247.035 -1732.155) scale(2.0517)" gradientUnits="userSpaceOnUse" id="a" r="8.673" xlink:actuate="onLoad" xlink:show="other" xlink:type="simple"><stop offset=".326" stop-color="#fdb8bb"/><stop offset="1" stop-color="#ffd3c0"/></radialGradient><path d="M1320.8-790.9L1320.8-790.9c1.1-0.7,1.9-1.6,2.4-2.7c0.1-0.1,0.1-0.3,0.2-0.4 c0.3-0.9,0.4-2,0.5-3.2c-0.8-0.5-1.6-0.9-2.2-1.2c-0.7-0.4-1.3-0.8-1.8-1.1c-2.7-1.5-5.6-3-8.8-4.4c0,0,0,0.1-0.1,0.1 c-0.5,0.8-0.8,1.7-1,2.7c-0.2,0.9,2.1,3.4,6.8,7.4C1318.1-792.7,1319.4-791.8,1320.8-790.9z" fill="url(#a)"/><linearGradient xmlns:xlink="http://www.w3.org/1999/xlink" gradientTransform="translate(-2353.285 -1050.105) scale(2.0517)" gradientUnits="userSpaceOnUse" id="b" x1="1785.068" x2="1796.255" xlink:actuate="onLoad" xlink:show="other" xlink:type="simple" y1="119.07" y2="119.07"><stop offset=".326" stop-color="#fdb8bb"/><stop offset="1" stop-color="#ffd3c0"/></linearGradient><path d="M1324.8-804.3c0-0.2,0-0.4,0-0.6c0,0,0-0.1,0-0.2v-0.5c-1.8-1.1-3.2-1.9-4.2-2.5 c-2.7-1.6-5.6-2.8-8.7-3.6c-4.5,1.1-4.6,3.3-0.4,6.5h0.1c3,1.2,5.9,2.6,8.4,4.1c0.5,0.3,1.1,0.6,1.8,1.1c0,0,0-0.1,0.1-0.1 c1-0.7,1.7-1.3,1.9-1.7C1324.3-802.4,1324.7-803.3,1324.8-804.3z" fill="url(#b)"/><radialGradient xmlns:xlink="http://www.w3.org/1999/xlink" cx="760.828" cy="453.833" gradientTransform="translate(-242.985 -1742.805) scale(2.0517)" gradientUnits="userSpaceOnUse" id="c" r="8.781" xlink:actuate="onLoad" xlink:show="other" xlink:type="simple"><stop offset=".326" stop-color="#fdb8bb"/><stop offset="1" stop-color="#ffd3c0"/></radialGradient><path d="M1327-805.6c0.5-0.6,1-1.4,1.5-2.4c0.1-0.3,0.2-0.6,0.3-0.9c0.1-0.4,0.2-0.8,0.3-1.1 c-0.5-0.3-1.1-0.6-1.8-1c-0.6-0.3-1.1-0.6-1.7-0.9c-1.4-0.8-2.6-1.3-3.4-1.6c-4.1-1.5-7.2-1.3-9.3,0.8c2.7,0.8,5.3,1.9,7.7,3.3 c1.1,0.6,2.5,1.4,4.2,2.5c0.4,0.2,0.8,0.4,1.2,0.7c0.3,0.2,0.5,0.3,0.8,0.4C1326.9-805.8,1326.9-805.7,1327-805.6z" fill="url(#c)"/><g><path d="M1344.5-794.2c-1.1-0.8-2.7-1.1-4.8-0.8c-2.2,0.2-3.8,0.3-5,0.3c-0.7-0.1-1.3-0.1-1.9-0.1 c-0.1,0-0.2-0.1-0.2-0.1c-0.6-0.1-1.3-0.3-2.1-0.6c-0.6-0.3-1.3-0.5-1.9-0.9c-0.8-0.4-1.6-0.7-2.4-1.1c-0.8-0.5-1.4-0.9-2-1.2 c-0.8-0.5-1.6-0.9-2.2-1.2c-0.7-0.4-1.3-0.8-1.8-1.1c-2.6-1.5-5.4-2.9-8.4-4.1l0.4,0.2c0.1,0.1,0.1,0.1,0.2,0.2l-0.2-0.1 c-0.3,0.3-0.5,0.6-0.7,0.9c3.2,1.4,6.2,2.9,8.8,4.4c0.5,0.3,1.1,0.6,1.8,1.1c0.6,0.4,1.4,0.8,2.2,1.2c0.6,0.4,1.3,0.8,2,1.2 c0.8,0.4,1.6,0.8,2.4,1.1c0.6,0.3,1.2,0.6,1.9,0.9c0.8,0.3,1.5,0.5,2.2,0.6c0.1,0,0.1,0,0.2,0.1c0.6,0,1.2,0,1.9,0.1 c1.2,0,2.4,0,3.7-0.1C1339.5-793.6,1341.5-793.8,1344.5-794.2 M1336.3-801.9c-0.3,0-0.5,0-0.6,0c-1.1-0.2-2.3-0.6-3.6-1.1 c-1.1-0.5-2.2-1.1-3.4-1.8c-0.1-0.1-0.2-0.1-0.3-0.2c-0.4-0.3-0.8-0.5-1.2-0.8c-0.1-0.1-0.1-0.1-0.2-0.2 c-0.3-0.1-0.5-0.3-0.8-0.4c-0.4-0.3-0.8-0.5-1.2-0.7c-1.8-1.1-3.2-1.9-4.2-2.5c-2.4-1.4-5-2.5-7.7-3.3c-0.1,0.1-0.2,0.2-0.3,0.3 c-0.3,0.3-0.5,0.5-0.7,0.8c3.1,0.8,6,2,8.7,3.6c1.1,0.6,2.5,1.4,4.2,2.5c0.4,0.3,0.8,0.5,1.2,0.7c0.7,0.4,1.4,0.9,2.2,1.4 c0.1,0,0.3,0.1,0.3,0.2c1.2,0.7,2.4,1.3,3.4,1.8c1.3,0.5,2.5,0.9,3.6,1.1c0.2,0,0.4,0,0.6,0c1.3-0.1,2.8-0.2,4.4-0.4 c0.8-0.1,1.7-0.3,2.6-0.4l0.3-0.1c0,0,0-0.1,0.1-0.1c0.3,0,1.1-0.2,2.6-0.5c-0.6-0.6-1.3-0.9-1.8-0.9s-0.9,0-0.9,0.1 c-1.1,0.2-2,0.3-2.9,0.4C1339-802.1,1337.6-801.9,1336.3-801.9 M1577.4-604.1c0.2-0.1,0.4-0.1,0.5-0.2c4-1,8.1-2.2,12.2-3.8 c-0.4-0.5-2.8-0.2-7.3,1c-4.4,1.1-6.7,1.6-7,1.7c-0.7,0.1-1.4,0.3-2.2,0.5c-0.1,0-0.3,0.1-0.4,0.1c-0.6,0.1-1.3,0.2-1.9,0.4 h-0.1c-0.6,0.1-1.2,0.2-1.7,0.3c-0.1,0-0.2,0-0.4,0.1c-1.3,0.3-4.4,1.1-9.4,2.5l1.6,0.3l3-0.5c0.2,0,0.4-0.1,0.6-0.1 c0.9-0.2,1.6-0.3,2.2-0.4c0.4,0,0.7-0.1,0.9-0.1c0.4-0.1,0.8-0.2,1.1-0.2c0.6-0.1,1.3-0.2,1.9-0.3c0,0,0.1-0.1,0.2-0.1 c0.6-0.1,1.1-0.3,1.6-0.3c0.4-0.1,0.9-0.2,1.5-0.3C1575.4-603.7,1576.4-603.9,1577.4-604.1 M1582.9-614.5 c0.6-0.8-1.6-0.3-6.6,1.6c-2.1,0.8-3.8,1.4-5.1,1.8c-0.9,0.3-1.5,0.6-2,0.8s-0.8,0.3-0.9,0.3s-0.2,0-0.4,0.1 c-0.2,0.1-0.4,0.1-0.5,0.2c-0.8,0.3-1.6,0.5-2.4,0.8c-0.1,0.1-0.2,0.1-0.3,0.2c-0.6,0.1-1.3,0.3-2,0.5c-2.6,0.6-5.3,1.2-8.3,1.6 c0.3,0,0.6,0.1,1,0.2c0.5,0.1,1,0.2,1.5,0.3c2.9-0.4,5.7-0.9,8.3-1.5c0.7-0.2,1.3-0.4,2-0.5c0.1,0,0.2,0,0.3-0.1 c0.6-0.2,1.2-0.4,1.8-0.5c0.3-0.1,0.5-0.2,0.7-0.2h0.1c0.3-0.1,0.6-0.3,0.9-0.3c0.1,0,0.3-0.1,0.5-0.2c0,0,0.1-0.1,0.2-0.1 C1575-611,1578.8-612.6,1582.9-614.5z" fill="#EF9894"/></g><g><path d="M1356.9-817.1c-0.4,1.2-1.1,2.3-2.1,3.5c0,0-0.1,0-0.1,0.1c-1.2,1.1-2.1,1.8-2.6,2l-0.1,0.1 c1.1,0.3,2.5,0.6,3.9,1c0.9,0.2,1.8,0.4,2.9,0.6c-1,0.2-1.9,0.3-2.7,0.4c-5.7,0.9-9.8,1.5-12.2,1.8c-1.9,0.3-3.6,0.3-5.2,0.3 c-0.8,0-1.5-0.1-2.3-0.2c-0.3-0.1-0.6-0.1-1-0.2c-0.5-0.1-1-0.2-1.6-0.3c-0.4-0.1-0.9-0.3-1.3-0.4c-0.9-0.3-2-0.9-3.4-1.6 c-0.1,0.4-0.2,0.7-0.3,1.1c-0.1,0.3-0.3,0.6-0.3,0.9c-0.5,1-1,1.8-1.5,2.4c0.4,0.3,0.8,0.5,1.2,0.8c0.1,0,0.3,0.1,0.3,0.2 c1.2,0.7,2.4,1.3,3.4,1.8c1.3,0.5,2.5,0.9,3.6,1.1c0.2,0,0.4,0,0.6,0c1.3,0,2.8-0.2,4.4-0.4c0.8-0.1,1.8-0.3,2.9-0.4 c0-0.1,0.3-0.1,0.9-0.1s1.2,0.3,1.8,0.9c-1.4,0.3-2.3,0.5-2.6,0.5c-0.1,0-0.1,0-0.1,0.1l-0.3,0.1c-0.9,0.2-1.8,0.3-2.6,0.4 c-1.6,0.2-3,0.4-4.4,0.4c-0.3,0-0.5,0-0.6,0c-1.1-0.2-2.3-0.6-3.6-1.1c-1.1-0.5-2.2-1.1-3.4-1.8c-0.1-0.1-0.2-0.1-0.3-0.2 c-0.8-0.5-1.5-1-2.2-1.4c-0.4-0.2-0.8-0.4-1.2-0.7v0.5c0,0.1,0,0.1,0,0.2c0,0.2,0,0.4,0,0.6c-0.1,1.1-0.5,2-1.1,2.6 c-0.2,0.4-0.8,1-1.9,1.7c0,0-0.1,0-0.1,0.1c0.6,0.4,1.4,0.8,2.2,1.2c0.6,0.4,1.3,0.8,2,1.2c0.8,0.4,1.6,0.8,2.4,1.1 c0.6,0.3,1.3,0.6,1.9,0.9c0.8,0.3,1.5,0.4,2.1,0.6c0,0,0.1,0,0.2,0.1c0.6,0,1.3,0,1.9,0.1c1.2,0,2.9-0.1,5-0.3 c2.2-0.3,3.8,0,4.8,0.8c-2.9,0.4-5,0.7-6.2,0.8c-1.3,0.1-2.5,0.1-3.7,0.1c-0.7,0-1.4-0.1-1.9-0.1c-0.1,0-0.1-0.1-0.2-0.1 c-0.6-0.2-1.4-0.4-2.2-0.6c-0.6-0.3-1.3-0.5-1.9-0.9c-0.8-0.3-1.6-0.7-2.4-1.1c-0.8-0.4-1.4-0.8-2-1.2c-0.1,1.3-0.3,2.3-0.5,3.2 c-0.1,0.2-0.1,0.3-0.2,0.4c-0.5,1.1-1.3,2-2.3,2.7h-0.1c2.3,1.6,4.8,2.9,7.4,3.9c0.5,0.3,1,0.4,1.5,0.5c0.6,0.2,1.1,0.4,1.7,0.6 c0.6,0.1,1.7,0.4,3.3,0.9c8.8,1.1,17,1.7,24.4,1.7c0.1,0,0.3,0,0.4,0c1.3,0,2.6-0.1,3.9-0.2c1.5-0.1,3-0.1,4.5-0.2l9.1,9.8 l17.1-24.3c-2.9-1.6-6-4.5-9.2-8.7c-0.1-0.1-0.1-0.2-0.2-0.3c-4-4.7-9.4-7.8-16.2-9.4c-0.3-0.1-0.7-0.2-1.1-0.3 c-0.1,0-0.2,0-0.4,0c-1.1-0.3-2.3-0.5-3.7-0.8c-1.1-0.3-2.3-0.5-3.4-0.8c-1-0.2-1.9-0.4-2.8-0.6 C1357.1-818.3,1357.1-817.6,1356.9-817.1 M1578-633c0,1.5-0.9,3.2-2.8,5.3c-0.4,0.4-0.7,0.8-1,1.1c2,0,4.5,0,7.5-0.1 c-3.4,1.5-5.7,2.8-7,3.8c-2.3,1.5-5.3,3.3-9,5.4c0.8,0.5,1.3,1.1,1.7,1.7c0.6,0.9,0.9,2.1,0.9,3.7c0,0.2,0,0.3,0,0.5 c0,0.6-0.1,1.2-0.2,1.7c0.1,0,0.3-0.1,0.4-0.1s0.4-0.1,0.9-0.3c0.5-0.2,1.1-0.4,2-0.8c1.3-0.5,2.9-1.1,5.1-1.8 c5-1.9,7.2-2.4,6.6-1.6c-4.1,1.9-7.9,3.5-11.4,4.7c-0.1,0-0.1,0-0.2,0.1c-0.2,0.1-0.3,0.1-0.5,0.2c0.1,0,0.3,0.1,0.5,0.3 c0.8,0.4,1.4,0.8,1.8,1.3c0.6,1.1,0.8,2.1,0.6,3.1c0.8-0.2,1.5-0.3,2.2-0.5c0.3-0.1,2.6-0.6,7-1.7c4.5-1.1,6.9-1.5,7.3-1 c-4.1,1.5-8.2,2.8-12.2,3.8c-0.2,0-0.4,0.1-0.5,0.2c0.3,0,0.5,0.1,0.7,0.2c1.2,0.5,2,1.1,2.5,1.9c0.4,0.6,0.8,1.5,1,2.6 c0.5-0.1,1.1-0.2,1.7-0.4c3.2-0.7,6.5-1.8,10-3.3c6.7-2.9,13.2-7,19.5-12.4l-14.9-26.8l-21.2,5.3 C1577.7-635.5,1578.1-634.1,1578-633 M1604.2-862.8c-3.2,2.2-7,4.7-11.3,7.4c-9,5.7-16.2,9.7-21.7,11.9 c-4.4,1.8-8.6,2.9-12.5,3.4c-0.7,3.4,0,8.2,2.1,14.6c0.8,2.6,1.9,5.4,3.2,8.4c5.6-2.5,10.7-5.3,15.5-8.4 c12-7.9,21.5-17.5,28.2-28.9C1606.2-857.1,1605.1-859.9,1604.2-862.8z" fill="#FFD7C5"/></g><radialGradient xmlns:xlink="http://www.w3.org/1999/xlink" cx="761.725" cy="453.562" gradientTransform="translate(-218.685 -1750.155) scale(2.0517)" gradientUnits="userSpaceOnUse" id="d" r="9.601" xlink:actuate="onLoad" xlink:show="other" xlink:type="simple"><stop offset=".326" stop-color="#fdb8bb"/><stop offset="1" stop-color="#ffd3c0"/></radialGradient><path d="M1354.8-813.6c1-1.1,1.7-2.3,2.1-3.5c0.1-0.5,0.2-1.2,0.3-1.9c-0.9-0.2-1.8-0.4-2.6-0.5 c-0.6-0.1-1.1-0.2-1.7-0.3c-5.5-1.1-9.7-1.7-12.6-1.8c-1.8,1.7-1.8,3.2-0.2,4.5c1.6,1.3,3.5,2.5,5.8,3.7c0.6,0.3,1.4,0.6,2.4,1 s2.3,0.7,3.8,1.1c0,0,0.1,0,0.1-0.1c0.6-0.3,1.5-1,2.6-2C1354.7-813.6,1354.8-813.6,1354.8-813.6z" fill="url(#d)"/><g><path d="M1510.8-588.9c0.4-6.9,0.6-11.3,0.8-13.3c-7.7-2.5-15.7-4.8-23.9-6.6c-1.1,4.7-2.2,9.4-3.1,14.1 L1510.8-588.9 M1655.8-586.2c-0.1-1.9-0.3-3.8-0.6-5.8l-23.8,29.3c2.2-0.3,4.4-0.5,6.5-0.8c6.7-0.9,11.4-2.9,14.2-5.9 c1.8-2,3-4.6,3.5-7.7C1655.9-579.4,1656-582.5,1655.8-586.2 M1510-577c0.2-3,0.3-5.7,0.5-8.2l-26.6-6.6 c-1.5,7.9-2.7,15.8-3.7,23.7c4.4,1.9,9,3.5,13.7,4.6c5.2,1.2,9,0.9,11.5-0.9c1.7-1.1,3-3,3.7-5.5 C1509.5-571.6,1509.9-574,1510-577 M1570.9-589.6c0.1,4.3,0.8,8.1,1.8,11.5c1.5,4.6,3.9,8.1,7.1,10.5c2.3,1.9,5.3,3.2,9,4 c2.3,0.5,5.6,0.9,9.9,1.2c2.3,0.1,4.5,0.3,6.7,0.3c4.8,0.2,9.4,0.2,13.8,0.1l-33.2-28.1L1570.9-589.6 M1571.1-598.7 c-0.1,1.8-0.1,3.9-0.2,6.2l12-0.4l-6.9-5.8c-0.4,0-0.7,0-1.1,0.1C1573.4-598.6,1572.2-598.6,1571.1-598.7 M1557.7-613.6 c0.2-0.1,0.3-0.2,0.5-0.3l-28.3-23.9c-1.4,26.9-1.9,53.8-1.4,80.8v0.1c0.1,8,0.4,16,0.7,24c31,1.6,60.5,0.7,88.4-2.9 c14.5-1.8,28.6-4.3,42.2-7.5c4.1-1,8.1-2,12.2-3.1c-2.2-15.6-5-31-8.6-46.3c-0.2-0.8-0.4-1.6-0.6-2.5c-0.4-1.6-0.8-3.2-1.2-4.8 l-4.4,5.4c0.1,0.7,0.3,1.4,0.4,2.1c0.1,0.4,0.1,0.8,0.2,1.2c0.3,2.2,0.4,4.2,0.6,6.1c0.2,3.9,0.1,7.1-0.2,9.6 c-0.6,3.4-1.8,6.1-3.7,8.2c-2.9,3.2-7.9,5.2-15,6.1c-2.3,0.3-4.6,0.6-6.9,0.9c-1.4,0.1-2.9,0.2-4.2,0.3 c-2.8,0.2-5.6,0.3-8.6,0.4c-4.4,0.1-9.1,0.1-14,0c-2.4-0.1-5-0.2-7.6-0.4c-4.5-0.3-8-0.8-10.4-1.3c-3.8-0.9-7-2.3-9.5-4.2 c-3.4-2.6-5.9-6.2-7.5-11c-1.2-3.8-1.9-8.1-2-13c0-0.3,0-0.6,0-1c0-0.6,0.1-1.3,0.2-1.9c0-2.2,0.1-4.1,0.2-5.9 c0-0.2,0-0.4,0.1-0.6c-1.7-0.3-2.5-0.7-2.5-1.3c0.1-1.2,0.6-1.9,1.5-2.1c-0.3,0-0.6,0-0.9,0.1c-0.6,0.1-1.3,0.3-2.2,0.4 c-0.3,0-0.5,0.1-0.6,0.1l-3,0.5l-1.6-0.3c-0.7-0.1-1.5-0.3-2.4-0.8c-0.9-0.4-1.3-1-1.3-1.8c0-0.6,0.2-1.3,0.6-1.9 c0.1-0.1,0.1-0.3,0.2-0.3c-0.5-0.1-1-0.2-1.5-0.3c-0.4-0.1-0.7-0.1-1-0.2c-0.4-0.1-0.7-0.3-0.9-0.4c-0.7-0.4-1.1-0.9-1.2-1.5 c-0.1-0.7,0.3-1.4,1.1-2.3C1554.7-611.9,1556.1-612.8,1557.7-613.6 M1540.3-622.7c0,1-0.4,1.9-1.1,2.7c-0.8,0.8-1.7,1.2-2.7,1.2 s-2-0.4-2.7-1.2c-0.8-0.8-1.1-1.6-1.1-2.7c0-1,0.4-2,1.1-2.8c0.8-0.7,1.7-1.1,2.7-1.1c1.1,0,2,0.4,2.7,1.1 C1539.9-624.7,1540.3-623.7,1540.3-622.7 M1540.3-565.9c0,1.1-0.4,2-1.1,2.7c-0.8,0.8-1.7,1.2-2.7,1.2s-2-0.4-2.7-1.2 c-0.8-0.7-1.1-1.6-1.1-2.7c0-1.1,0.4-2,1.1-2.7c0.8-0.8,1.7-1.1,2.7-1.1c1.1,0,2,0.4,2.7,1.1S1540.3-567,1540.3-565.9 M1540.9-731.8c-0.2,0.9-0.4,1.9-0.4,2.9c-0.7,5.2-1.4,10.3-2,15.5c0,0,0,0.1,0,0.2c-0.3,2.4-0.6,4.9-0.9,7.4 c-1.1,9.2-2,18.4-2.8,27.6l5-6c-0.1-0.1-0.2-0.2-0.3-0.3c-0.7-0.7-1.1-1.6-1.1-2.6c0-1.1,0.4-2,1.1-2.7c0.8-0.8,1.7-1.1,2.7-1.1 s1.8,0.3,2.5,0.9l36.7-43.7l8.2-0.3l47.2,40.9c-0.6-9.5,0.6-20,3.7-31.7c-1.4-7.3-3-14.5-4.8-21.5c-1.5-6.3-2.4-10.6-2.7-13 c-0.7-4.8-0.6-9.1,0.2-12.7l10,38l10,38.1l-9.6,8.5l-47.4,42l1.8,3.3l14.9,26.8l7.3,13.3c9.5-7.5,18.3-14.5,26.2-21.1 c2.4-2,4.7-4,6.9-5.9c11.2-9.5,20.6-18.1,28.1-25.7c4.5-4.5,8.3-8.7,11.4-12.5c8.1-10.5,10.8-21.7,7.9-33.6 c-13.1-70.5-24.6-113.2-34.6-127.9c-11.1-7.6-22.9-13.7-35.3-18.5c0.7,20.5-2.4,40.7-9.5,60.5h-26l8.2,17.1 c-19,4.7-39.8,16.7-62.6,36C1540.9-733,1540.9-732.5,1540.9-731.8 M1550.6-727.6c0,1-0.4,1.9-1.2,2.7c-0.8,0.8-1.6,1.2-2.7,1.2 c-1,0-2-0.4-2.7-1.2s-1.1-1.6-1.1-2.7c0-1.1,0.4-2,1.1-2.8c0.8-0.7,1.7-1.1,2.7-1.1s1.9,0.4,2.7,1.1 C1550.2-729.7,1550.6-728.7,1550.6-727.6 M1542.7-841.7c-11,3.7-20,9.4-27.1,17.2l-54,71.1c3,3,5.6,6.3,7.9,10.1 c2.7,4.5,4.7,9.3,5.9,14.4c-3-4.8-5.3-8.2-6.8-10.2c-1.6-2-3.6-4.3-6-6.9l-3.6-3.9l-0.2,0.3l-64.5-48.7l-17.1,24.3l-8.1,11.5 l82.3,67.2c8.8,4.3,16.9,3.3,24.1-3.1l30-25.7c2,28.2-1.1,56.5-9.2,84.9c-1,3.5-2.1,7-3.3,10.4c-1.7,5.8-3.2,11.5-4.6,17.3 c9,2.2,17.8,4.6,26.3,7.2c0.2,6.3,0.2,12.9-0.1,19.7c-0.1,4.7-0.3,9.5-0.6,14.4c-0.2,1.8-0.4,3.2-0.6,4 c-0.3,1.5-0.9,2.7-1.7,3.6c-1.1,1.2-2.6,2-4.7,2.4c-1.4,0.3-3.3,0.3-5.6,0.1c-7.5-0.8-14.6-2.9-21.2-6.1 c-0.9,7.4-1.5,14.8-1.8,22.1c5,3.1,9.7,5.4,14.1,6.8c5.7,1.8,11.5,2.9,17.6,3.5l16.3-20.5c-0.8-25.8-0.1-54.1,1.9-85 c0-0.1,0-0.3,0.1-0.3l-15.4-13l19.8-23.6c0.9-10,1.9-20,3.1-30.1c-3.1-32.1-10.7-58.2-22.9-78.2l12.3-7.6l-13.6-8.2 C1518.3-815.3,1528.6-829.2,1542.7-841.7 M1552.4-839.7c1.2-2.3,2.5-4.4,3.9-6.4l-8.8,2.9c-13.6,12.3-24.2,26.3-31.8,42.2 l14,9.6l-12.8,7.4c9.8,16.5,16.3,40,19.6,70.6c0.6-5.2,1.3-10.3,2-15.5c0.1-1,0.2-1.9,0.4-2.9c0.2-1.3,0.4-2.5,0.5-3.9 c0.5-3.6,1-7.3,1.6-10.9c-0.5-8.9-0.8-17.2-0.8-25.1c0-9.6,0.4-18.4,1.2-26.5c0.3-2.3,0.5-4.5,0.8-6.7c0.2-1.2,0.4-2.4,0.6-3.5 c0.9-6.2,2.2-11.9,3.8-17C1548.2-830.8,1550.1-835.5,1552.4-839.7 M1607.6-854.4c-2.9,9.7-6.7,19.5-11.5,29.4 c-3.8,8-8.3,16-13.3,24.3c-0.5,0.8-1.1,1.7-1.6,2.5c-0.4,0.5-0.7,1.1-1.1,1.7c-5.3,8.2-11.2,16.4-17.7,24.8 c-5.8,7.5-12.2,15.1-19.1,22.8c-0.7,4.6-1.3,8.4-1.6,11.4c20.2-18.1,39.7-29.5,58.5-34.2l-8.2-17.1h25.8 c7.1-19.8,10.4-39.6,10.1-59.4C1621.2-850.7,1614.5-852.7,1607.6-854.4z" fill="#FFF"/></g><g><path d="M1528.5-556.9l-2.4,2.9l-16.3,20.5c-6.1-0.6-11.9-1.7-17.6-3.5v31.7H1661c1.5-12.7,1.1-25.3-1.2-38 c-13.7,3.2-27.7,5.7-42.2,7.5c-27.9,3.5-57.4,4.5-88.4,2.9C1528.9-541,1528.6-549,1528.5-556.9z" fill="#182647"/></g><linearGradient xmlns:xlink="http://www.w3.org/1999/xlink" gradientTransform="translate(-2353.285 -1050.105) scale(2.0517)" gradientUnits="userSpaceOnUse" id="e" x1="1905.45" x2="1923.012" xlink:actuate="onLoad" xlink:show="other" xlink:type="simple" y1="216.695" y2="216.695"><stop offset=".326" stop-color="#fdb8bb"/><stop offset="1" stop-color="#ffd3c0"/></linearGradient><path d="M1556.9-606.3c-0.1,0.1-0.1,0.2-0.2,0.3c-0.4,0.6-0.6,1.3-0.6,1.9c0,0.8,0.4,1.4,1.3,1.8 c0.9,0.4,1.7,0.7,2.4,0.8c5-1.4,8.2-2.2,9.4-2.5c0.2,0,0.3-0.1,0.4-0.1c0.5-0.1,1.1-0.3,1.7-0.3h0.1c0.6-0.1,1.3-0.3,1.9-0.4 c0.1,0,0.2-0.1,0.4-0.1c0.3-1,0.1-2-0.6-3.1c-0.4-0.5-1-1-1.8-1.3c-0.2-0.1-0.3-0.2-0.5-0.3c-0.3,0.1-0.6,0.2-0.9,0.3h-0.1 c-0.2,0-0.4,0.1-0.7,0.2c-0.6,0.2-1.2,0.4-1.8,0.5c-0.1,0.1-0.2,0.1-0.3,0.1c-0.6,0.2-1.3,0.4-2,0.5 C1562.6-607.2,1559.9-606.7,1556.9-606.3z" fill="url(#e)"/><linearGradient xmlns:xlink="http://www.w3.org/1999/xlink" gradientTransform="translate(-2353.285 -1050.105) scale(2.0517)" gradientUnits="userSpaceOnUse" id="f" x1="1903.571" x2="1919.25" xlink:actuate="onLoad" xlink:show="other" xlink:type="simple" y1="213.551" y2="213.551"><stop offset=".326" stop-color="#fdb8bb"/><stop offset="1" stop-color="#ffd3c0"/></linearGradient><path d="M1565.6-617.4c-0.1,0.1-0.3,0.1-0.4,0.2c-0.6,0.3-1.1,0.5-1.6,0.8c-2.3,1.1-4.1,2-5.4,2.6 c-0.1,0.1-0.3,0.2-0.5,0.3c-1.6,0.9-3,1.8-4.2,2.7c-0.8,0.8-1.2,1.6-1.1,2.3c0.1,0.6,0.5,1.1,1.2,1.5c0.3,0.1,0.6,0.3,0.9,0.4 c2.9-0.4,5.7-0.9,8.3-1.6c0.7-0.2,1.3-0.3,2-0.5c0.1,0,0.2-0.1,0.3-0.2c0.8-0.2,1.6-0.5,2.4-0.8c0.2-0.1,0.4-0.1,0.5-0.2 c0.1-0.5,0.2-1.1,0.2-1.7c0-0.1,0-0.3,0-0.5c0-1.6-0.3-2.8-0.9-3.7C1566.9-616.3,1566.4-616.9,1565.6-617.4z" fill="url(#f)"/><g><path d="M1593.4-603c-3.5,1.5-6.8,2.6-10,3.3l46.2,39.2l1.8-2.2l23.8-29.3l2-2.5l4.4-5.4l34.3-42.2l-14.6-12.6 c-7.5,7.6-16.9,16.2-28.1,25.7c-2.2,1.9-4.5,3.9-6.9,5.9c-7.9,6.6-16.7,13.6-26.2,21.1l-7.3-13.3 C1606.5-610,1600-605.9,1593.4-603 M1643.5-687.6l-6.7-5.7l-47.2-40.9l-68.7,81.6l42.7,36.1c0.5-0.2,1-0.5,1.6-0.8 c0.1,0,0.2-0.1,0.4-0.2c3.7-2,6.7-3.8,9-5.4c1.3-1,3.7-2.3,7-3.8c-3,0-5.6,0.1-7.5,0.1c-0.3,0-0.6,0-0.9,0 c-2.2,0-4.3-0.2-6.5-0.5c-2.2-0.4-3.6-1-4.5-1.9c-0.5-0.6-0.8-1.3-0.9-2.1c0-0.9,0.2-1.6,0.8-2.2l14.6-3.7l21.2-5.3l-1.8-3.3 L1643.5-687.6 M1584.5-689.6c0,2-0.7,3.8-2.2,5.3c-1.5,1.4-3.2,2-5.3,2c-2,0-3.7-0.7-5.2-2c-1.5-1.5-2.2-3.2-2.2-5.3 s0.7-3.8,2.2-5.2c1.4-1.4,3.2-2.2,5.2-2.2s3.8,0.7,5.3,2.2C1583.8-693.4,1584.5-691.7,1584.5-689.6 M1540-654.7 c0-2,0.7-3.8,2.2-5.2s3.2-2.2,5.2-2.2s3.8,0.7,5.2,2.2c1.5,1.4,2.2,3.2,2.2,5.2s-0.7,3.7-2.2,5.2c-1.4,1.4-3.2,2.2-5.2,2.2 s-3.7-0.7-5.2-2.2C1540.7-651,1540-652.7,1540-654.7 M1569.7-672.2c0,2-0.7,3.8-2.2,5.2s-3.2,2.1-5.2,2.1s-3.8-0.7-5.2-2.1 c-1.5-1.4-2.2-3.2-2.2-5.2s0.7-3.8,2.2-5.2c1.4-1.4,3.2-2.2,5.2-2.2s3.7,0.7,5.2,2.2C1569-676,1569.7-674.3,1569.7-672.2z" fill="#4C80E7"/></g><linearGradient xmlns:xlink="http://www.w3.org/1999/xlink" gradientTransform="translate(-2353.285 -1050.105) scale(2.0517)" gradientUnits="userSpaceOnUse" id="g" x1="1910.562" x2="1925.435" xlink:actuate="onLoad" xlink:show="other" xlink:type="simple" y1="218.742" y2="218.742"><stop offset=".326" stop-color="#fdb8bb"/><stop offset="1" stop-color="#ffd3c0"/></linearGradient><path d="M1581.7-599.4c-0.3-1.1-0.6-2-1-2.6c-0.5-0.8-1.3-1.4-2.5-1.9c-0.2-0.1-0.4-0.1-0.7-0.2 c-1,0.2-2,0.4-3.1,0.6c-0.5,0.1-1,0.3-1.5,0.3c-0.5,0.1-1,0.2-1.6,0.3c-0.1,0-0.1,0-0.2,0.1c-0.6,0.1-1.2,0.2-1.9,0.3 c-0.3,0-0.7,0.1-1.1,0.2c-0.9,0.2-1.4,0.9-1.5,2.1c-0.1,0.6,0.8,1.1,2.5,1.3c0.5,0.1,1.2,0.1,2,0.2c1.1,0.1,2.3,0.1,3.8,0.1 c0.4,0,0.8-0.1,1.1-0.1C1577.8-598.7,1579.7-599,1581.7-599.4z" fill="url(#g)"/><g><path d="M1583.4-599.7c-0.6,0.1-1.1,0.3-1.7,0.4c-2,0.4-3.9,0.6-5.7,0.7l6.9,5.8l3.1,2.7l33.2,28.1l2.1,1.8 l8.2-0.3L1583.4-599.7 M1567.6-667c1.4-1.4,2.2-3.2,2.2-5.2s-0.7-3.8-2.2-5.2s-3.2-2.2-5.2-2.2s-3.8,0.7-5.2,2.2 c-1.5,1.4-2.2,3.2-2.2,5.2s0.7,3.8,2.2,5.2c1.4,1.4,3.2,2.1,5.2,2.1C1564.4-664.9,1566.1-665.6,1567.6-667 M1589.6-734.2 l-8.2,0.3l-36.7,43.7l-5,5.9l-5,6l-2.2,2.5l-19.8,23.6l15.4,13l1.7,1.6l28.3,23.9c1.3-0.6,3.1-1.5,5.4-2.6l-42.7-36.1 L1589.6-734.2z" fill="#98BAFF"/></g><linearGradient xmlns:xlink="http://www.w3.org/1999/xlink" gradientTransform="translate(-2353.285 -1050.105) scale(2.0517)" gradientUnits="userSpaceOnUse" id="h" x1="1908.028" x2="1924.46" xlink:actuate="onLoad" xlink:show="other" xlink:type="simple" y1="203.901" y2="203.901"><stop offset=".326" stop-color="#fdb8bb"/><stop offset="1" stop-color="#ffd3c0"/></linearGradient><path d="M1575.2-627.7c1.9-2,2.8-3.8,2.8-5.3c0.1-1.1-0.3-2.5-1.2-4l-14.6,3.7c-0.5,0.6-0.8,1.3-0.8,2.2 c0.1,0.8,0.4,1.5,0.9,2.1c0.8,0.9,2.3,1.5,4.5,1.9c2.2,0.3,4.4,0.5,6.5,0.5c0.3,0,0.6,0,0.9,0 C1574.5-626.9,1574.8-627.3,1575.2-627.7z" fill="url(#h)"/><g><path d="M1542.2-659.9c-1.4,1.4-2.2,3.2-2.2,5.2s0.7,3.7,2.2,5.2c1.5,1.4,3.2,2.2,5.2,2.2s3.8-0.7,5.2-2.2 c1.5-1.5,2.2-3.2,2.2-5.2s-0.7-3.8-2.2-5.2c-1.4-1.4-3.2-2.2-5.2-2.2S1543.6-661.4,1542.2-659.9 M1582.4-684.3 c1.4-1.5,2.2-3.2,2.2-5.3s-0.7-3.8-2.2-5.2s-3.2-2.2-5.3-2.2c-2,0-3.7,0.7-5.2,2.2c-1.5,1.4-2.2,3.2-2.2,5.2s0.7,3.8,2.2,5.3 c1.4,1.4,3.2,2,5.2,2C1579.2-682.3,1580.9-683,1582.4-684.3z" fill="#E1EEFF"/></g><g><path d="M1542.3-804.9c-0.3,2.2-0.5,4.4-0.8,6.7c-0.8,8-1.2,16.9-1.2,26.5c0,7.9,0.3,16.3,0.8,25.1 c0.8-0.8,1.5-1.6,2.3-2.4c6.9-7.6,13.2-15.2,19.1-22.8c6.5-8.4,12.4-16.6,17.7-24.8l-17.4-16.2L1542.3-804.9 M1564-853.3 c0.2-0.6,0.4-1.2,0.6-1.8c-2.5,2-4.9,4.4-7,7.3c-0.4,0.6-0.9,1.2-1.3,1.8c-1.4,2-2.7,4.1-3.9,6.4c-2.3,4.2-4.2,8.9-5.8,14.3 c-1.6,5.1-2.8,10.8-3.8,17l21-8.6c-1.3-3-2.3-5.8-3.2-8.4c-2.1-6.3-2.8-11.2-2.1-14.6c0.1-0.8,0.3-1.4,0.6-2 c1-2.3,1.8-4.2,2.5-5.9C1562.9-850.6,1563.7-852.5,1564-853.3 M1607.6-854.4c-6.8,11.4-16.2,21-28.2,28.9 c-4.8,3.1-9.9,5.9-15.5,8.4l18.9,16.3c5.1-8.2,9.5-16.3,13.3-24.3C1600.8-834.9,1604.7-844.7,1607.6-854.4z" fill="#65CAD7"/></g><g><path d="M1542.9-808.5c-0.2,1.1-0.4,2.3-0.6,3.5l20.4-7.8l17.4,16.2c0.4-0.6,0.7-1.1,1.1-1.7 c0.5-0.9,1-1.7,1.6-2.5l-18.9-16.3L1542.9-808.5z" fill="#39A9B7"/></g><g><path d="M1592.8-855.4c4.4-2.7,8.2-5.2,11.3-7.4c-2.2-7.3-3.2-15-2.8-23.2c-17.5-8.3-29.8-5.4-36.9,8.6 c1,3.2,1.6,7.1,1.7,11.8c0.1,3.4-0.4,6.9-1.6,10.5c-0.2,0.6-0.4,1.2-0.6,1.8c-0.3,0.9-1.1,2.7-2.3,5.4c-0.7,1.6-1.5,3.6-2.5,5.9 c-0.3,0.6-0.5,1.2-0.6,2c4-0.5,8.2-1.7,12.5-3.4C1576.6-845.7,1583.9-849.7,1592.8-855.4z" fill="#FCAB9B"/></g></g></g></g><g><g><g><g><path d="M81.7,322.2c-0.3-0.1-0.6-0.1-0.9-0.1h-0.1c-1.5,0-2.8,0.5-3.8,1.6c-0.5,0.5-0.9,1.1-1.2,1.7 s-0.4,1.3-0.4,2.1c0,1.5,0.5,2.8,1.6,3.9c0.5,0.5,1,0.9,1.6,1.1c0.6,0.3,1.4,0.4,2.2,0.4c1.5,0,2.8-0.5,3.9-1.6 c1-1,1.6-2.3,1.6-3.9c0-0.3,0-0.6-0.1-1l8.1-7.5l-0.6-0.5l-2-1.7l-0.6-0.5l-7.1,6.8c-0.1-0.1-0.2-0.1-0.3-0.2 C83,322.6,82.4,322.4,81.7,322.2z" fill="#D8E7F4" transform="translate(334.45 -120.8) scale(1.56259)"/></g><g><path d="M67.8,310.1l-2,1.7l-0.6,0.5l8.1,7.5c-0.1,0.3-0.1,0.6-0.1,1c0,1.5,0.5,2.8,1.6,3.9 c0.3,0.3,0.7,0.6,1,0.8c0.3-0.6,0.6-1.2,1.2-1.7c1-1,2.3-1.6,3.8-1.6h0.1c0.3,0,0.6,0,0.9,0.1c0.7,0.1,1.3,0.4,1.8,0.8 c0.3-0.7,0.4-1.4,0.4-2.3c0-1.5-0.5-2.7-1.6-3.8c-0.5-0.5-1-0.9-1.6-1.1c-0.7-0.3-1.4-0.4-2.2-0.4c-0.4,0-0.7,0-1,0.1 c-0.8,0.2-1.5,0.5-2.1,0.9l-7.1-6.8L67.8,310.1z" fill="#A2B0BC" transform="translate(334.45 -120.8) scale(1.56259)"/></g><g><path d="M59.1,212.2c-0.4-0.1-0.8,0-1.2,0.2c-0.3,0.2-0.5,0.5-0.6,1c0,0.4,0,0.8,0.2,1.2c0.3,0.4,0.6,0.6,1,0.7 c12.1,2.2,18.6,10.5,19.4,25.1c-9.3,0-15,4.2-17.3,12.7l0.2,49.1c0.1,1.5,0.6,3.1,1.6,4.8c0.6,1.2,1.4,2.4,2.5,3.7 c0.3,0.3,0.5,0.6,0.8,1l0.1,0.1l2-1.7c-0.6-0.8-1.1-1.5-1.5-2.2c-0.2-0.3-0.3-0.6-0.5-0.9c-1.1-1.9-1.8-3.6-1.9-5.2v-45.6h31.6 v52.3c-0.3,2.3-1.6,5.1-3.9,8.2l2,1.7c3.1-3.5,4.8-6.7,4.9-9.6v-54.9c-1.8-8.5-7.6-13.1-17.4-13.8 C80.1,223.8,72.8,214.5,59.1,212.2 M95.4,253.2H63.9c0-0.1,0.1-0.2,0.1-0.4c2.2-6.6,7.3-9.7,15.4-9.3c2.2,0,4.1,0.3,5.8,0.6 c1,0.2,2,0.4,2.9,0.8C92.4,246.4,94.8,249.2,95.4,253.2 M17.3,218c-0.4-0.2-0.8-0.2-1.1-0.1c-21,7.1-37.3,26.9-48.6,59.6 c-1.1,3.3-1.9,6.4-2.6,9.5c0.2,0,0.4,0,0.5,0c0.7,0,1.3,0.1,1.8,0.2c0.3,0,0.6,0.1,0.8,0.2c0.6-2.8,1.4-5.8,2.4-8.9h-0.1 c10.3-29.6,24.6-48.3,43-56.2L17.3,218C17.4,218,17.4,218,17.3,218z" fill="#182647" transform="translate(334.45 -120.8) scale(1.56259)"/></g><g><path d="M-31.8,287.4c-0.3-0.1-0.5-0.2-0.8-0.2c-0.5-0.1-1.1-0.2-1.8-0.2c-0.2,0-0.4,0-0.5,0 c-2.5,0.1-4.8,1.1-6.6,3c-2,2-3,4.4-3,7.2c0,2.8,1,5.2,3,7.1c2,2,4.4,3.1,7.2,3.1c2.8,0,5.2-1,7.3-3.1c2-1.9,3-4.3,3-7.1 c0-2.8-1-5.2-3-7.2C-28.6,288.7-30.1,287.8-31.8,287.4z" fill="#B4C7D8" transform="translate(334.45 -120.8) scale(1.56259)"/></g></g></g></g><g><g><g><g><path d="M1560.6-974c-12.7,6.7-22.4,22.5-29.1,47.4c1.6,2.7,3.4,8,5.1,15.8c0.7,3.4,1.7,8.5,3.1,15.2 c0.2,0.8,0.4,1.6,0.6,2.4c4.4,16.5,12.6,26.1,24.4,28.8c0.6,0.1,1.3,0.3,1.9,0.4c1,0.2,2,0.3,3.1,0.4c13.4,1.8,27.7-2.9,42.9-14 c2-5.3,3.4-11.4,3.9-18.3c1.5,1.3,3.3,1.8,5.6,1.5c1.9-0.2,3.8-0.9,5.7-2.1c3.6-2.3,6.3-5.6,7.9-9.9c1.6-4.3,1.9-8.6,0.8-12.7 c-0.8-3.4-2.4-5.9-4.8-7.6c-1.4-1.1-3.1-1.8-5-2c-1.8-0.2-3.6-0.1-5.3,0.4c-2.9,0.9-5.4,2.6-7.5,5.2c-8.8-2-17.1-9.6-25.1-22.9 c3,10,9.8,18.6,20.4,25.9C1587.7-926.5,1571.5-944.4,1560.6-974z" fill="#FFD7C5" transform="matrix(1.43214 0 0 1.43214 -1874.15 1439.6)"/></g><g><path d="M1565-999.5c-0.9-0.1-1.7-0.1-2.6-0.2c-0.2,0-0.4,0.1-0.6,0.2c-1.4-0.1-2.9-0.2-4.2-0.3 c-24.5,0.8-33.7,23-41.6,61.3c-6.3,47.4,3.5,70.7,20.7,76.3c-1.1-0.9-2.1-1.8-3.1-2.9c-2.4-2.5-4.3-5.4-5.7-8.7 c-0.8-1.8-1.5-3.7-1.9-5.6c0.9,2.2,2,4.4,3.4,6.4c2,2.8,4.3,5.2,7,7.2s5.7,3.4,9,4.4c0,0,0.1,0.1,0.2,0.1 c6.2,0.1,13.2-0.9,21-2.8c-0.6-0.1-1.3-0.2-1.9-0.4c-11.8-2.8-20-12.4-24.4-28.8c-0.2-0.8-0.4-1.5-0.6-2.4 c-1.3-6.7-2.3-11.8-3.1-15.2c-1.8-7.8-3.5-13-5.1-15.8c6.7-24.9,16.4-40.7,29.1-47.4c10.9,29.6,27.1,47.5,48.6,53.8 c-10.5-7.3-17.3-15.9-20.4-25.9c7.9,13.3,16.3,20.9,25.1,22.9c2.1-2.6,4.6-4.3,7.5-5.2c1.8-0.5,3.5-0.6,5.3-0.4 c1.9,0.3,3.6,1,5,2c2.4,1.7,4,4.3,4.8,7.6c1.1,4.1,0.9,8.4-0.8,12.7c-1.6,4.3-4.3,7.6-7.9,9.9c-1.9,1.2-3.8,1.9-5.7,2.1 c-2.3,0.3-4.1-0.3-5.6-1.5c-0.6,7-1.9,13.1-3.9,18.3c-1.7,5.8-3.9,11.3-6.5,16.6c1.6-0.2,3.1-0.3,4.5-0.5c0.3,0,0.7-0.1,1-0.2 c0.6-0.5,1.1-1.1,1.7-2c1.3-1.8,2.5-4.1,3.8-6.9c-0.4,2.8-1,5.6-1.9,8.4c21.5-3.6,36.5-12.5,45.1-26.8 c5.8-14.6,4.2-35.2-4.6-61.8c-12.3-37-33.3-55.1-62.8-54.2C1584.3-1004.7,1575-1002.9,1565-999.5z" fill="#182647" transform="matrix(1.43214 0 0 1.43214 -1874.15 1439.6)"/></g></g></g></g><g><g><g transform="matrix(1.432 0 0 1.432 -1874.15 1439.6)"><radialGradient xmlns:xlink="http://www.w3.org/1999/xlink" cx="-451.898" cy="428.964" gradientTransform="matrix(-2.0307 .2845 .656 3.719 346.582 -2361.558)" gradientUnits="userSpaceOnUse" id="i" r="5.716" xlink:actuate="onLoad" xlink:show="other" xlink:type="simple"><stop offset=".318" stop-color="#fdb8bb"/><stop offset=".988" stop-color="#fdb8bb" stop-opacity="0"/></radialGradient><path d="M1551.4-895.7c-0.6-2.8-1.6-5.1-3.1-6.9c-1.4-1.8-2.9-2.6-4.4-2.3c-1.6,0.3-2.7,1.5-3.5,3.6 c-0.7,2.2-0.8,4.7-0.3,7.5c0.2,1.1,0.5,2.1,0.8,3c0.4,1,0.9,1.9,1.4,2.7c0.3,0.4,0.5,0.8,0.8,1.2c1.5,1.8,3,2.6,4.6,2.4 c1.5-0.3,2.7-1.5,3.4-3.7C1551.8-890.4,1551.9-892.9,1551.4-895.7z" fill="url(#i)"/><radialGradient xmlns:xlink="http://www.w3.org/1999/xlink" cx="-475.681" cy="498.991" gradientTransform="matrix(-2.0446 .1562 .1562 2.042 545.72 -1842.362)" gradientUnits="userSpaceOnUse" id="j" r="10.411" xlink:actuate="onLoad" xlink:show="other" xlink:type="simple"><stop offset=".318" stop-color="#fdb8bb"/><stop offset=".988" stop-color="#fdb8bb" stop-opacity="0"/></radialGradient><path d="M1605.1-892.7c0.6-0.8,1-1.7,1.2-2.7c0.3-1,0.3-2.1,0.1-3.2c-0.2-2.8-1.4-5.1-3.6-6.9 c-2.2-1.8-4.7-2.6-7.5-2.3s-5.1,1.5-7,3.6c-1.9,2.2-2.7,4.7-2.4,7.5c0.3,2.8,1.5,5.1,3.7,6.9c2.2,1.9,4.7,2.7,7.5,2.4 s5.2-1.5,7-3.7C1604.5-891.6,1604.8-892.1,1605.1-892.7z" fill="url(#j)"/><radialGradient xmlns:xlink="http://www.w3.org/1999/xlink" cx="-439.941" cy="11.885" gradientTransform="scale(-2.0506 2.0506) rotate(-39.763 -1257.253 270.211)" gradientUnits="userSpaceOnUse" id="k" r="11.668" xlink:actuate="onLoad" xlink:show="other" xlink:type="simple"><stop offset=".318" stop-color="#fdb8bb"/><stop offset=".988" stop-color="#fdb8bb" stop-opacity="0"/></radialGradient><path d="M1615.9-927.7c0,0.6,0.1,1.1,0.3,1.6c0.6,3.3,2.2,6,4.8,8.3c3.1,2.6,6.6,3.7,10.7,3.4 c1.9-0.2,3.7-0.8,5.3-1.6c-0.1-1.2-0.3-2.4-0.6-3.6c-0.8-3.4-2.4-5.9-4.8-7.6c-1.4-1.1-3.1-1.8-5-2c-1.8-0.3-3.6-0.1-5.3,0.4 c-1,0.3-2,0.8-3,1.3c-0.3,0.4-0.6,0.8-0.9,1.2c-0.1-0.2-0.1-0.4-0.2-0.6c-0.3-1.8-0.6-3.4-1.1-4.9 C1615.9-930.6,1615.8-929.1,1615.9-927.7z" fill="url(#k)"/></g></g></g><g><g><g><g><path d="M-670.9,147.7c-7.9,0.6-12.6,0-13.9-2c0.4,2,1,3.8,1.9,5.4c0.1,0.1,0.2,0.3,0.3,0.5 c0.5,0.8,1,1.5,1.7,2.2c2.8,3.3,6.2,5,10,5.2h0.1c11.6,0.3,18.7-3.9,21.2-12.6c0.4-1.8,0.5-3.8,0.5-6 C-655.7,144.5-663,147-670.9,147.7z" fill="#D1665E" transform="matrix(.9134 0 0 .9134 984.15 36.15)"/></g><g><path d="M-685.2,142.2c-0.1,0.7,0,1.3,0.2,1.8c0.1,0.5,0.2,1.1,0.3,1.6c1.3,2,6,2.7,13.9,2 c7.9-0.7,15.2-3.1,21.8-7.4c0-0.8,0.1-1.5,0.1-2.3L-685.2,142.2z" fill="#FFF" transform="matrix(.9134 0 0 .9134 984.15 36.15)"/></g><g><path d="M-677.3,125.3c-0.1-0.1-0.1-0.3-0.1-0.5c0.1-1.4,0.8-4.4,2-9c1-3.1,1.8-5.6,2.2-7.3 c-6.6,9-9.8,14.8-9.7,17.4c0.1,2,1,3.9,2.7,5.6c0.9-0.7,1.5-1.2,1.8-1.6C-677.6,128.9-677.2,127.4-677.3,125.3z" fill="#FA8E79" transform="matrix(.9134 0 0 .9134 984.15 36.15)"/></g><g><path d="M-649.1,73.3c-5.2,2.3-7.9,5.4-8.2,9.2c8.7-7.5,21.1-9.4,37.2-5.8C-627.7,70.5-637.4,69.4-649.1,73.3 M-696.3,93.3c-1.7-2.6-3.5-3.8-5.3-3.7c-2,0.3-3.5,1.8-4.5,4.7c-1.2,3-1.6,6.5-1.3,10.5c0.3,4.1,1.2,7.4,2.9,10 c1.5,2.7,3.3,3.9,5.2,3.7c1.9-0.1,3.4-1.7,4.6-4.7c1-3,1.4-6.5,1.2-10.5C-694,99.4-694.9,96.1-696.3,93.3 M-695.7,73 c-10.2-2.6-18.3-0.4-24.2,6.5c13.3-5.3,24-4.7,32.1,1.7C-688.4,77.4-691,74.6-695.7,73 M-636.6,90.7c-1.9-2.6-4-3.8-6.2-3.7 c-2.2,0.2-3.9,1.7-5.2,4.7c-1.4,2.9-1.9,6.4-1.5,10.4c0.3,4.1,1.5,7.4,3.4,10.1c1.8,2.6,3.7,3.9,5.9,3.8 c2.3-0.2,4.1-1.8,5.5-4.8c1.2-2.9,1.7-6.4,1.3-10.5C-633.8,96.7-634.8,93.4-636.6,90.7z" fill="#18244C" transform="matrix(.9134 0 0 .9134 984.15 36.15)"/></g><g><path d="M-582.3,91.9c-0.8,0-1.4,0.2-1.9,0.6c-2.4,2.3-4.1,4.8-5.1,7.3c-0.1,0-0.1,0-0.1,0.1 c-1.1,2.8-1.5,4.8-1.2,6c0.1,1.1,1.2,3,3.2,5.5v0.1c1.3,1.5,2,2.6,2.3,3.1c0,0.7-0.3,1.4-0.9,2v0.1c-0.4,0.4-0.8,0.8-1.3,1.2 c-0.5,0.4-0.8,1-0.8,1.8c-0.1,0.6,0,1.2,0.4,1.8c0.6,0.6,1.2,0.9,1.9,0.9c0.7,0.1,1.3-0.1,1.9-0.4c0.6-0.6,1.2-1.2,1.8-1.8h0.1 c1.6-1.9,2.4-3.9,2.2-6.1c0-1.2-1.1-3.2-3.4-5.9c-1.1-1.6-1.8-2.7-2.1-3.3l-0.1-0.1c0.1-0.5,0.4-1.6,1-3.1 c0.8-1.9,2.1-3.7,3.9-5.5c0.5-0.4,0.8-1,0.8-1.8c0-0.6-0.3-1.3-0.6-1.9C-580.9,92.1-581.5,91.9-582.3,91.9z" fill="#F39381" transform="matrix(.9134 0 0 .9134 984.15 36.15)"/></g></g></g></g></g></svg>